<?xml version="1.0" standalone="no"?>
<!DOCTYPE svg PUBLIC "-//W3C//DTD SVG 1.1//EN" "http://www.w3.org/Graphics/SVG/1.1/DTD/svg11.dtd" >
<svg xmlns="http://www.w3.org/2000/svg">
<metadata></metadata>
<defs>
<font id="graffiti2cregular" horiz-adv-x="890" >
<font-face units-per-em="2048" ascent="1397" descent="-651" />
<missing-glyph horiz-adv-x="614" />
<glyph horiz-adv-x="2048" />
<glyph horiz-adv-x="2048" />
<glyph unicode="&#xd;" horiz-adv-x="2048" />
<glyph unicode=" "  horiz-adv-x="614" />
<glyph unicode="&#x09;" horiz-adv-x="614" />
<glyph unicode="&#xa0;" horiz-adv-x="614" />
<glyph unicode="!" horiz-adv-x="497" d="M20 911q0 18 3 33q47 297 73 436q9 59 54 95v-39q32 0 53 49q20 -3 20 -15v-6l-63 -137v-24q5 28 50 -29l3 -4q6 0 10 4l43 63h13q3 0 -44.5 -112.5t-74.5 -173.5v-19q27 0 30 8l150 320v-55l-201 -457v-17q27 0 31 7l180 393q12 -79 12 -156q0 -33 -2 -35l-116 -309v-16 q16 0 31.5 17.5t30 48.5t25.5 58.5t24 64.5t18 50q10 -45 10 -84v-22l-96 -180v-31h20l33 53q-2 -3 -2 -11.5t1 -19t1 -12.5q0 -111 -10 -203q-6 -73 -27 -73q-7 0 -13.5 5t-13.5 5q-15 0 -32 -10q-29 4 -77 3t-71 -14v394q0 11 -38 74.5t-38 82.5zM33 94v23q0 11 10 31 t25 43.5t18 29.5q26 60 20 117q7 4 11 0q49 -9 96 -21l-63 -116v-33h20l86 139h4q7 0 37 -10l-74 -160v-33h21l96 181q0 2 8 2q25 0 25 -17v-6l-107 -213q-26 -51 -123 -51q-13 0 -29 10t-29.5 24t-25.5 28t-19 23zM203 1315v12l63 125q1 0 11.5 -1.5t18.5 -3t15.5 -7 t7.5 -13.5q0 -31 -36 -79v53h-27q-2 -4 -15 -29t-22 -39t-16 -18zM266 1452v2v-2zM330 78v6l53 106v-174q-53 0 -53 62z" />
<glyph unicode="&#x22;" horiz-adv-x="784" d="M74 1411q0 27 30 33h74q12 0 12 -12q0 -7 -15 -52t-15 -51q24 0 40 25.5t25.5 51.5t16.5 26q53 12 52 -11q-1 -15 -35 -60q-14 -18 -17 -24q-117 -217 -117 -233v-33h22l127 244l21 22q-1 -2 -0.5 -7t1.5 -12l1 -7q0 -90 -150 -363q-24 -47 -22 -47l-41 -43zM178 897v14 l107 213q3 -83 0 -170q-1 -17 -6.5 -29t-12.5 -18t-20 -8.5t-21 -2.5t-24.5 0.5t-22.5 0.5zM465 891v340l12 10l127 203q21 3 74 -12q-14 -42 -40.5 -87.5t-54 -85t-32.5 -49.5q-8 -13 -8 -53h18l127 211q3 -28 33 -31q-6 -14 -19.5 -40.5t-23.5 -45.5t-10 -20q0 -9 5 -15 t5 -12q0 -17 -7.5 -40.5t-22 -52t-26 -48t-29.5 -49.5t-22 -37v-33h23q7 0 49 83t68 140l10 11v-33l-53 -211q-9 -30 -33 -33zM465 1305v116q0 8 53 23h33v-12q0 11 -6 -4q-30 -76 -54 -102q-12 -14 -26 -21zM711 1241l41 64q5 -30 -11 -74z" />
<glyph unicode="#" horiz-adv-x="1157" d="M82 453.5q0 6.5 1 17.5t1 16q0 91 20 170q21 -21 42 -45t32 -38l10 -13v-37q58 0 76 60l201 264l10 10v-20v-21q-2 -48 -6 -125.5t-4 -107.5h153l103 211v6q0 10 -12 16l-181 84l-10 10q1 -1 3 3t5 10.5t6.5 13t8.5 11.5t10 5l201 74h10q-26 0 -54 -81.5t-28 -98.5h18 l213 350v-20l-63 -181v-8q0 -2 43 -2q95 16 137 21h16q36 0 91 -64q-3 -3 -11.5 -13t-12.5 -14t-12 -13t-13 -14t-13 -12t-14.5 -11.5t-14.5 -9.5t-16 -9q-38 -16 -71.5 -43t-51.5 -49.5t-46.5 -61.5t-43.5 -57q-2 -3 -14 -16.5t-20 -24.5t-17.5 -26t-15 -30t-5.5 -28 q19 0 40.5 19.5t36.5 43t30 43t24 19.5q15 0 68 -33q-7 -6 -41 -53q-212 -286 -223 -297l-10 -10v4q0 34 16 80.5t16 58.5q0 9 -16.5 21t-47 24.5t-53.5 21.5t-58 20.5t-38 12.5q-23 9 -32 11l-11 -43l-63 -529q-84 39 -139 74q-21 12 -21 51q0 59 7 127.5t19.5 152 t16.5 124.5q-2 2 -6 2q-38 0 -87 -16.5t-62 -16.5q-11 0 -17 4t-8 11.5t-2 14zM125 918q0 10 6.5 34.5t15 54.5t11.5 44q20 3 94 -23q12 -3 12 -14q0 -9 -12 -27q-9 -16 -23 -42t-21.5 -39.5t-16.5 -29t-16 -22t-13 -6.5q-37 0 -37 70zM264 795q-90 0 14 160q26 40 27 42 q4 8 12 11q74 16 95 -31q-12 -14 -46.5 -63t-62.5 -84t-39 -35zM289 104h28q6 12 24.5 43t31 54.5t12.5 31.5h-37q-59 -35 -59 -129zM305 764q61 113 150 190q10 -30 10 -36v-7l-148 -190q9 37 -12 43zM412 1145q0 57 63 149q64 92 96 117v-31q0 -9 -73 -286 q-15 -55 -76 -107q-10 98 -10 158zM412 1294q0 55 38 96.5t68 41.5h10q-1 0 -5.5 -7.5l-9 -15t-5.5 -8.5q-11 -14 -35 -49q-46 -69 -56 -69q-5 0 -5 11zM592 -4q0 86 43 141l319 414q8 13 31 20q43 21 43 -34q0 -125 -96 -125q-10 0 -22 14t-19 18l-23 -63 q-54 -46 -106 -107l-3 -4q-3 -3 -10 -10.5t-15 -17t-17.5 -22t-18.5 -25.5t-17.5 -27.5t-15 -28.5t-10.5 -28.5t-4 -26.5h17q62 90 127 170q18 22 43 43v-23l-76 -254h-117zM625 487h20l234 320q24 35 24 63h-24q-11 -4 -19.5 -15t-18.5 -31t-16 -29l-200 -275v-33z M784 1071v244q23 48 23 65q0 24 -23 21l11 10l53 -43l74 64q45 0 45 -70q0 -12 -2 -14z" />
<glyph unicode="$" horiz-adv-x="954" d="M20 53l74 254q0 2 25 2q50 0 127 -17t82 -18q64 -3 127 0q-29 -56 -29 -92q18 0 35.5 22t31 50.5t15.5 30.5q25 23 41 47t21 37.5t12 40t10 34.5q5 13 43.5 86t38.5 80q-22 0 -50.5 -34.5t-52.5 -77.5h-10l-63 73l116 267q79 -49 181 -160q7 -5 5 -17t-6.5 -21t-11 -20.5 t-8.5 -15.5q-96 -188 -117 -223q-19 -31 -47 -73.5t-42 -64t-25 -50.5t-11 -56h19q7 0 106.5 175t137.5 249q22 40 32 53q26 -12 40 -77t14 -121q0 -248 -256 -353q-16 -7 -47 -15t-45.5 -15.5t-14.5 -18.5v-4l64 -84q2 -2 2 -4q0 -27 -49 -64t-80 -48q-6 16 -28.5 37.5 t-42.5 34.5l-19 14v124zM72 965v86q0 235 192 317q-3 -22 21 -22q13 0 43.5 22t61 48t34.5 28q54 37 32.5 42.5t-64.5 -18.5q-12 -7 -21 -14q1 24 -7.5 43t-13.5 25t-2 6q13 0 23 -10l127 20h63l-457 -457v-20h21l299 276v-6q0 -102 -66 -186q-58 -76 -127 -148v-16 q40 0 74 37v-21q0 -1 -84 -213q-15 -44 -103 99q-43 70 -46 82zM252 741q0 11 2 13l104 274q17 17 22 -21q1 -10 1 -22q0 -23 -9 -51t-20.5 -53.5t-13.5 -32.5q13 -27 40 25q5 9 13 27q27 55 37 56q59 0 59 -49v-6l-63 -137v-33h20l84 160q43 -24 43 -37q0 -10 -10 -37 q-92 -213 -96 -213h-14q4 2 -8 9q-9 5 -40 20q-127 61 -146 93q-5 8 -5 15zM434 1348l137 137q-21 -85 54 -94l-70 -64v68q0 38 -31 -21q-7 -15 -25 -51q-49 -103 -61 -104q-16 0 17 45v73zM518 1167q4 8 15.5 23t20.5 27t9 14q0 23 10 43t19.5 30t36.5 31.5t39 32.5h12 q0 -10 -2 -21.5t-7.5 -27t-9 -26t-13 -31.5t-13.5 -30t-16 -34t-15 -31h-86zM645 1151q0 28 31 104t55 113q50 -19 97 -54t51 -63q2 -2 -15.5 -26.5l-37.5 -52.5l-21 -27q-8 -11 -10 -21h-56q3 0 7 28.5t4 33.5q-19 0 -34.5 -13t-25 -25.5t-12.5 -12.5q-33 0 -33 16z M657 137h21q72 160 180 254v23h-20q-61 -46 -107 -107q-74 -103 -74 -139v-31z" />
<glyph unicode="%" horiz-adv-x="1198" d="M74 901v350q0 158 157 193h54v-12q0 -5 -11.5 -20.5t-25.5 -32t-17 -21.5q-12 -19 -43.5 -65t-46 -70t-29 -61t-14.5 -68h17l43 84q15 -15 53 -15v-6l-74 -160v-18q11 0 21.5 7t18.5 16t17.5 25.5t14 26t12.5 28t10 22.5v-180l-3 -18q-3 -17 -3 -34q44 0 66.5 15t26 33 t8 46t12.5 42q88 148 149 243q13 -37 13 -135q0 -53 -2 -55l-54 -84v-25q16 0 44 20q10 7 10 -1q0 -22 -11 -101q-27 -159 -206 -159q-207 0 -207 190zM145 4q0 47 76 123l234 434q48 94 94 94q14 0 43.5 33t60.5 74t35 45q7 -24 -74 -137l-10 -13q-8 -9 -37 -39.5 t-35.5 -38.5t-26 -31.5t-24.5 -35t-15 -31.5t-12.5 -38t-2.5 -40h14l33 52h30q-44 -80 -264 -475q-40 -54 -53 -107l-64 117q-2 2 -2 14zM201 1221v4q0 39 48.5 112t88.5 95q87 21 139 -105q-7 -15 -21.5 -43t-21.5 -43q-77 -148 -106 -170q-8 213 -21 213h-22zM625 870v11 l159 307q52 12 112 95t89 149q67 19 62 -30q-5 -47 -57 -121l-5 -7q-55 -85 -201 -287q-15 -21 -53 -63q-18 -18 -59.5 -34.5t-46.5 -19.5zM688 293q0 57 10 67q105 122 213 265q39 52 54 86q63 -9 63 -27q0 -44 -47.5 -88.5t-89.5 -54.5q-18 -4 -51 -110l-2 -7 q-31 -37 -97 -107v-20h23l94 84q-3 -70 0 -137q3 -43 23 -76q15 -15 17 -25.5t-3.5 -24.5t-5.5 -24q0 -28 33 -28v28q44 57 116 160q31 42 31 139q-22 0 -31 -22q-27 -94 -58 -135q-27 -37 -30 29v16q0 55 36.5 129.5t115.5 140.5l12 -21q10 -100 10 -186q0 -81 -10 -186 q-21 -178 -207 -178q-185 0 -209 167q-10 61 -10 146zM688 414v20q0 254 160 277h63l-30 -64q-62 -127 -193 -233zM698 817v4v-4zM858 1315v6q0 43 64 123h16q0 -61 -80 -129zM954 424v84l107 139q15 8 23 -0.5t8 -32.5q0 -2 -11 -20q-83 -98 -107 -136q-10 -15 -20 -34z " />
<glyph unicode="&#x26;" horiz-adv-x="1081" d="M63 365q0 31 18.5 75.5t56.5 110.5t42 74q10 22 25.5 42t26.5 31t12 13q-27 44 -51 17q-9 -10 -46 -81q-34 -65 -84 -170v43q0 137 84 244q6 8 32 34t40 46t14 37q0 22 -12 43q-63 111 -63 200q0 181 106 256v-6q0 -6 -20 -102q-9 -40 -5 -41q3 -1 13 16l2 4l84 181 l33 12v-12q0 -18 -30.5 -73.5t-33.5 -64.5q-86 -219 -86 -243v-19q30 0 33 8q71 230 170 404q3 17 74 20h10l-234 -446v-31h23q105 194 180 328q10 21 14.5 24.5t5 -3t6 -15t15.5 -8.5q6 0 15 10t19 27.5t19 33.5t19 34.5t14 25.5q5 12 59 -3.5t105 -37t49 -23.5l-43 -182 q-3 -10 -43 -10q-27 0 -62.5 10.5t-43.5 11.5h-60q-131 0 -131 -100q0 -140 137 -186v-13l-157 -327q-17 10 -29 10t-32.5 -57.5t-43.5 -129t-35 -90.5v-32h23l41 75q-4 -7 16.5 -36.5t41 -55t18.5 -24.5l94 -23q2 0 2 -4q0 -13 -10.5 -35t-26 -47t-30 -46t-28 -39 t-14.5 -19q-24 -41 -28 -41q-76 0 -142 51l-13 11q-13 11 -27.5 24.5t-30 29.5t-25.5 32t-10 26q0 4 2 4l340 702v41h-23l-340 -690q0 -2 -4 -2q-11 0 -24 64t-13 82zM434 10q83 139 150 244v10q0 21 35 82t38 68q19 43 19 90q-16 0 -38.5 -17.5t-39 -36t-36.5 -43.5 t-21 -26q-16 -16 -29.5 5.5t-13.5 31.5q0 25 21 67.5t55 96.5t40 65q17 33 27 33q5 0 27 -59.5t37 -59.5q13 0 22.5 22t12.5 40.5t3 23.5q0 18 -7 40t-13 36t-3 28t21 23h170q11 0 43 -74q5 -11 7.5 -22t4 -27.5t1.5 -22v-27.5v-23q0 -65 -17.5 -155.5t-17.5 -121.5 q0 -37 12 -37q15 0 74 53v-6q0 -13 -5 -30t-5 -23q0 -16 26 -16q37 0 80 32v-10q0 -11 -74 -244q-5 -12 -50 -24.5t-68 -15.5q-9 -1 -51.5 16t-80.5 35t-36 20q-130 -71 -293 -71q-48 0 -27 30zM434 535v6l160 317q24 -70 31 -104q-41 -82 -127 -246q-14 -33 -27 -33 q-37 0 -37 60zM528 1407q0 6 23 47h10q0 -34 -21 -49q-11 -6 -12 2zM551 328q-5 13 43 53q4 -11 -33 -74zM604 63h21q59 121 106 201q81 145 203 330v20h-33q-113 -171 -201 -329q-96 -169 -96 -191v-31z" />
<glyph unicode="'" horiz-adv-x="403" d="M74 1411q0 36 10 74q88 -14 94 -31q-39 -84 -74 -139q-10 -19 -19 18q-11 41 -11 78zM104 1188v24v19l117 213q26 6 56 -5t30 -22q0 -5 -21 -19t-22 -18l-117 -223v-33h21l127 234l22 22q-2 -2 -2 -12.5t1 -23t1 -13.5v-47q-1 -10 -3 -49.5t-4 -67.5t-5.5 -71.5t-8 -74 t-10.5 -60t-14 -45t-18 -15.5h-117q-12 0 -12 17q0 6 6 15.5t6 14.5q0 45 -6.5 93t-15.5 91t-11 56z" />
<glyph unicode="(" horiz-adv-x="720" d="M94 598q0 64 10 156q21 166 84 274q59 101 160 256q106 119 137 119q9 0 13 -2q-151 -307 -320 -543v-31h21q19 0 145.5 215.5t183.5 337.5q-9 60 54 84h18q-8 -4 -8 -20v-12q10 -85 10 -117q2 -10 2 -70q0 -43 -2 -47l-8 -8q3 7 -7 13.5t-16 6.5q-16 0 -47.5 -46.5 t-69 -112t-53.5 -86.5q-64 -85 -152 -196t-104 -132q-16 -22 -16 -49q17 0 46 24.5t64 68t64 81.5t64 86.5t45 62.5l10 13v-6q0 -82 -43 -144q-17 -25 -53.5 -61.5t-40.5 -55.5l-170 -233q-7 -7 -16 83q-5 49 -5 91zM125 340q0 45 103 182.5t141 167.5v-203 q-8 -15 -38.5 -49.5t-62.5 -69t-37 -40.5q-16 -22 -16 -54h16l148 160q12 -30 12 -57v-17q-51 -46 -93 -101t-42 -87q15 0 45.5 36.5t60.5 73.5t44 37q4 0 6 -2q24 -65 55 -128.5t74 -117t77 -53.5q0 -73 -4 -229q0 -1 -1 -7.5t-1.5 -10.5t-1.5 -10.5t-2.5 -10t-3.5 -8 t-5 -6.5t-7 -2q-25 0 -106 57q-3 3 -5.5 4.5t-5.5 3.5q-58 38 -137 127q-105 117 -170 275q-1 3 -10.5 24.5t-15 36.5t-11.5 37.5t-6 40.5zM356 49q18 0 55.5 42t37.5 67h-27q-66 -57 -66 -109z" />
<glyph unicode=")" horiz-adv-x="720" d="M74 1368q0 68 22 96q33 9 33 -16q0 -6 -12 -27l-6 -12q-26 -50 -33 -51q-4 0 -4 10zM84 1249q0 13 25 69.5t61 113.5q76 -27 76 -62v-12l-53 -180v-19q13 0 24.5 12t20.5 33.5t15 41.5t13 45.5t10 35.5q9 30 81.5 -55t111.5 -148v-16q0 -19 -12 -37q-141 -216 -148 -223 l-10 -10q-3 9 -13 32.5t-16 38t-11 34.5t-5 34q0 23 47 97.5t47 99.5q-12 0 -26 -11t-28.5 -30t-24.5 -34.5t-22.5 -36t-13.5 -22.5q-4 -6 -65.5 68.5t-71.5 89.5q-12 15 -12 51zM86 -20q0 8 12.5 26.5t27 36t29 34t15.5 17.5q6 10 21.5 32.5t21.5 31.5q70 125 96 245 q33 33 82 92.5t55 65.5q76 85 150 139q3 -122 0 -245q0 -13 -13.5 -76t-19.5 -82q-102 -373 -424 -551q-23 -10 -39 -10q-14 0 -14 20v224zM240 -127q17 0 34 24t30 52.5t15 30.5q2 3 41 41.5t65 76.5t26 70h-25q-8 -18 -40 -53.5t-63.5 -68.5t-57 -81t-25.5 -92zM250 137 h26l54 96l233 265q27 30 27 53h-27l-43 -43q-10 -10 -41 -53q-20 -23 -84.5 -92t-95.5 -109q-49 -63 -49 -117zM319 768q0 31 24.5 74t72.5 105.5t53 70.5q5 7 15.5 21.5t15.5 21.5q86 -154 86 -277q0 -27 -37.5 -72t-101 -106t-85.5 -86q-5 -6 -32 -33v181l20 10 q4 2 150 213q21 28 -11 36q-29 7 -47 -6q-6 -5 -6 -10q0 -9 5 -15t5 -11q0 -23 -48.5 -89.5t-67.5 -74.5q-11 15 -11 47z" />
<glyph unicode="*" d="M41 858q23 -4 27.5 6.5t-7.5 36.5q15 -28 65.5 9t94 82.5t43.5 41.5q0 8 -35 28t-82.5 45t-64.5 38q-10 8 -21 22l21 -10q3 7 10.5 29.5t13.5 37.5t15 33t19.5 27.5t21.5 9.5q8 0 21 -6.5t23 -13.5t26 -18.5t20 -14.5q-16 -22 -16 -67q9 0 29 18t24 18q15 0 24.5 -3.5 t14 -9t6 -16.5t1 -20t-1.5 -26.5t-1 -30.5h16q73 124 148 211v16q-39 0 -105 -90q-25 -32 -40 -33.5t-20 15t-5 45.5q0 21 38.5 93t79.5 93l127 -43l-63 -201q-16 -14 -36.5 -34t-57 -60t-60.5 -83t-24 -75q18 0 50.5 31.5t60 69t51.5 72t26 36.5q9 6 60 44.5t88.5 61.5 t58.5 23q36 0 71 -102q8 -20 9 -20v-17q0 -2 -18 11.5t-36.5 27.5t-19.5 14h-12h-10l-297 -286q-13 -13 -21.5 -26t-12.5 -19.5t-9 -8.5q-29 -16 -43 -53q-106 -33 -164 -33q-59 0 -121 74zM283 672q0 92 65 92q81 145 234 276h10q4 -48 10 -75q3 -8 36.5 -14t79.5 -10.5 t54 -6.5q76 -12 86 -10q-41 -56 -86 -107q-15 -20 -35 -35q-8 -6 -8 -2t2 4q14 24 -6 41.5t-52.5 25t-61.5 15.5t-29 15v53q-43 -12 -43 -37l22 -16q14 -7 7.5 -42.5t-21 -76t-31.5 -73t-24 -32.5q-32 0 -97 21v-45q0 -1 -28 4.5t-56 15.5t-28 19zM305 1518l86 -43q2 0 2 -9 q0 -25 -35 -55q-12 69 -53 107z" />
<glyph unicode="+" horiz-adv-x="1071" d="M94 704.5v25.5v28q0 11 42 74q60 84 65 45q0 -14 -6.5 -32.5t-15.5 -37t-11 -23.5q16 -33 58 37q29 48 32 49l9 -3q83 -21 83 -40q0 -8 -2 -10l-63 -106v-33h20q47 75 86 129q13 16 31 10q11 90 122 244l28 35l-1 -2l11 10q32 -19 32 -70q0 -22 -12 -37l-223 -329v-31h22 l244 350q18 -32 2 -73.5t-64 -106.5t-55 -76q-73 -122 -73 -147v-13l-23 13l-287 30q-10 1 -17.5 3t-13 7t-9 9.5t-6 14t-3.5 15.5t-1.5 20t-0.5 21.5zM412 391q0 102 43 117q93 208 233 383q16 -18 44.5 -31t64.5 -22.5t39 -10.5q14 -3 16 -14t-6.5 -25.5t-18.5 -28 t-20.5 -25t-11.5 -13.5q-9 -12 -9 -39q14 0 31 13t26.5 25t26.5 36.5t19 27.5q65 -44 65 -127l-3 -9q-31 -106 -50 -107q-56 0 -127.5 16t-89.5 16q-6 0 -11.5 -7.5t-10.5 -20.5t-9.5 -29t-8 -35.5t-6.5 -37.5t-5 -37t-4 -32t-3 -24t-1 -12q-3 -15 -8.5 -27t-11 -20 t-16.5 -13.5t-17.5 -8t-22 -4t-21.5 -1.5h-24.5h-22.5q-39 0 -53 13.5t-5 36t23 43t32 42t20 25.5q76 165 127 244q49 83 116 149v14q-48 0 -136 -123q-7 -10 -13 -18q-73 -147 -127 -246q-37 -63 -45 -67q-7 -2 -8 14zM432 954v160q0 36 66 74q3 3 10 0q53 -21 53 -31 q0 -19 -32 -70t-63.5 -92t-33.5 -41z" />
<glyph unicode="," horiz-adv-x="487" d="M51 -221q-53 11 42 78l12 9q7 5 10 7q24 3 42 20.5t26 35t17 42t11 29.5q1 3 4 9q7 11 0 11q-19 0 -40 -10t-34 -10h-16q55 111 96 190q31 61 74 95q73 9 76 -11q-2 -40 -20.5 -81.5t-39.5 -69t-38 -58.5t-17 -53q14 0 28.5 11t22 20.5t23 32.5t18.5 28q18 26 47 90.5 t39 79.5v-14q-1 0 -6.5 -46.5t-17 -112.5t-29 -132t-46.5 -112.5t-63 -46.5q-20 0 -33.5 5t-17.5 5q-20 0 -54.5 -32t-51.5 -32q-1 0 -7.5 2.5t-24 9t-32.5 11.5zM94 51v193q0 41 31 41h111q-10 -21 -48 -74q-40 -70 -84 -160h-10z" />
<glyph unicode="-" horiz-adv-x="657" d="M63 500q0 59 20 162t23 122q10 3 23 0q90 -12 137 -20q-22 -26 -62 -81t-69 -98t-29 -44v-33h23q80 127 180 246h17q22 0 41 -3t27 -7l9 -3v-10q0 -36 -97 -140t-140 -104q-18 0 -52 6.5t-51 6.5zM266 487q18 21 60.5 81t79 107.5t51.5 55.5q55 12 55 -14q0 -12 -12 -27 q-135 -203 -138 -203h-96zM416 487q35 93 84 127q9 9 42 -31t33 -46q0 -50 -32 -50h-127z" />
<glyph unicode="." horiz-adv-x="487" d="M68 274h122q-33 -57 -86 -127q-4 9 -10 40.5t-12.5 57t-13.5 29.5zM137 31h21l159 243q5 5 19 5q35 0 35 -25v-231q-18 0 -33 -3q-163 -20 -199 -20q-100 0 103 271q1 2 2 3q4 8 10 11h20q-8 -19 -10 -21q-2 -3 -127 -201v-32z" />
<glyph unicode="/" horiz-adv-x="923" d="M10 -221q0 27 35.5 102t101.5 170q50 73 122 165t79 101q31 42 23 64l116 96h11l-201 -432q1 8 -7 13t-16 5q-34 0 -88.5 -68.5t-54.5 -98.5h16l127 124h11l-148 -317q-9 -22 -69 -22q-58 0 -58 12v86zM231 233v11l140 307q3 -16 -5 -48t-8 -38q0 -20 -44.5 -112 t-82.5 -120zM391 584v4q0 12 33 80q14 33 41 86q32 50 110 121.5t146 89.5v-11l-74 -159q-30 -13 -57 -29t-45.5 -29t-42.5 -36t-35.5 -34.5t-38.5 -41.5t-37 -41zM401 467v10q0 15 2.5 28t8.5 25.5t10.5 21.5t16 22.5t17.5 19.5t21 21.5t21 21.5q7 8 26.5 29t27 28 t22.5 18.5t30 18.5h10q-17 -87 -80 -165.5t-133 -98.5zM530 881v20q0 57 105 223q19 33 192 244q12 15 21 25t14 14.5t6 3.5l33 -20v4q0 10 -10 37q22 -6 22 -39q0 -32 -12 -56l-170 -360q-21 49 -59 49q0 -21 -8.5 -38.5t-31.5 -36.5t-42 -32t-60 -38zM721 1305v6 q0 93 74 143q33 -6 43 -22l-21 -11q-20 -10 -57 -62t-39 -54z" />
<glyph unicode="0" horiz-adv-x="923" d="M63 391v649l11 95q24 -5 50.5 31t59 105t37.5 77q43 73 90 73h6l-106 -223q-2 -2 -2 -10q0 -24 22 -21l-51 -116v-33h21q118 252 233 414q3 8 10 12h33l-149 -309q-2 -2 -2 -15q0 -15 5.5 -21.5t16.5 -4.5v-287q0 -15 -15.5 -46t-33.5 -57.5t-36.5 -52t-18.5 -26.5 q-12 -20 -23 -39.5t-23 -47t-18 -41.5t-22 -53.5t-21 -52.5q-18 -44 -18 -109q0 -31 8 -30q4 1 10 12q56 249 217 457v-383q0 -90 123 -105v-6q0 -27 -9 -56t-9 -30q27 0 39 27q123 295 123 299v63l196 351q21 -237 21 -334q0 -19 -4 -39.5t-8.5 -35.5t-16 -39t-16.5 -34 t-20.5 -37.5t-18.5 -33.5q-10 -17 -54 -84v-33h21q4 0 63 96q4 7 16 31q34 69 43 69q5 0 5 -16q0 -287 -234 -381q-76 -30 -159 -30q-254 0 -361 241q-31 73 -31 170zM94 1200q0 60 43 84q2 -3 -1.5 -12t-9.5 -20t-12 -21t-12.5 -20t-7.5 -11zM401 1196l117 236l12 12 q24 6 75.5 -21t51.5 -39q0 -6 -10 -26q-19 -31 -58.5 -95.5t-58.5 -95.5q-32 29 -129 29zM539 481q0 35 12 70q58 163 84 287q-20 59 -54 -53q-9 -30 -23 -89q-5 -21 -7 -28q-2 23 -2 69q0 79 35 154q166 359 180 373l10 10q13 -38 21 -64q10 -42 10 -43v-239h-37 q-13 0 -4 -27q5 -13 0.5 -27.5t-18 -38.5t-15.5 -28q-68 -115 -84 -150q-52 -99 -106 -223q-2 16 -2 47zM551 1114q0 11 33 64q71 121 116 190q49 -40 41 -53l-180 -371z" />
<glyph unicode="1" horiz-adv-x="667" d="M-10 1348q17 -7 41 -21l86 -53v-10l-76 -170v-19q30 0 33 6l96 193q35 16 80 48t81 50.5t77 18.5q15 0 34.5 7t44 19t33.5 15q25 7 43 -9.5t26.5 -48.5t12.5 -65t4 -68q0 -88 -22 -127q-268 -448 -277 -457l-10 -10v254q0 3 10 23q101 164 213 350q14 25 17.5 43 t0.5 45.5t-3 38.5h-15q-3 -57 -33 -107q-172 -289 -180 -297l-10 -10q7 7 -6 33t-30 51t-17 27q0 17 28.5 57t72 91.5t48.5 58.5q10 17 10 36q0 39 -22 39q-53 0 -53 -53q0 -10 6 -14t6 -8q0 -13 -24.5 -47.5t-67.5 -88.5t-58 -75q-33 -45 -116 -45q-46 0 -64 12 q16 190 -20 287zM297 31v223l20 10q-10 -6 -4 5q3 4 84 111q144 190 144 257v31h-21q-22 -47 -63 -117q-74 -118 -160 -244v244q0 9 31 63q231 380 266 437v-490q-100 -85 -100 -137h16l74 74v-457q0 -21 -64 -72q-49 -43 -69 -43t-58.5 27.5t-67 53t-28.5 24.5zM457 328 q0 -4 53 -31q25 -19 34 -1q10 18 -11 38q-25 25 -76 16v-22zM483 152q-3 0 10 8q9 6 35 22q44 27 45 29q0 17 -7 22t-25 0q-58 -24 -58 -81z" />
<glyph unicode="2" horiz-adv-x="911" d="M61 1032.5q0 12.5 1 36.5t1 37q0 56 23 121.5t55.5 109t59.5 43.5h14l-100 -235v-17q19 0 36 23t33 61t17 39q5 11 17.5 41.5t22 50.5t24 43.5t32 35.5t37.5 12q10 0 14 -2l-201 -414v-31h21l233 457h70l-260 -500l-10 -10q-2 -2 -39 -2q-26 0 -45 4.5t-29.5 15t-17 20.5 t-8 29t-1.5 31.5zM63 31v53q0 98 52.5 215t128.5 209q201 237 233 276q74 92 74 234q0 35 -11.5 88t-11.5 61q0 9 2 11l117 213q7 0 11 1.5t13 -4t14 -7.5t14 -10.5t14.5 -13t14.5 -14t13 -14t12 -13t11 -11.5q-59 -68 -59 -170h16l63 116h11q18 0 36.5 -88.5t18.5 -148.5 q0 -224 -162 -367q-18 -17 -45 -39t-29 -24q-22 -23 -60.5 -62t-55.5 -55q-74 -80 -74 -145q0 -4 43 -20t43 -21q0 -35 -15.5 -77.5t-15.5 -49.5q13 0 49 61t50 61q20 0 45.5 -3.5t42.5 -7.5t47.5 -11.5t40.5 -9.5q24 -6 54 -77t30 -110q0 -57 -33 -57h-107q19 74 19 94h-17 l-53 -94h-65q31 120 32 127q-21 60 -54 -54q-9 -28 -19 -73h-426v10q0 26 42 80.5t42 77.5h-31zM214 214q8 -14 30 7l184 246v41q77 104 102 139q13 19 13 43h-25q-72 -72 -147 -203q-7 -11 -56 -93t-94 -140q-14 -23 -7 -40zM254 918v16l53 106q10 -13 10 -49 q0 -73 -63 -73zM381 307q6 -76 16 -76l4 76h-20zM401 1210v11l107 200l22 23q76 -15 76 -33q0 -8 -2 -10l-96 -180q-10 -23 -25 -23q-23 0 -44 3.5t-29 6.5zM551 774h20l140 266v31h-23l-137 -264v-33z" />
<glyph unicode="3" horiz-adv-x="901" d="M31 309q0 61 30 146q10 16 43 22q122 6 224 -22q5 -1 41 -11l-54 -106q-2 -2 13 -53q5 -20 18.5 -32.5t35 -16.5t40.5 -4.5t46.5 0.5t39.5 1q35 -3 35 -22q0 -33 -46 -132t-63 -99q-108 0 -182 30q-221 99 -221 299zM102 1198q0 99 86 170v-10l-53 -117v-18q30 0 33 8 l84 160q17 32 106 53h54q-18 -42 -61.5 -118t-76 -134t-32.5 -68v-24q6 0 22 13t25 13q49 0 49 -32q0 -66 -96 -66q-9 0 -25 2t-38.5 6t-38 14.5t-15.5 24.5q0 8 11 55t11 48v10l-43 -21q-2 10 -2 31zM264 657v191q0 12 9 19t27 9t32.5 2.5t38 -0.5t30.5 -1v8q129 0 129 170 q0 21 -27.5 70.5t-27.5 78.5q0 11 41 84t41 98q-11 0 -22.5 -7t-22.5 -21.5t-19.5 -27t-19.5 -34.5t-15.5 -32t-13.5 -32l-10 -22q-14 -2 -35 -8.5t-43.5 -14t-27.5 -9.5q-38 -12 70 162q42 67 46 71q11 16 31 33q122 12 193 -53q-15 -12 -30 -26t-27 -28t-23 -29.5t-20 -29 t-16.5 -26.5t-13 -23.5t-10 -18t-7 -11.5t-3.5 -3v-29h21q3 0 129 170q20 33 26 33q39 0 81 -100t42 -148q0 -8 -2 -8l-84 -86v-41q0 -19 -7.5 -38t-32 -52t-44.5 -57.5t-73 -86.5t-89 -106q-1 -2 -3 -4q-3 -5 -4.5 -6t-2.5 0l-63 20l319 437q8 8 8 39q-24 0 -30 -9 l-328 -446l-12 -21h-105zM508 10l84 223v25q-35 0 -41 -25q-12 12 -12 31q0 3 12 21q21 36 42 78.5t41.5 91t33.5 79t31.5 79t21.5 55.5q9 24 20 32q50 -12 73.5 -87t23.5 -158q0 -27 -12 -48.5t-38.5 -49.5t-35.5 -40q-107 -134 -107 -149v-31h23q65 96 116 160 q19 22 41 41q2 -4 2 -14q0 -51 -24 -109.5t-65 -109t-102 -84t-128 -33.5v22zM518 571q-16 28 16.5 81t90.5 115.5t63 70.5q62 90 127 213q12 -96 -43 -160q-7 -8 -33.5 -33t-44.5 -46t-18 -32l6 -7q5 -7 10.5 -19.5t5.5 -26.5q0 -35 -16 -82t-51.5 -120.5t-38.5 -80.5 q-35 -88 -53 -94q-4 108 -11 180q0 3 -10 41zM612 1069q18 0 32 18.5t21.5 45.5t11 52.5t3.5 45.5h-25q-43 -61 -43 -162z" />
<glyph unicode="4" horiz-adv-x="870" d="M-41 428q0 28 32 71t32 64q0 36 -43 94l370 564q1 1 160 190l10 10l139 11q54 12 54 -29q0 -12 -5.5 -28t-11.5 -27t-15.5 -25.5t-10.5 -17.5q-13 -19 -13 -35q0 -17 2 -19q20 -160 21 -180q2 -6 2 -37q0 -24 -2 -26l-213 -201v82q-18 0 -21 -8l-137 -287v-33h152 q-7 49 -4 117q1 32 16 64.5t45 65t53.5 55t63.5 56t55 46.5q12 -49 12 -82q0 -4 -8.5 -13t-24.5 -24t-20 -19q-104 -104 -104 -165q24 0 78 74q49 69 63 79q22 17 26 -25q1 -9 1 -22v-27l-23 -10q-12 -4 -254 -276q-37 -40 -37 -68q27 0 84 56t147.5 166t92.5 112l20 -150 q0 4 35 -10.5t70 -40t35 -49.5q0 -14 -14.5 -42.5t-27.5 -49.5t-12 -21q-19 0 -32 23q-15 -12 -21 -31l4 -26h37v-27q0 -30 -13.5 -72.5t-34 -92.5t-26.5 -69q-18 -63 -43 -63h-200q-24 11 -36.5 22.5t-15.5 27t-2 28t5.5 37.5t5.5 43q0 -29 71 -29q6 10 -1 19l-7 10 q0 7 6.5 17t19 22.5t24 23.5t29.5 27t28 26q7 6 33.5 29t47 42t44.5 41.5t37.5 40t13.5 26.5q-1 0 -30 -14.5t-56 -14.5h-4l-64 63h-22v-20l57 -82l-217 -217v145q0 4 -15.5 -5.5t-31.5 -21.5t-17 -12h-18h-23l-299 64q-4 0 -28 11.5t-50 34t-26 44.5zM152 742q10 -12 34 14 l7 8l403 520q4 5 11.5 11.5t10.5 13t3 18.5h-37l-21 -22q-12 -12 -393 -510q-29 -40 -18 -53zM262 711h25q17 30 32 53q2 3 25 30.5t45 55.5t41 61.5t19 53.5h-23q-57 -31 -139 -181q-25 -39 -25 -73zM561 59q18 0 38.5 19t44 53t26.5 37q24 34 24 53h-24q-14 -10 -29 -27 t-25 -30t-24.5 -33.5t-18.5 -26.5q-12 -18 -12 -45z" />
<glyph unicode="5" horiz-adv-x="911" d="M63 432q0 39 50 63.5t88 24.5q46 0 116 -43q0 -17 -9.5 -35.5t-26 -39t-17.5 -21.5q-20 -20 -4 -27q18 -8 44 14l13 13q23 -7 23 -102q0 -15 -12.5 -40t-26.5 -45.5t-29.5 -42.5t-17.5 -24q-12 -18 -12 -43q0 -29 37 -29q0 18 6 38t13.5 35.5t20 35t20 29t19.5 25.5 l13 15q53 -6 106 0l7 5q120 81 120 143q0 57 -26.5 128.5t-26.5 96.5v8l106 117v23h-22l-94 -86q-16 32 -74 86q125 131 221 211q41 -8 80 -69t39 -128q0 -25 -11.5 -50t-11.5 -34v-16q56 -160 56 -295q0 -195 -99 -289q-86 -86 -170 -86v12q83 129 170 275q23 38 8 58 q-9 11 -16 0q-1 -2 -2 -5l-213 -338q-11 -20 -78 -20q-73 0 -143 20q-172 46 -213 211q-21 89 -21 221zM135 1337q0 80 45 95h64l-97 -181q-12 18 -12 86zM147 721v424q0 28 62 149.5t88 137.5h104q-56 -89 -118 -206t-62 -155v-16q21 0 61.5 68t90.5 167t71 131q2 2 4.5 5 t4 4.5t2.5 1.5h266l20 -11h-20l43 -170q18 -75 -70 -75q-20 0 -27 12t-20 12q-10 0 -27 -11t-20 -11h-6q-43 3 -80.5 5.5t-53.5 3.5l-16 1l-10 10l127 129v21h-20q-2 0 -105 -97.5t-108 -105.5q-5 -5 -97 -158q-6 -12 -6 -53h19q54 103 116 190q3 4 8 11q27 37 38 40 q13 4 42 -29l19 -22q-61 -82 -43 -137l-107 -139v-31h21q66 96 160 180h53q66 0 96 -10l-223 -213q-22 -2 -56 -8.5t-69 -14.5t-45 -10q-61 -8 -96 -10z" />
<glyph unicode="6" horiz-adv-x="911" d="M63 307v807q0 131 138 254q58 55 116 55q2 0 -17.5 -26t-46 -60t-32.5 -43q-117 -164 -117 -180v-33h23q55 92 233 320q13 25 31 43h256q54 0 107 -41t53 -86q0 -31 -7 -63.5t-26.5 -60.5t-46.5 -28q-45 0 -118 21.5t-101 23.5q39 59 117 181q8 11 8 39 q-23 0 -60.5 -47.5t-71.5 -104.5l-34 -57q-26 -33 -39 -33h-4q8 43 25.5 70t17.5 36q0 11 -11.5 16t-11.5 11l3 3q3 4 7 10t9.5 14t11 17.5t9.5 18.5t7 18t3 15q-16 0 -41 -20.5t-54 -56t-53 -68t-53 -73.5t-39 -54q-8 -8 -8 -39q27 0 93 83q42 53 49 55q4 -1 5 -7 q0 -94 -65 -197q-19 -23 -25.5 -31.5t-13 -22.5t-6.5 -28l9 -4q8 -3 16.5 -9.5t8.5 -14.5q0 -28 -10 -69.5t-10 -43.5q-76 -486 -76 -520v-53h23l10 41q24 94 45.5 279.5t28.5 230.5q2 20 4 30t6.5 33t12 36.5t18 29.5t27.5 24t38 8v-22l-1 -6q-1 -6 -3.5 -18t-6 -28.5 t-9 -38.5t-11.5 -45t-14.5 -51.5t-17.5 -56.5q-24 -37 -37 -74t-14.5 -64t-2 -56.5t-0.5 -51.5q-10 -39 4 -72q8 -22 16 -3q1 1 1 2q21 -140 113 -140q47 0 67 13v-62q30 0 33 8l170 711l10 10q119 -88 119 -290q0 -167 -12 -314q-4 -31 -11 -63q-35 -158 -213 -234 q-70 -30 -174 -30q-96 0 -176 30q-201 80 -201 297zM422 721l55 244l31 12h22v-23q-21 -156 -32 -213q-6 -30 -11 -30zM528 694q0 40 7 88t19.5 107t16.5 88q35 -4 77 -15t42 -22q0 -4 -2 -6l-127 -543q-1 48 -17 149.5t-16 153.5zM623 94h24q1 0 18.5 81t40.5 185.5 t35 147.5v43h-20q-98 -235 -98 -457z" />
<glyph unicode="7" horiz-adv-x="827" d="M-20 1219q0 62 37 137.5t57 75.5h164q1 0 -22 -55.5t-26 -61.5q-21 -71 -30 -105q-3 -12 -11.5 -17.5t-15.5 -6t-23 0.5t-20 1h-59q-51 3 -51 31zM74 117l73 -23q9 16 13.5 45t6.5 59t3 35q10 61 43 211q5 27 27 59t62 77.5t48 56.5q30 42 33 74l287 520v18q-30 0 -33 -8 l-307 -541q3 -50 -76 -116v20l63 203l304 594v31h133q32 0 32 -21v-180q-247 -499 -319 -967q-7 -47 -13 -110.5t-8 -79.5q-6 -48 -22 -54q-41 6 -115 -7t-86 -13q-17 0 -33.5 7t-34 22.5t-28.5 27t-29 32.5zM199 1186q0 20 4.5 43.5t9.5 40t17 44.5t17 39t21 42t19 37h147 q-4 -19 -13 -44.5t-17 -43.5t-23 -49t-21 -44q-7 -15 -13.5 -25.5t-12 -18t-14.5 -11.5t-15 -6.5t-20 -3.5t-22.5 -1t-29 0.5t-34.5 0.5zM244 117h20l182 338v22h-22l-10 -10l-170 -320v-30zM244 317h20l150 277v20h-21l-10 -10l-139 -254v-33zM383 1198l94 234h113 l-144 -287q13 26 -11.5 43.5t-51.5 9.5z" />
<glyph unicode="8" horiz-adv-x="901" d="M63 244v350q0 97 127 147q8 4 11 13q10 32 22 63t27.5 64t26 53.5t32 60.5t29.5 56q1 -23 11.5 -74t10.5 -66q0 -2 -12 -20q-124 -217 -127 -223q-22 -42 -22 -62q0 -39 39 -39q0 34 15 74.5t32 69t46 73.5t40 64q9 22 30 22q54 0 54 -12v-10l-254 -627q-8 -16 -8 -147 h18q1 0 5.5 25t9 56.5t5.5 45.5l97 233q6 -93 43 -180v-6q0 -19 -9.5 -49.5t-9.5 -40.5h19q12 24 44.5 44t62 33t52 42.5t21.5 72.5q-2 66 -2.5 111t11.5 84t44 80v18q-11 0 -33 -30.5t-36 -30.5q-29 0 -71 23.5t-52 23.5q0 29 49 144.5t90 127.5q-1 8 5.5 49t6.5 74 q0 4 -12 34t-12 54q0 21 2 23l84 159v19q-15 0 -32 -16.5t-27.5 -34t-22.5 -40.5t-13 -24q-9 -13 -23 -14.5t-25.5 4t-26 13t-21.5 9.5q10 31 33.5 67.5t57.5 81.5t46 62q10 5 23.5 0t32 -22t29.5 -28t32 -34q31 -35 44.5 -92t11.5 -112.5t-3 -114.5q11 -7 29.5 -14 t27.5 -13t9 -16q0 -33 -17 -64.5t-42.5 -66.5t-36.5 -60q-2 -2 -2 -10t2 -10q139 -151 139 -320q0 -10 -4.5 -44.5t-11 -75.5t-7.5 -50q-38 -219 -233 -274q-73 -20 -150 -20q-173 0 -276 83q-105 89 -105 181zM84 1139q0 247 264 305h53q-4 -15 -22 -44t-19 -32 q-180 -351 -180 -360v-31h21q88 187 190 371q16 32 64 96h32q40 0 43 -12q-104 -138 -182 -275q-46 -90 -147 -299q-21 -53 -27 -53q-28 0 -47.5 37.5t-28 97t-11.5 107t-3 92.5zM467 49q25 0 31 14l159 351v30h-22l-168 -370v-25zM614 70q27 0 33 14q3 -12 21 -12 q12 0 33.5 37.5t37 74t15.5 39.5q0 21 -23 21l64 127v20h-21l-10 -10l-150 -277v-34z" />
<glyph unicode="9" horiz-adv-x="911" d="M63 1096q0 78 25 143.5t70 97.5v-22l-64 -371l-10 -10q-21 70 -21 162zM94 244q-12 16 21 21l24 1q43 0 118 -21t103 -24v-24q17 0 117 57q42 28 69 100t27 117q0 13 -43 37l54 129v31h-23l-84 -181q-14 -32 -86 -32v12q0 27 16 74.5t45 110t54 113.5t60.5 119t47.5 93 q9 37 9 158h-19q-7 -78 -20 -138q-17 -68 -36 12q-20 83 -20 165q0 12 2 14l64 180v29q-26 0 -47 -49.5t-36 -99.5t-24 -50h-94l62 234l12 12q233 18 338 -213q33 -67 33 -150v-721q0 -147 -84 -243q-55 -62 -72 -64q-4 0 -4 4q0 17 7 38.5t16 40.5t10 22q16 57 53 213 q8 36 8 137h-18q-3 0 -10 -38.5t-14 -82t-9 -49.5q-25 -106 -43 -158q-16 -58 -53 -149q-19 -27 -94.5 -39t-139.5 -12q-50 0 -160 10q-96 9 -96 63q0 1 8.5 9.5t17.5 24.5t9 34q0 4 -2 6zM94 881v6q0 17 32 34q7 3 1 3l84 456q4 11 53 31v-10l-96 -383v-17q30 0 33 7 q5 19 20.5 79.5t29 112.5t28.5 108.5t25 90t13 33.5l43 12h58l-174 -713l-1 -5q-1 -6 -1 -11l6 -5q5 -4 10.5 -11.5t5.5 -14.5v-6l-53 -180l-10 -11q-1 -1 -33 21q-36 36 -47 89.5t-14 140.5t-13 143zM250 487q0 42 36 159.5t62 137.5q15 -52 96 -73q-24 -65 -84 -213 q-18 -43 -38 -43q-72 0 -72 32zM305 821q0 22 5 47t15.5 62t12.5 47q21 -112 -31 -170q-2 4 -2 14zM424 -2q34 0 91.5 117t78.5 192q63 240 63 254v43h-22q-7 -17 -10 -33q-75 -287 -201 -551v-22z" />
<glyph unicode=":" horiz-adv-x="487" d="M10 647l94 223h86l-86 -233v-19q16 0 31.5 18t30 51.5t25 62t23.5 68.5t17 52l13 11h51v-11q-82 -134 -82 -231q16 0 28 14.5t17 30t10 35.5t6 22q16 45 53 99q53 75 54 -2v-213l-10 -21q-34 2 -56 0.5t-61 -6t-43 -4.5h-51q-38 0 -94 19.5t-56 33.5zM82 68q0 2 7.5 14.5 t19 32t18.5 32.5q49 115 84 203q20 6 62 -15.5t75 -47.5t33 -33v-223l-10 20l-203 -51h-21q-65 0 -65 68zM94 207q0 79 64 131v-21l-62 -145q1 6 -0.5 19.5t-1.5 15.5zM199 27q29 0 32 14l54 160v32h-21q-65 -118 -65 -206z" />
<glyph unicode=";" horiz-adv-x="487" d="M74 672v18q10 51 10 103q0 4 -5 18t-5 23q0 13 4.5 16t10 0t13 -7.5t11.5 -4.5q21 0 45 5t32 5h11l-76 -223v-17q30 0 33 6l84 234q12 30 65 33q68 9 74 -33q10 -282 10 -340h-20q15 0 -2 5q-115 29 -120 31q-175 55 -175 128zM92 -299q0 19 8 31t19 17.5t25.5 18 t23.5 31.5l-74 54q6 11 31.5 21.5t45 28.5t19.5 50v16l-12 -10l-31 41q-4 7 -13 35.5t-20.5 87t-11.5 110.5q0 29 2 31l21 21h65q-40 -100 -40 -123q24 0 42.5 30.5t30.5 61.5t19 31h116l97 -95v-10q0 -15 -12.5 -47.5t-37.5 -83t-43 -85.5t-50 -94.5t-38 -70.5 q-82 -98 -182 -98zM201 -127v-25q9 0 18 6.5t18.5 19.5t17 25.5t16.5 32.5t14 32t12.5 31.5t9.5 24.5q35 87 35 127h-25q-23 -33 -60.5 -135.5t-55.5 -138.5zM231 623q26 0 50.5 48t36.5 94.5t12 61.5h-23l-76 -180v-24z" />
<glyph unicode="&#x3c;" horiz-adv-x="1241" d="M117 694q0 12 19.5 17.5t56.5 7.5t40 2q15 4 21 10h10q-6 0 -29.5 -53t-39.5 -53q-78 0 -78 69zM244 594v4q1 -3 4 5q3 6 9 25q51 145 93 167l117 75h10q-2 0 -35.5 -60.5t-76 -136.5t-58.5 -102h-10q-53 0 -53 23zM338 541q12 18 12 20q13 22 30 55t27.5 51.5t18.5 26.5 q2 -1 56.5 -24.5t88 -44t33.5 -37.5q0 -10 -10 -27q-69 -106 -74 -106h-22zM424 700h10q-1 -1 -4 -3t-4 -3q-12 6 -2 6zM438 711l92 170q31 60 148 127h12q1 0 -25 -46t-58 -100.5t-46 -77.5q-18 -36 -96 -67l-12 -6h-15zM561 434q0 17 34.5 67.5t51.5 59.5q18 18 55 -32 q8 -9 9 -9q0 -16 -45 -72.5t-52 -56.5q-53 0 -53 43zM657 848v6q-1 69 134 223l16 17q94 94 233 147h31v-160l-10 23l-86 -53h-4q-7 0 -13.5 5t-13.5 5q-10 0 -20 -10q-109 -142 -267 -203zM678 403q4 6 32 41.5t44 53.5q-2 -2 3 -3q3 -1 14 -3q80 -15 88 -49l1 -9 q0 -8 -2 -10l-84 -107q-2 -2 -10 -2q-52 0 -82 23.5t-4 64.5zM807 285q-3 1 2 10t8 12q63 82 84 107q14 5 30 -2.5t25 -17t9 -13.5q0 -2 -21.5 -35.5t-45.5 -64.5t-28 -27zM919 226.5q-1 4.5 1 11t6.5 14.5t10.5 17.5t12.5 18.5t14 18.5t13 17t11.5 15t9 11.5q3 6 11 10 q69 -34 86 -34q0 -41 -6.5 -89.5t-6.5 -70.5q0 -13 3.5 -24.5t4.5 -13t-2 -3.5q-11 8 -36 22q-92 53 -127 74q-4 1 -5 5.5z" />
<glyph unicode="=" horiz-adv-x="987" d="M41 647h180l-63 -127v-33h20l84 150h43l-90 -203h-143l-11 10q2 -2 4.5 2.5t4.5 9.5l2 5q0 26 -5 58t-14 71.5t-12 56.5zM59 944q0 18 13 21q6 2 53 -22t43 -32l-33 -63l-37 35q-39 40 -39 61zM72 821q0 10 10 17h45q0 -33 -23 -33q-32 0 -32 16zM162 807l59 117l74 10 h63q-8 -20 -53 -117q-3 -10 -10 -10h-133zM262 434l86 191l10 12h80l-59 -129v-31h22l84 160h9h14q132 -10 158 -12l-95 -191h-309zM354 816q-1 11 7 30t16.5 35t20.5 37t14 26h53l-5 -10q-4 -10 -9.5 -21.5t-13 -26.5t-16.5 -29t-18 -26t-19 -19t-19 -7q-10 0 -11 11z M432 807q42 73 86 137q11 18 53 21h41l-84 -158h-96zM575 807l91 170l86 10v-10l-74 -170h-103zM618 434l91 180l10 11q47 6 147 -9l23 -2l22 -20v-150q0 -14 -45 -14q0 14 5.5 40t5.5 38h-19l-43 -74h-53l53 117v33h-20q-72 -150 -86 -150h-91zM731 803v24l74 160l31 10 q53 8 81 -40.5t9 -100t-78 -51.5h-7q-18 0 -21 2.5t5 19.5q19 29 26 40.5t15 32.5t8 40q-24 0 -44 -21.5t-31 -47t-29 -47t-39 -21.5z" />
<glyph unicode="&#x3e;" horiz-adv-x="1241" d="M74 1061q32 58 73 149q24 52 64 64q33 9 33 -27q0 -14 -2 -16q-29 -67 -19 -84q9 -15 36 32q12 21 26 52q66 -25 96 -64q-25 -70 -86 -180q-121 83 -221 74zM158 287q0 30 20 30q15 0 29 -7t14 -19q0 -13 -4 -32.5t-4 -22.5q25 0 41 28q23 63 48.5 89.5t83.5 61.5l15 9 v-21l-94 -202l-106 -54h-31q0 25 -6 76t-6 64zM328 965l84 170l12 10q74 -32 74 -47v-4l-74 -170q-2 -2 -10 -2q-16 0 -86 43zM365 233l112 234q3 10 23 26t40 28t49 28.5t36 21.5v-20q0 -7 -74 -223q-5 -16 -10 -21l-160 -74h-16zM465 901q0 12 5 29.5t14 38t16.5 36 t17 34.5t10.5 22q3 7 13 10q20 11 20 -16v-4l-84 -170q-1 -4 -7 6q-5 10 -5 14zM518 864v6l76 148l10 10q46 20 43 -42q-2 -64 -40 -145q-7 -15 -13 -24q-76 33 -76 47zM604 338v22q0 17 74 224q10 25 36.5 48.5t48 38.5t21.5 23q0 10 -16 23t-16 20q0 13 29 84.5t46 79.5 l121 -76l-184 -401q-7 -12 -60.5 -39.5t-99.5 -46.5zM635 801v6l53 158l10 12q69 -29 86 -53q-1 -3 -12 -32t-18.5 -47.5t-18 -43t-18 -37t-12.5 -12.5q-36 0 -68 47q-2 3 -2 2zM825 455q0 14 23 65q119 256 127 264l10 11q13 7 29 -3.5t26 -21.5t11 -8v-21l-86 -233 q-5 -5 -107 -53q-1 -1 -7 -3.5t-9.5 -3.5t-8 -2t-6.5 1.5t-2 7.5zM1018 541q42 120 63 170q2 7 11 20q32 -3 32 -37q0 -14 -4 -36t-13 -50t-30 -47.5t-49 -19.5h-10z" />
<glyph unicode="?" horiz-adv-x="976" d="M94 1231v137q0 29 64 53h20q-58 -86 -84 -190zM123 1176q0 31 14 83t48 109t77 76h53l-73 -234q0 4 -12 -3.5t-42.5 -19t-64.5 -11.5zM168 571v13l84 233q9 27 43 27v-27l-74 -160v-18q28 0 31 8l86 170q5 11 45.5 20t71.5 11h10q-1 -1 -51.5 -126.5t-81.5 -196 t-37 -70.5h-10l-43 129h-17q-34 0 -57 -13zM242 233q-18 38 32 64q58 3 117 0q94 -6 94 -12v-11l-106 -305q-3 -12 -14 -12q2 0 -2 1q-1 0 -6 2q-85 20 -85 44q0 11 22.5 40t22.5 34q0 4 -2 6zM295 1237q0 21 7.5 51t14.5 49.5t22.5 59t18.5 47.5h64l-53 -193v-16q29 0 32 6 l64 203h8q24 0 33 -11.5t4 -30t-13 -36.5t-19 -37t-13 -24q16 -32 57 44q4 9 14 27q23 46 29 47q29 0 29 -16q0 -4 -2 -6l-107 -203q-3 -10 -14 -10h-6q-1 0 -47 7t-84.5 18t-38.5 24zM322 391q-8 0 24.5 80.5t89 209.5t72.5 167q3 11 10 22q48 81 64 148l149 297l10 12 q74 -55 107 -170q10 -45 10 -129q0 -106 -22 -158q-76 -172 -238 -172q-23 0 -24.5 6.5t8.5 26.5q103 249 106 256q62 131 84 170v17q-42 0 -113 -158q-2 -3 -2.5 -4.5t-1.5 -3.5q-98 -236 -116 -277q-12 -26 -68 -26q8 -57 4 -134q-2 -46 -58 -113t-95 -67zM412 -63 l106 307l10 10v-150l-10 -10q-15 -122 -106 -168v11zM518 1161v6l117 224q63 15 63 -37v-6l-127 -254l-10 -13q-1 1 -11 16t-15.5 23t-11 20.5t-5.5 20.5z" />
<glyph unicode="@" horiz-adv-x="1570" d="M84 594v108q0 346 254 582v-6q0 -7 -10 -37q-39 -95 -117 -286.5t-117 -286.5v-19q31 0 41 29q62 149 144.5 347.5t89.5 215.5q59 134 170 160h22v-10q0 -20 -149 -297q-72 -109 -84 -150l-193 -510h-10q-6 0 -23.5 76.5t-17.5 83.5zM158 377v4l116 309l64 -256 q8 -15 26 -37.5t36.5 -43.5t21.5 -25q49 -59 138.5 -106.5t160.5 -53.5t211 -10v-37q0 -6 14.5 1t35.5 17.5t32 10.5q54 0 131 -23q-2 13 -17 36.5t-16 26.5q-6 33 27 33q2 -2 1 -6.5t-4 -13.5t-3 -13q0 -20 38.5 -50.5t38.5 -37.5q0 -57 -55 -57v-12l-201 -43 q-72 -10 -139 -10q-386 0 -614 317q-43 58 -43 80zM506 561q0 41 2 43l27 33v190l110 234q17 30 53 33h33l-117 -236v-31h21q8 15 27 53t36 71t36.5 67.5t37.5 55t31 20.5q17 0 26.5 -4t12 -9t0 -14.5t-6.5 -16t-10.5 -17t-9.5 -15.5q-92 -155 -160 -277q-77 -144 -127 -254 l-10 -10q-2 -2 -4 6q-8 30 -8 78zM508 1188l117 233q6 14 73 23h76v-23l-76 -147q-4 -13 -51 -34.5t-89.5 -36.5t-45.5 -15h-4zM539 440q0 11 22 27q50 110 127 254q16 33 64 106q7 -51 -13 -133.5t-20 -91.5q0 -48 65 -51v-10l-75 -160q-3 -10 -41 -10q-44 0 -86.5 21.5 t-42.5 47.5zM748 1274l77 170h97q10 0 10 -12q0 -1 -10 -21q-7 -12 -21.5 -38.5t-21.5 -39t-17 -29t-15.5 -23.5t-8.5 -7h-90zM752 369v12q0 -3 20 35.5t53 102t69 133t73.5 139.5t60.5 110q23 38 8 58q-9 11 -16 0q-1 -2 -2 -5l-180 -307q1 2 0.5 6.5t-1.5 11.5t-1 9 q0 22 2 26q20 152 20 164q0 51 -53 60q7 12 23.5 42.5t26 45t28 35t39.5 34.5h159q21 0 21 -24v-6l-64 -437q-19 -58 -116 -200q-33 7 -93 -19t-77 -26zM905 1273.5q-8 11.5 1 33t18.5 39t28 43.5t22.5 32q66 14 62 -26t-61 -102q-28 -31 -38 -31q-25 0 -33 11.5zM952 375 q0 16 16.5 45t45.5 70.5t35 50.5q88 -9 116 10v-10q0 -19 -54 -106t-85 -87q-74 0 -74 27zM995 1251l86 150q76 -20 134 -65.5t143 -137.5q4 -5 4 -12.5t-3 -18t-8 -21.5t-13 -25t-15.5 -26.5t-18 -28.5t-18 -27.5t-18.5 -27t-17 -24.5q-58 140 -170 211q-86 42 -86 53z M1110 348q0 8 2 12q44 68 98 180.5t72 137.5q24 33 65.5 80t60.5 75t19 54q-13 0 -31 -13t-29.5 -27t-26.5 -32.5t-15 -19.5q-7 -7 -21.5 -20.5t-21.5 -20.5q-10 152 -10 178v12l127 191q76 -128 76 -301q0 -222 -107 -347q-121 -139 -258 -139z" />
<glyph unicode="A" horiz-adv-x="1050" d="M-10 12l166 688l12 21q64 108 230.5 337t246.5 363q3 20 74 23q2 -4 2 -9q0 -24 -33 -77l-520 -871q-18 -27 -18 -73h18l307 497l10 13v-13q0 -115 -43 -200l-10 -21q-29 -59 -107.5 -163t-103.5 -146q-106 -175 -106 -223v-17q20 0 45.5 40t54 102t37.5 77 q91 153 149 211l11 13q-16 -20 -10.5 -35.5t13.5 -25t7 -9.5h96l-86 -186v-17q30 0 33 6l94 181q10 16 43 22l-20 10q10 24 20 41q41 70 97.5 164.5t72.5 122.5q8 13 8 53h-18l-213 -350l-10 -10q-11 50 -11 127v63q2 7 100.5 123t98.5 131q-24 0 -56 -23.5t-51 -44.5 t-50 -61l-31 -39q-4 -6 -17 -10v94q-26 14 -26 27v6q20 35 95.5 167.5t117.5 203.5q4 7 12 19.5t8 13.5l12 -11l127 -573v-23q-22 -39 -96 -190q-38 -81 -53 -127q-19 -59 -19 -121q23 0 59 91.5t71 183.5t55 92q4 0 4 -2l139 -617q9 -35 21 -41q-157 -10 -244 -10h-43 l-10 10h18q0 35 -92 211q-23 45 -66 45q-35 0 -41 -2q-35 -2 -159 -20q-22 -4 -33 -11.5t-14 -15.5t2 -20.5t11 -21t17.5 -24t16.5 -24.5l-117 -86v-129zM188 827v7q0 3 3 13l7.5 25t6.5 25l24 -14q8 -10 -6 -31q-1 -1 -2.5 -3.5t-2 -3.5t-2 -3t-3.5 -3.5t-5.5 -3t-8 -3.5 t-11.5 -5zM221 934v31l8 33q75 314 140 434h96l-203 -381zM262 928q0 13 5.5 30.5t15 39.5t12.5 30q111 210 201 373q8 14 22 31h84q-119 -196 -233 -371q-28 -39 -97 -127q-6 -11 -9 -9zM760 252q0 -31 4 -62.5t8 -31.5h10q0 49 13 106q1 2 23 48t22 69h-25 q-55 -30 -55 -129z" />
<glyph unicode="B" horiz-adv-x="1093" d="M84 31v1370q0 24 86 24q0 -76 -17.5 -196.5t-17.5 -147.5q0 -61 5 -180.5t5 -179.5h13q-1 30 -1 60q0 133 11 280q24 300 43 340l10 20h96l-106 -604v-26q28 0 31 16l112 614l101 11h24q0 -16 -4 -52q-1 -20 -20 -129q-10 -52 -37 -52q-12 0 -27 11q-2 -8 -2 -14 q0 -29 45 -29v-32l-65 -224v-10l-181 -700v-19q30 0 33 8l180 680l11 11q-1 -1 17 2t48 6.5t51 3.5v-12l-63 -224q-3 -9 -96 -43v-340l12 -10q2 -2 63 -2q83 0 95 2q151 15 151 176q0 74 -45 131q15 66 43 150q73 210 150 403v23q-12 0 -27 -17.5t-30.5 -49.5t-29.5 -65.5 t-29 -76.5t-24 -70.5t-20 -60.5l-10 -33q-1 -3 -15.5 -51t-27.5 -83.5t-17 -35.5q-27 0 -51 10.5t-36 18.5t-13 6v29q0 19 63 223q2 11 11 20q7 7 18.5 17t16 14t11.5 12t9 13t5 14.5t4 20.5t1 26q0 58 -12 76l86 287q3 10 10 10q34 0 92.5 -46t87.5 -91q54 -97 54 -193 q0 -210 -191 -213l10 -84q234 -108 234 -366q0 -108 -49 -209t-121 -136v11l53 233v33q-14 0 -27 -21t-23.5 -58t-18.5 -70t-16 -74.5t-11 -53.5q-3 -31 -61 -43t-119 -12v12l200 584v25q-27 0 -30 -15l-213 -594l-11 -10q-1 -2 -51.5 -4.5t-133.5 -4t-165 -1.5 q-7 0 -29.5 -1t-37.5 -1t-33 2.5t-27.5 10t-9.5 20.5zM485 1208q0 90 30 195q4 18 3 18l10 11q15 2 34 2q26 0 59 -4q57 -7 57 -29v-10l-74 -256l-117 63q-2 2 -2 10z" />
<glyph unicode="C" d="M94 1028v23q0 61 22 137.5t62.5 135t83.5 58.5v-24q0 -42 -30 -135.5t-33 -108.5q-22 -112 -41 -244q7 -19 14 -19q12 0 25 57q2 9 29 160q3 17 5 26q39 160 84 307q15 24 54 24v-14l-117 -457v-18q30 0 33 8l127 477q4 14 32 23h31l-110 -416h43q0 -122 -7 -297 q-3 -116 -22 -244q-22 -66 -40 -159t-24 -148q-2 -16 -5.5 -58.5t-8 -66.5t-12.5 -24q-7 0 -27 10q-51 36 -51 43q10 29 16.5 68t9.5 76t5 46q45 209 106 437v32q-54 0 -131 -423l-7 -31q0 3 1 8q-18 -123 -23 -150q-9 -38 -32 13q-25 55 -31 114q4 86 3.5 158t-3.5 129 q-7 119 -18 275.5t-13 191.5zM336 27q0 60 12 131q15 100 43 233q-2 -8 24.5 -33.5t54.5 -57t28 -52.5q0 -67 -16 -162.5t-44 -95.5q-46 0 -74 10t-28 27zM432 1135v10l86 299q8 0 38.5 1.5t50 1.5h51.5t52.5 -3t42 -7.5t32 -13.5t10.5 -22v-223q0 -11 -21 -11h-12 q-22 4 -50.5 10t-39.5 8t-31 3.5t-47 1.5q-98 0 -162 -55zM506 14q0 25 2 27q10 91 31 223l116 -10q2 0 2 -10q0 -38 -15 -84t-15 -62q25 0 28 6l54 170l32 11q19 3 32 3q30 0 32 -14h-33q3 -14 17 -64.5t20 -84t6 -64.5q0 -20 -12 -34.5t-36.5 -23t-45.5 -14t-56.5 -7.5 t-51 -2h-46.5h-5h-4.5h-4.5q-31 0 -39 6t-8 28z" />
<glyph unicode="D" horiz-adv-x="1017" d="M84 20v1391l41 -20q6 1 78 10.5t108 9.5q-5 0 -44.5 -104t-55.5 -150q-86 -226 -86 -246v-16q23 0 44.5 42t45 115t27.5 83q1 2 9 27.5t16 47t22 55t31 59.5t38.5 51t49 40t57.5 17h33v-11q0 -25 -30.5 -78t-70.5 -111t-49 -75q-180 -360 -180 -393v-19q30 0 33 9 l157 340v-373l-84 -180v-19q16 0 30 12.5t21.5 25.5t18.5 36t14 29v-340q0 -2 -11 -7t-28 -10.5t-33 -10.5t-29.5 -9t-14.5 -4q-39 -13 -61.5 -49.5t-22.5 -77.5v-33h20l64 117q2 9 58 23q49 13 62 12h3v-68l110 86q129 15 129 147q0 34 -33 203v6q0 47 45.5 169t61.5 132 q14 11 34.5 50.5t35.5 79.5t30 81t17 45q36 91 53 97q33 -20 48 -78q14 -54 14 -115v-8q-1 -66 -1 -135t2 -111q6 -57 19.5 -148t13.5 -141q0 -114 -22 -200q-65 -232 -254 -287q-94 -27 -226 -27q0 46 42.5 109.5t86.5 66.5v13q-23 8 -41 8t-35 -14t-29.5 -30t-24 -39.5 t-20 -43.5t-16.5 -42q-3 -7 -4 -11q-5 -8 -15.5 -13.5t-29.5 -9t-35 -5.5t-44 -2.5t-43.5 -0.5h-47h-41.5h-41zM412 1178v6q0 3 10 26l129 222q96 -11 147 -41l-106 -203q-3 3 -10.5 14t-14 19t-14 17t-14 12.5t-11.5 0.5zM623 1139q0 16 2 18l106 211q2 1 5 1q20 0 79 -64 q-104 -245 -137 -318q-11 -26 -20 -26q-14 0 -24 57q-11 61 -11 121zM668 784l53 -233v-10q0 -20 -22.5 -130t-22.5 -186q34 0 56 118.5t22 199.5q0 13 -1.5 26.5t-7 37.5t-10.5 43t-16.5 64.5t-20.5 80.5q-9 37 -20 37h-1q-4 0 -9 -5v-43zM684 70q10 0 19 6.5t17 16.5 t15.5 23.5t13 27t10.5 27.5t7.5 24t5.5 18l2 8q127 443 127 469v31h-22l-11 -21q-31 -62 -54.5 -147t-46 -188.5t-36.5 -153.5q-1 -5 -14 -33t-23 -58t-10 -50z" />
<glyph unicode="E" horiz-adv-x="964" d="M84 20v721q0 36 20 117q117 480 127 490l11 10l139 22h33q0 -16 -23 -106q-10 -32 -53 -119.5t-43 -110.5q0 -10 6 -26t6 -17q0 -4 -2 -4l-104 -403v-19q27 0 30 9l97 350q14 -22 17 -23v4q0 2 -2 7l-5 28v4l45 -32l-152 -455v-18q30 0 33 6l162 469l80 -13l-338 -805 v-45q16 0 37 31t42 81.5t39 99t36.5 101.5t25.5 70q6 12 17 23v-174q11 -14 26 -8q40 46 73 46q18 0 34 -14l-117 -317h-277zM84 934v457l10 10q21 3 58.5 -13.5t37.5 -33.5q0 -13 -2 -17zM412 1194v16q35 162 43 170l10 11h57l-67 -224q0 -2 -13 -2q-30 0 -30 29zM422 -10 v20q0 13 106 275q2 9 11 22h32l297 -53q11 -4 11 -21q0 -19 -21 -75q33 -85 33 -107q0 -61 -53 -61h-197l90 211v32h-22l-117 -243h-170zM422 614v7q0 12 12 36q59 131 117 244q10 3 20 0q153 -24 236 -24q0 -61 -20.5 -126.5t-56.5 -111t-75 -45.5q-6 0 -6.5 7t2 24.5 t2.5 31.5h-18l-31 -63h-4q-78 0 -178 20zM498 1167l63 224q6 19 213 41h74q-4 0 -7 -5.5t-3 -9.5v-6q20 -131 20 -186l-1 -8q-13 -67 -13 -84q-40 0 -60 2q-21 1 -76 3.5t-83 4t-65.5 8t-61.5 16.5z" />
<glyph unicode="F" horiz-adv-x="901" d="M84 20v744q0 40 117 350q65 196 147 340h21q153 -7 426 -22q53 -9 53 -99q0 -61 -21 -161.5t-36 -100.5q-29 0 -75.5 10.5t-80 23.5t-33.5 19q0 9 2 11l51 129v26q-18 0 -40.5 -41.5t-40 -83t-23.5 -41.5l-150 33l86 244v31h-22q-6 0 -26 -51.5t-42.5 -116t-27.5 -76.5 q-9 -21 -15 -21q-15 0 -33.5 5.5t-25.5 5.5q-4 0 1.5 -27t13 -58.5t7.5 -37.5v-4q-96 -298 -223 -531v-18q20 0 44 27.5t49 77t47 99t45 112.5t35 97t24 72q7 -11 16 -40t16 -51t11 -22h70l-273 -610l-63 -190v-19q29 0 32 8q52 182 158 381q33 -98 33 -217q0 -38 -33 -123 q-20 -73 -45.5 -88.5t-124.5 -15.5h-31zM84 891v520q0 22 63 43h150q0 -16 -12 -43q-83 -185 -117 -276q-45 -116 -84 -244zM324 6q0 87 34 111v-97q0 -14 -34 -14zM381 602v12l106 244l11 12q34 2 66 2q95 0 167 -14q8 -7 13.5 -16t7.5 -23.5t2 -22.5v-10v-16v-22 q0 -74 -2 -80q-2 -21 -8 -33.5t-15.5 -16.5t-22 -4.5t-28 0.5t-33.5 0q-32 -2 -201 -10q-23 -2 -63 -2z" />
<glyph unicode="G" horiz-adv-x="1028" d="M74 901v76q0 207 73 297q80 105 160 127v-10l-65 -447v-33q29 0 32 23l74 477l10 10q-2 -5 -1.5 -14t2 -23.5t1.5 -15.5q0 -47 -2 -53q-9 -93 -20 -234q2 -18 2 -53h27l34 383q3 33 46 33h8h67l-110 -340q-15 -51 -41 -127q-66 -208 -107 -330v-18q28 0 31 8l86 244 q-2 -4 -2 -12t1 -17.5t1 -13.5q0 -60 -14.5 -110t-40.5 -102.5t-31 -64.5q-94 -260 -94 -307v-18q24 0 50 67.5t53 159t44 121.5q20 -173 23 -203v-19v-12l-97 -213v-18q30 0 33 8l84 170h4q7 0 17.5 -7t20.5 -16t11 -10q15 -10 54 -20q-39 -91 -39 -135q12 0 23 9.5 t19.5 26.5t15 32.5t13.5 36.5t11 30q86 21 86 94q0 2 -3.5 12.5t-6.5 28t-3 35.5v10q32 66 44.5 101.5t19.5 88.5q-4 2 -10 2q-22 0 -51.5 -9.5t-58 -22t-30.5 -13.5h-10v13l117 254l10 10q-1 -1 45 -3t119 -7t123 -11q-3 -6 -16.5 -18.5t-25 -22t-11.5 -10.5q0 -10 2 -12 l73 -361v-34q0 -298 -256 -369q-70 -20 -157 -20q-342 0 -404 317q7 79 7 158t-7 159q-49 179 -63 287zM465 1145l96 299q53 3 106.5 3t106.5 -3q158 -9 158 -23v-20l-51 -256q-3 -10 -37 -10q-42 0 -130 13t-89 30q0 19 7 43.5t15.5 46.5t9.5 26q-7 21 -16 21 q-21 0 -51 -101q-8 -25 -8 -26q-7 -21 -43 -32t-68 -11h-6zM477 594v213l10 41h107q-7 -36 -27.5 -80.5t-49.5 -97t-40 -76.5zM528 0h23l190 381v22h-20l-10 -12l-183 -360v-31z" />
<glyph unicode="H" horiz-adv-x="1028" d="M84 1094v317q0 12 31 21h190zM92 750v26v46v93q0 103 2 113l10 23l224 340l20 20q55 -40 55 -113q0 -12 -2 -14l-266 -319q-6 -9 -6 -39q21 0 64 42t81.5 90.5t72.5 93.5l34 46q14 18 20 23v-23q0 -170 -96 -307q-78 -111 -201 -266q-7 43 -9.5 76t-2.5 49zM104 20 q0 16 5.5 32t5.5 28v24q-6 139 -11 320v80v80q34 15 74.5 62t97.5 132t62 92q36 50 74 117q2 0 4.5 -0.5t11.5 -1.5t17 -2.5t19.5 -4t21.5 -5t20 -5.5t17 -6.5t11.5 -8t4.5 -9.5q0 -2 -11 -20q-64 -106 -137 -234q-36 -71 -43 -86l-223 -563q-11 -29 -18 -30q-3 0 -3 9z M156 4q0 4 2 6l223 574v-107q-6 -241 -12 -350q-4 -108 -21 -138q-12 -20 -31 -20q-48 0 -104.5 13t-56.5 22zM434 647q-9 0 -9 10q0 39 122 224q30 45 35 53q26 -8 60.5 2t56.5 24t22 17v20l-66 330v21q0 11 4.5 23t14.5 26t17 22.5t21.5 24.5t18.5 20h10l244 -53h35 q0 -94 -12 -244q-13 -2 -35.5 -44t-40.5 -89t-35 -94t-18 -49q-89 -195 -117 -223l-10 -11v33l96 350v17q0 37 -33 37q-12 0 -22.5 -26t-15.5 -52l-5 -25q0 -12 6 -19.5t6 -17.5q0 -78 -41 -196.5t-88 -173.5q-27 73 -88 73h-16q-71 -10 -117 -10zM645 1440v45l43 -10 q-27 -35 -43 -35zM655 487q0 55 54 97q3 -10 -11 -33q-38 -64 -42 -64h-1zM668 10v393q191 338 317 658q3 10 10 20v-104l-53 -903q-3 -71 -84 -74h-100h-70z" />
<glyph unicode="I" horiz-adv-x="454" d="M63 1348q-1 0 0.5 8t5.5 24.5t5 20.5h4v-43q12 4 41.5 16t54.5 19.5t43 7.5h4l-127 -213l-16 -10v170h-15zM84 51v170l10 12l180 297q33 18 23 37q-8 15 -28 8q-15 -6 -25 -24l-160 -262v801q2 -1 7 11q3 6 12 25q92 204 194 306q13 4 23 4q30 0 30 -35q0 -24 -33 -74 v-350q0 -10 -11 -29.5t-28 -40.5t-32.5 -39.5t-29.5 -34t-15 -16.5q-62 -83 -62 -178q26 0 29 8q62 188 149 254l11 -20l2 -23q20 -250 20 -481q0 -53 -2 -80q-6 -21 -31 -43q-76 -56 -102 -76.5t-61.5 -53t-69.5 -73.5zM94 10q114 132 266 223v-213q0 1 -4 -4t-12 -14.5 t-17.5 -19t-22 -16.5t-23.5 -7q-28 0 -74.5 12.5t-79.5 25.5zM158 973q30 0 53 31t34 75.5t16 81t5 60.5h-22l-76 -76v-25q28 0 53 25v-10l-63 -138v-24z" />
<glyph unicode="J" horiz-adv-x="700" d="M-20 78v16q1 10 3 37t4 49t6.5 45.5t13 37t20.5 13.5q16 0 20.5 -11t13.5 -11q18 0 35 10h137q-11 -20 -35 -53.5t-28 -42.5q-51 -77 -51 -133q15 0 30 16t24 35t17.5 39t10.5 22q79 101 116 160q104 159 183 297q6 3 6 29q-36 0 -39 -8l-150 -244v199l310 417l10 11 q1 -32 1 -63.5t-1 -63.5q-17 -439 -33 -627q-4 -62 -41 -127q-82 -137 -219 -137h-4q12 36 38 77.5t55.5 79t33.5 43.5q17 21 0 36q-12 11 -20 -2q0 -1 -1 -3l-159 -231q-7 -10 -64 -10q-47 0 -139 10q-104 12 -104 88zM317 647v191l224 413q8 14 27.5 38t31.5 44.5t12 40.5 q-16 0 -32.5 -12t-25 -23t-25 -36t-19.5 -29q-57 -110 -170 -320q-3 -5 -23 -30v127q0 3 183 340q16 33 30 41q8 2 17 2q30 0 65 -21q47 -27 47 -57q0 -23 -2 -29q-9 -222 -10 -223l-10 -23zM317 1145v223q0 40 54 43q27 2 86 10h10z" />
<glyph unicode="K" horiz-adv-x="1103" d="M94 51v1329q0 49 94 64h74q12 0 12 -23q0 -45 -35 -144t-40 -120q-64 -268 -64 -330v-24q33 0 33 14q48 298 147 594q10 23 17 23q28 0 28 -27q0 -10 -2 -16q-75 -330 -127 -627q-44 -247 -63 -457q-2 -6 -2 -22t6 -22.5t6 -8.5v-25q0 -34 -10 -131.5t-27 -97.5 q-47 0 -47 51zM188 6q0 128 43 301l213 850q1 -8 4 -21t4.5 -23t2.5 -19q6 -51 20 -193q11 26 32.5 90t41.5 113t43 84v-21l-234 -796q-28 -106 -28 -195q12 0 21.5 12.5t16 35t10 42.5t7.5 47t6 37v-59v-58q-9 -199 -12 -202l-10 -11l-11 21q-6 -2 -31 -9t-36.5 -10 t-32.5 -7.5t-37.5 -6.5t-32.5 -2zM231 477v21q0 66 21 180q126 670 139 680l10 10q33 -53 33 -78q0 -4 -2 -6zM496 688q0 10 2 12l190 711q1 9 20 47t33 60q86 -24 86 -52q0 -18 -2 -22l-106 -426q-30 -20 -63 -50.5t-33 -43.5q0 -25 17 -58.5t17 -48.5q0 -18 -2 -22 l-84 -275q0 17 -29.5 77t-33.5 71q-12 3 -12 20zM602 434v53l86 277h10l127 -229l-84 -314v-16q28 0 31 6l76 256q0 2 4 2q19 0 80 -141q-7 -29 -21.5 -90.5t-21.5 -90.5q8 -15 15 -15q16 0 33 62q4 15 10 41l5 19q4 14 9 14q10 0 27 -46q1 -1 2 -4l5 -11q0 -7 -10 -27 q-16 -33 -13 -46.5t21 -6t35 30.5q45 -60 45 -115q0 -21 -2 -23l-86 -83h-20q-21 0 -73 26t-56 27q-33 4 -55.5 32.5t-49.5 94.5q-129 302 -129 317zM772 1061v10l96 383l11 10q4 2 10 2q27 0 96 -34q16 -7 34.5 -66.5t18.5 -81.5q0 -18 -51.5 -61.5t-126.5 -97.5t-88 -64z " />
<glyph unicode="L" horiz-adv-x="847" d="M84 20v658q16 12 29.5 72t25.5 140.5t19 106.5q103 400 127 424l10 11q13 4 23 4q30 0 30 -35q0 -3 -10 -33q-40 -66 -48 -125q-3 -23 -3 -47q0 -36 8 -72l-191 -583v-19q28 0 31 8l170 498q12 -58 12 -162q0 -39 -9 -74t-25.5 -71t-18.5 -43q-53 -145 -53 -158v-18 q20 0 41 41.5t43 100.5t33 77q10 -45 10 -78v-18l-64 -138v-32h21l43 75h10v-116q0 -23 -30 -71t-75.5 -110t-54.5 -75v-31h23l147 223q-3 -13 -3 -26q0 -44 34 -82q38 -42 75 -42q5 0 11 1v-11l-106 -200q-3 -10 -15 -10q-23 0 -65 4.5t-58 5.5v10l64 147v33h-21l-86 -180 h-84zM84 795v626l20 23q29 2 52 2q88 0 88 -25q0 -6 -2 -10q-64 -193 -117 -393q-30 -121 -41 -223zM412 -20l116 221l23 20h31l-117 -241h-53zM508 -31q24 50 106 232q9 23 11 32l96 21q19 4 37 4q58 0 110 -37q-63 -146 -63 -252v-10q-3 -12 -25 -12q-14 0 -18 2 q-176 13 -254 20z" />
<glyph unicode="M" horiz-adv-x="1273" d="M18 128q0 14 1 34t1 28v107q8 249 31 541q23 16 51 69.5t48 105t39.5 106.5t21.5 59q45 103 106 202q14 26 37.5 41.5t39.5 23.5t18 19q32 -56 32.5 -79t-32.5 -48l-287 -596v-16q30 0 33 6l286 584q6 12 17 12q13 0 57 -149q-118 -188 -264 -437q-31 -49 -94 -212 l-13 -31v-17q17 0 40.5 34.5t41.5 74.5t36 83t20 48q230 380 243 393l13 10l63 -180v-20q0 -34 -26 -111t-27 -82t-4.5 -35t-5.5 -41t-7.5 -35t-14.5 -42.5t-21 -36.5l-64 159q-2 2 -2 15q0 14 6.5 32.5t16 37.5t10.5 22q-12 16 -24 11t-24 -19.5t-9 -14.5q-12 0 -27 13.5 t-16 13.5v-133l-324 -627q-9 5 -14.5 16.5t-7 29t-1.5 31.5zM51 901v17v16q16 303 21 434q2 2 2 12q0 17 -13 84q17 2 33 2t31 -2q14 -1 38 -4t56.5 -7.5t55 -11.5t22.5 -14q0 -4 -2 -6q-74 -124 -117 -223q-22 -50 -62 -145.5t-55 -128.5q-3 -13 -10 -23zM82 25q0 14 2 16 l274 553v-571q-26 0 -53 -3q-120 -20 -170 -20q-53 0 -53 25zM528 477v10l107 394q2 4 2 26q0 7 -17.5 41t-17.5 45q0 4 2 4l201 287l20 21l-137 -615v-26q30 0 33 14l137 596q5 20 17 41t21 34.5t9 18.5h-37v12q12 39 12 57q0 4 -1 7h235q31 0 41 -23h-41l64 -1253v-137 q0 -23 -41 -23q-23 0 -52 6t-36 6q-27 0 -57.5 -10t-47.5 -10q-30 0 -43 10l127 254v19q-28 0 -31 -9l-118 -211l-11 -12q-1 -1 -3.5 9.5t-4.5 29t-2 35.5q0 163 64 309q79 176 149 307v19q-30 0 -33 -6l-159 -320v101q0 143 12 229q0 29 18.5 76.5t49.5 109t38 78.5v16 q0 50 -47 50q0 -40 -25 -153.5t-61 -113.5q-10 0 -31 11.5t-22 11.5q-13 0 -16 -12l-84 -447q-1 -5 -1 -10q0 -26 31 -43h-10q-41 0 -84.5 10t-64.5 10v-20l-11 12q-43 43 -43 127z" />
<glyph unicode="N" horiz-adv-x="1040" d="M31 139v19q7 200 20.5 600t20.5 600q3 63 22 63l117 11h117q-11 -17 -76 -111t-99 -159t-34 -111h16l213 340l21 20q65 -104 65 -154q0 -11 -12 -26q-131 -179 -244 -361q-84 -141 -84 -170v-18q19 0 40 29t45 76.5t32 60.5q184 294 223 330l21 20q43 -27 43 -100v-17 q-141 -185 -267 -381q-106 -166 -106 -202v-31h22q55 112 117 211q2 4 25 41t38.5 62t42.5 67.5t47 72t42.5 59t39 45t25.5 15.5q13 0 27 -61v-2l-236 -320l-20 21q4 -4 4 -13q0 -50 -143 -245q-5 -8 -8 -11.5t-6.5 -8.5t-6.5 -9v-31h23q2 2 39.5 61t64.5 94.5t39 35.5 q11 0 34 -220t23 -270q0 -61 -20 -61h-223q-25 0 -54.5 48.5t-29.5 90.5zM346 622q1 10 8.5 23.5t12 20.5t17.5 23t17 22q77 106 170 223q19 -28 34.5 -66t22.5 -62l7 -24v-18l-201 -297h-12q-3 0 -64 104q-8 13 -10 27q-2 10 -2 18v6zM455 418v6q79 115 213 317 q1 1 8.5 12.5t14.5 23t17.5 28.5t19 33.5t16 34t12 33.5t4.5 28h-19q-17 0 -31 -22.5t-25 -54.5t-17 -40v244l200 223v21h-20l-180 -181q-6 27 -6 60q0 100 79 164v20h-20l-53 -53q-2 14 -2 43q0 81 75 96q11 3 27 3q14 -1 32 -3q38 -4 74.5 -12t63.5 -30.5t27 -53.5v-187 v-184q-6 -601 -11 -616l-170 -330q11 -20 0 -30.5t-43 -10.5q-39 0 -53 20q90 170 180 361q2 4 12 25t13 27t11.5 24.5t11.5 27t8.5 25.5t7.5 29t4 27t2 30q-8 0 -17 -9.5t-18 -26t-18 -35t-17 -40t-14 -37t-11 -30t-5 -15.5q-82 -171 -170 -340q-36 25 -60 64 q-13 22 -14 43q0 16 8 31q182 324 309 637q-5 10 -12 10q-44 0 -173 -338q-4 -10 -5 -12q-119 -267 -156 -267q1 0 -26 34t-55.5 81t-28.5 72zM825 29v12q0 9 76 149q3 5 41 74l-4 -201q-7 -2 -34.5 -13t-45.5 -16t-33 -5z" />
<glyph unicode="O" horiz-adv-x="1007" d="M74 360v711q0 168 147 297q77 68 170 68v-25q0 -37 -40.5 -130t-43.5 -103q-106 -322 -106 -361v-18q21 0 45 59t51.5 158t30.5 108l11 54q53 208 110 261l6 5h75q0 -59 -65 -234q-3 -16 -21 -36.5t-39.5 -39t-23.5 -20.5q-14 -14 -30 -75t-25 -115l-9 -54 q-4 -26 -4.5 -53t4.5 -53l-202 -531h-11q-4 0 -17 54t-13 73zM137 168l191 510l10 12q11 -45 17 -97.5t10 -132t6 -100.5q-52 -122 -52 -196q11 0 24.5 23t30.5 67l17 43q35 -53 150 -53l-117 -254h-14q-127 0 -242 127q-32 35 -32 47q0 2 1 4zM487 -10l340 469v-15 l-170 -327v-33h21q17 0 180 340q53 112 53 147v29q-27 0 -30 -6l-340 -461v14q0 26 22.5 73t54 99.5t39.5 71.5q224 529 224 563v23q-17 0 -42.5 -40t-54.5 -108.5t-53 -130.5t-51 -136t-35 -95q-2 172 -10 530v31v23l63 233v25q-13 0 -24.5 -13t-21 -38.5t-15.5 -45 t-13.5 -51t-9.5 -37.5q-18 18 -45 35t-44 26.5t-17 12.5v12l63 234q12 2 23 2q66 0 140 -48q88 -56 134 -134q61 -103 64 -203q2 -96 2 -287q0 -264 -2 -287q0 -59 -10 -137q-49 -370 -435 -370v10z" />
<glyph unicode="P" horiz-adv-x="1050" d="M20 20v27v27q5 122 15.5 376.5t15.5 387.5q4 28 12 59t17 56t21 53t19 43.5t17 34.5t10 20q133 292 158 317l12 11h121l-387 -871v-16q30 0 33 6l403 881h58l-101 -254q-6 -14 -34 -14q-12 0 -29 3q0 -71 -10 -159q-2 -17 -23 -64l-306 -680v-74h19q2 0 59.5 61t57.5 66 v17q-40 0 -74 -37v10l254 563q21 -43 86 -43q18 0 55.5 9.5t51.5 11.5q121 24 127 117q2 34 2 69t-2 70q5 6 57 72.5t87 103.5t52 37q37 0 37 -37q0 -6 -10 -29q-113 -188 -149 -254q-127 -239 -127 -256v-16q29 0 32 6q127 264 287 510l12 -23q11 -24 15 -32.5t12 -27.5 t11 -31.5t3 -22.5v-213q0 -100 -109 -193.5t-243 -93.5q-27 0 -59 6t-47 6q-29 0 -66 -12t-49 -12v12l74 170v33h-23l-211 -469v-16q28 0 31 6l106 223v-16v-15q-19 -292 -30 -426q-5 -84 -23 -84h-63q-78 -10 -107 -10h-51q-68 0 -107 20zM61 1051q0 116 11 307q3 62 43 74 h149q-86 -169 -149 -308q-3 -7 -13 -35q-26 -74 -34 -75q-6 6 -7 37zM475 1145l107 287q97 -8 180 -41q66 -26 76 -43q-167 -213 -193 -213h-147z" />
<glyph unicode="Q" horiz-adv-x="1081" d="M74 360v711q0 77 52.5 186t115.5 123v-12q0 -54 -34 -168t-40 -149q-64 -369 -64 -490v-33q36 0 33 23q21 245 64 477q3 20 84 352q15 56 86 56v-25l-170 -647v-29q27 0 30 6v-20l-84 -488v-26q34 0 31 14q58 364 139 766q85 426 107 445l10 12q40 2 80 2l80 -2 q27 -2 111 -35t79 -51l-86 -424l-53 -127q0 4 -1 41t-1.5 46.5t-2.5 43t-4.5 47t-7 42t-10.5 44t-14 36t-19 35t-24 25.5q-33 17 -33 25q0 28 28 93t28 81q0 57 -23 57q-6 0 -14.5 -18t-17.5 -49.5t-16 -60t-15.5 -63t-10.5 -44.5q-102 -27 -129 -137q-36 -156 -41 -193 q-2 -2 -2 -31q0 -39 6.5 -83.5t15.5 -86t11 -53.5q12 -85 12 -155q0 -13 -2 -15l-63 -233v-19q30 0 33 8l43 127q0 2 4 2l45 -62q4 -6 4 -7q0 -16 -4.5 -35t-11 -36t-7.5 -21q8 -15 16 -15q20 0 43 73q1 5 3 11l2 6q3 8 12 11q91 6 121 51t37 149q6 84 10 256l86 211l84 416 q45 -34 81 -132t36 -177v-498q0 -28 -21 -65q-31 -54 -57.5 -120t-57.5 -157.5t-44 -126.5q-95 -71 -254 -71q-111 0 -181 30q-243 108 -243 350zM612 133q14 0 23 5t15 17t9.5 23t9 31.5t9.5 34.5q10 28 50 125.5t67 171.5q127 357 127 403v33h-21l-10 -23 q-32 -72 -74 -216t-53 -177q-4 -10 -46 -105.5t-74 -186t-32 -136.5zM815 94v10l107 287q-4 -10 -4 -20q0 -23 19 -49q27 -37 64 -37q11 0 17 12q1 0 11.5 -61t21 -126t10.5 -73q0 -57 -43 -57q-23 0 -69.5 13.5t-90 41.5t-43.5 59z" />
<glyph unicode="R" horiz-adv-x="1071" d="M82 1370q0 12 2 26t10 23t21 13h102l-123 -351q-10 105 -10 234q0 8 -2 26q-1 14 -1 23q1 3 1 6zM104 961v26l148 424l12 21h180q-71 -141 -116 -265q-46 -126 -101.5 -294.5t-68.5 -204.5q-3 -9 -23 -54l-10 11q1 1 0.5 4t-1.5 13.5t-2.5 22.5t-3.5 31t-4 39t-3.5 46.5 t-3 53.5t-2.5 60t-1 66zM106 -2q0 23 11 51t24.5 53.5t16.5 34.5q6 21 0 43q13 32 38 107.5t48.5 133.5t50.5 99q26 -116 33 -192q3 -32 3 -64t-3 -63l20 -11q2 -1 5 -19t5 -45.5t2 -51.5q0 -46 -11 -58q-9 -8 -21 -8q-18 0 -76 23q-90 -33 -146 -33zM135 454v33.5v26.5 q0 44 23 47l200 584q1 -13 7 -128.5t7 -176.5q0 -13 -3 -13l-64 -170q-3 -8 -20 -8v-45l-127 -319q-6 13 -10 29t-6.5 35t-4 34t-2 37.5t-0.5 33.5zM338 614v11q0 10 63 170q12 35 74 53h53v-21q0 22 -7 -5q-3 -9 -9 -36q-46 -190 -80 -212q-5 -3 -10 -3q-34 26 -84 43z M381 1171v17l106 244h95q12 0 12 -15q0 -4 -2 -6l-74 -201q-37 11 -59 11q-19 0 -42 -25t-36 -25zM475 561l107 297q6 6 17 16.5t20 19.5t16 17q24 26 36 80.5t17.5 121.5t9.5 85q19 74 19 170h-19q-22 -123 -53 -211q-9 -22 -14 -22q-36 0 -70 61q-2 3 -2 2q0 10 2 12 l74 201l10 10q342 -53 342 -391q0 -117 -65 -256q-15 12 -33 12q-3 0 -29.5 -37.5t-61.5 -78t-57 -45.5q43 -76 43 -111v-16l-63 -224h31l73 62l-108 -215l-129 237l133 396v24q-8 0 -17 -9.5t-18.5 -25.5t-20 -38t-20 -46.5t-19 -50.5t-17.5 -50t-15 -47t-12 -39t-8 -27 l-3 -11q-3 -10 -10 -20zM729 31q0 19 12 43q67 138 138 276q149 -217 149 -299q0 -31 -35 -31l-30 6q-30 5 -58 5q-37 0 -77.5 -15.5t-55.5 -15.5q-43 0 -43 31zM795 371v10q0 25 20 86q23 -16 23 -39q0 -11 -43 -57z" />
<glyph unicode="S" horiz-adv-x="1040" d="M94 1061q0 88 31 170q61 153 223 190h12q-20 -78 -45 -127q-164 -367 -180 -383l-10 -10q-31 76 -31 160zM104 51v234l11 12h9q22 -1 65 -7q53 -8 53 -20q0 -4 -21.5 -61.5t-52.5 -117.5t-49 -60q-15 0 -15 20zM156 854q0 2 2 4q118 248 243 553q13 30 31 33h31 l-252 -660q-55 46 -55 70zM168 10l117 244l10 10q34 6 60 2t45.5 -9.5t21.5 -4.5v-8l-127 -254h-4q-59 0 -123 20zM252 768v16l223 584q13 38 64 76h69l-123 -266l-63 -64v-22q0 -41 10 -64l-117 -317q0 -2 -4 -2q-59 0 -59 59zM348 0l127 254q3 7 10 10q61 24 90 54t29 83 q0 19 -6 43.5t-6 32.5v10l63 138v28q-63 0 -63 -28q0 -18 10 -21l-41 -84q-34 25 -71 57.5t-37 43.5q0 4 2 4l127 256l10 10q4 2 10 2q31 0 102 -62q84 -74 132 -141q86 -115 86 -293q0 -213 -160 -334q-81 -63 -160 -63h-10l213 498v32h-21q-11 0 -76.5 -159.5 t-93.5 -233.5q-18 -41 -53 -106q-6 -10 -13 -18.5t-12.5 -13.5t-15.5 -9t-13.5 -6t-16.5 -3t-15.5 -1h-18.5h-18q-23 0 -46 3t-33.5 5.5t-10.5 1.5v10zM348 678l107 299l10 10l11 -6q75 -35 75 -63q0 -5 -2 -7l-137 -274zM539 1188v10l106 234l10 12h10q37 0 107 -16 q82 -19 86 -48l10 -202q3 -33 -41 -33q-68 0 -96 22l84 181v18q-28 0 -31 -8l-96 -180h-20h-33q-96 6 -96 10z" />
<glyph unicode="T" horiz-adv-x="987" d="M-31 1157q0 112 33 254l23 21h26l-80 -297q1 2 -0.5 11t-1.5 11zM25 1167v11q0 135 73 254h97l-66 -265h-104zM172 1167v11l1 8q21 139 63 246h170l-74 -265h-160zM256 199q0 49 2 55q12 210 21 213l116 63h6q-15 -7 -28 -63q0 -33 37 -33q1 0 7.5 1t21 3.5t30.5 5.5 q3 1 5 1q6 0 6 -8q0 -42 -162 -298q-28 -44 -29 -45q-33 44 -33 105zM289 530l10 21q16 32 145 198t207 248v17q-43 0 -86 -27l-53 94h-20v-30l53 -117q-37 -37 -81.5 -94.5t-89.5 -120.5t-52 -72q-22 -29 -24 -6q0 6 1 21v16q0 85 23 246q81 40 81 73h-38l264 277q2 2 2 8 q0 7 -6.5 14t-6.5 9q0 10 35 65t49 62h236q18 0 40.5 -47.5t22.5 -67.5q0 -2 -3 -10t-6 -21.5t-3 -28.5q0 -10 12 -16q-17 -44 -32 -53v49l-307 -80v-12h6q37 0 37 -37q0 -18 -3 -27l-73 -1018l-11 -43q-18 2 -36.5 2t-36.5 -2q-93 -18 -117 -20h-29q-77 0 -77 51 q0 30 36.5 95t84.5 134t49 70q14 24 21.5 40t9.5 33.5t-6.5 28t-30.5 17t-58 6.5v12q0 25 201 234v16q-25 0 -68.5 -31t-86.5 -70.5t-46 -41.5q-88 -64 -117 -64h-22zM334 1032l104 369q6 22 21 31h192l-102 -148v-43z" />
<glyph unicode="U" horiz-adv-x="1071" d="M104 414q3 21 31 63l254 361v-394q-18 -64 -18 -114q8 9 16 11.5t16 -1.5t15.5 -10.5t14.5 -16.5t12.5 -18t11.5 -18t8 -13l-127 -244q-2 -2 -6 -2q-30 0 -72 37t-79.5 92t-60.5 129q-18 56 -18 107q0 16 2 31zM104 500v41l265 370l20 23v-23zM104 614v23q0 20 11 53 l274 625v-307l-274 -383zM104 764v213l191 414q13 29 31 41q15 3 25 3q30 0 30 -24q0 -23 -10.5 -53t-32 -76.5t-23.5 -50.5q-85 -197 -211 -467zM104 1071v309l21 21h4q22 0 102 -43zM379 0v20q0 11 106 201q11 22 37 35.5t52 19t53 21.5t39 41q36 73 36 86v213l156 287v16 q-22 0 -44.5 -28.5t-51.5 -85t-33 -62.5q-17 -32 -31 -43v160q0 20 31.5 72.5t68.5 105.5t38 55q63 111 63 127v43h-20q-68 -154 -181 -319q-6 27 -8.5 42t-3.5 33.5t-1 29.5t0.5 44.5t0.5 63.5t6 88t6 88q0 12 -6 21t-6 22q0 43 76 67q6 2 15.5 2t21.5 -2q24 -4 65.5 -16 t57.5 -16q12 -3 21 -7.5t16 -12t11.5 -13.5t7.5 -18.5t4.5 -20.5t2 -25.5t0.5 -26.5v-31.5v-33.5v-108q-14 -623 -22 -797q-6 -93 -64 -191q-88 -149 -244 -149v12q0 18 30.5 73t33.5 64q106 268 106 297v27q-21 0 -55.5 -78t-55.5 -142t-26 -83q-3 -8 -13 -33.5 t-15.5 -37.5t-16 -34t-20 -33.5t-22.5 -25t-28.5 -19t-33.5 -5.5q-20 0 -90 7t-70 13z" />
<glyph unicode="V" horiz-adv-x="987" d="M10 1397q0 26 21 35h88q0 -86 -4 -254q0 -46 -11 -117q-44 138 -84 276q-10 42 -10 60zM137 979v18q3 73 10.5 218t10.5 217h104l-72 -562l-12 -43q-3 8 -12 34.5t-14 42.5t-10 38t-5 37zM201 754q13 41 20 94q5 36 23.5 213t40.5 266l10 41q12 -38 12 -72v-22 q-5 -126 -16.5 -377t-16.5 -377q-8 11 -10 21q-29 92 -63 213zM305 438q0 39 2 49q5 121 15.5 352t15.5 339l106 -447q-38 -293 -38 -424h18q7 0 21 107.5t20 179.5l22 -23v7q0 12 -6 35t-6 36q0 112 23 189q103 328 180 563l-21 10l21 10q12 -3 12 -30q0 -83 -22 -170 q-96 -391 -127 -521t-31 -196q28 0 31 16l159 678l31 213q0 2 12 2q54 0 54 -33q0 -10 -2 -12l-64 -340l-233 -870v-84h26v63l240 871l74 393q6 29 43 29v-62q0 -106 -117 -711q-85 -345 -117 -499q-17 -81 -22 -148q-144 -12 -289 -12q0 28 23.5 77t23.5 52q0 16 -2 20 l-74 256l-1 4q0 4 -0.5 12.5t-0.5 18.5z" />
<glyph unicode="W" horiz-adv-x="1527" d="M10 1368v16q0 66 105 113h3q10 0 38 -9q34 -11 71 -37t37 -56v-15l-141 -573zM143 723l152 625l12 20q4 -64 10 -94q4 -16 11.5 -47t11 -44t8.5 -35.5t7 -35t3.5 -28.5t1.5 -29v-27l-149 -594l-10 10zM211 391q30 10 33 23l137 540l10 -10l86 -350v-16q0 -20 -6.5 -44.5 t-16 -50.5t-10.5 -28q-8 -31 -8 -117h19q15 100 49 160v-31q11 2 27.5 51t28.5 104t23 108t11 54q25 51 65 157q29 76 29 99q0 37 22.5 90t22.5 64q0 20 -38.5 52t-69.5 32v-14l63 -66q2 -2 2 -12q0 -68 -33 -82q-17 42 -53 127t-53 127q-6 14 -14 29q-4 6 -2 7l4 -1 q16 -4 32 -4q21 0 23 2q76 12 190 41q6 1 12 1q29 1 51 -31q27 -38 40.5 -101.5t19.5 -120t6 -99.5q0 -28 -2 -30l-73 -107v-33h20l76 97q2 -10 9.5 -43t11 -50.5t7 -45t3.5 -48.5v-14q-74 -168 -127 -309q-29 -79 -29 -136q72 0 72 87q0 25 -13 28l107 254h12l31 -147 l20 -33l2 6q0 35 -9 75.5t-20.5 75.5t-13.5 46q-2 2 -2 10q0 30 23 94l160 426q7 20 20 43t30 48t23 36q7 10 11 10h110l-227 -340q-8 -11 -8 -41h41q-23 -87 -23 -114l5 -4q6 -4 12 -11t6 -14q0 -54 -19.5 -132.5t-44.5 -139.5q-1 -1 -2.5 -3.5t-6 -9.5l-9 -14t-10.5 -17 t-11 -18.5t-10 -18t-8.5 -16.5t-5 -12.5t-0.5 -7.5q-55 -104 -107 -211q-13 -27 2 -47q11 -15 18 2q1 1 1 2l180 350q7 15 10 33q24 98 96 424q4 12 4 20q0 2 -18 16t-18 23q0 2 2 4q6 8 67 107.5t102.5 151t67.5 51.5q49 0 49 -23q0 -28 -22.5 -104.5t-42.5 -128.5 q-57 -156 -127 -277q-2 -6 -2 -16q0 -30 24 -27q-18 -54 -32 -84q-66 -144 -160 -330v-30h22l181 360v-43l-150 -690q-4 -16 -12.5 -31.5t-20 -27t-24 -22t-24 -18t-20.5 -13.5t-14 -9t-4 -4h-8q-20 0 -80.5 35.5t-68.5 38.5q-52 23 -117 41l-10 32l-31 371 q-43 -174 -96 -371q-8 -35 -21 -43v54h-22q-42 0 -133 -37t-127 -37q-32 0 -56.5 27.5t-40.5 79t-25 94.5t-18.5 106.5t-13.5 83.5zM582 250q34 0 43 35l159 489v14q0 26 -16 52t-33 40q-15 12 -22 11h-2q-4 -13 14 -48.5t18 -58.5q0 -18 -2 -20l-159 -490v-24z" />
<glyph unicode="X" horiz-adv-x="1028" d="M10 90v27q32 69 137 274q17 29 44.5 44t29.5 20l510 913v18q-14 0 -30 -14t-30.5 -37t-25.5 -43t-20.5 -40t-10.5 -21q-3 -5 -10 -16.5t-10 -16.5v23l53 180l31 31h233l-211 -594q-19 -61 -139 -191q-155 -172 -287 -309v12l256 467v17q-28 0 -32 -7l-308 -563v-16 q46 0 105 59l276 287v-10q0 -23 -18.5 -62t-43.5 -82.5t-32 -58.5q-10 -36 -22 -64q-70 -159 -148 -317q-21 -43 -67 -43q-15 0 -33.5 2.5t-31.5 4.5t-36.5 8t-31.5 8.5t-36 10.5t-30 9q-31 16 -31 90zM92 1395q0 27 23 37h149l-9.5 -28.5t-10.5 -35.5q-27 -71 -66 -158 l-84 170q-2 2 -2 15zM211 1161q0 31 13.5 71.5t39.5 98t31 70.5q9 25 22 31h13q0 -28 -6.5 -55t-14.5 -46t-33 -73.5t-45 -100.5q-5 -21 -12.5 -20.5t-7.5 24.5zM252 1087q0 46 50 158t58 146l11 -11l100 -190l-133 -289q-43 70 -43 94q0 27 5 67t5 52h-20l-21 -63 q-12 12 -12 36zM305 694q0 24 43 101q18 40 66.5 162.5t72.5 166.5q4 7 11 11l53 -11l-234 -424l-10 -10zM541 360l106 107v-12l-76 -148q0 15 -11 25q-10 10 -18 16q-4 3 -4 7q0 2 3 5zM541 414v10l116 233h11l329 -616v-10q0 -31 -129 -31h-8h-33h-96q-29 0 -53 74 q28 9 33 20l73 150q2 2 2 16q0 27 -61 27q-31 0 -69 -12.5t-52 -12.5v12l107 224v14q0 41 -23 41q-8 0 -10 -2zM614 211q6 19 107 43q13 7 19 7q5 0 5 -4q0 -5 -4 -13l-73 -150q-39 72 -54 117z" />
<glyph unicode="Y" horiz-adv-x="1040" d="M10 1407q0 25 17 25h4h137l-94 -181q-19 13 -41.5 75.5t-22.5 80.5zM94 1190v8l117 223l10 11h74q7 0 9.5 -3t1.5 -7.5t-3.5 -9t-5 -9.5t-2.5 -8q0 -24 17.5 -55.5t17.5 -41.5q0 -12 -2 -14l-127 -127v-22h20l96 75v-12q0 -17 -17 -50t-40.5 -71t-28.5 -49 q-17 -40 -30 -74h-6q-31 0 -77 169q-19 69 -22 70q-1 0 -2 -3zM211 907v4q21 30 43 72.5t47 96t37 77.5q12 21 33 53q53 -30 53 -106v-10l-160 -310q-1 -1 -14 20t-26 52t-13 51zM295 741v13q0 10 119 233q29 57 41 64l43 -86q3 -3 -74 -86t-129 -138zM315 690 q0 10 9.5 23.5t27.5 31.5l19 19q117 125 286 297v-10l-297 -457q-45 68 -45 96zM326 219q0 10 3 23t9 22q40 68 78.5 133t61.5 103t30 51q32 52 74 106q9 -27 12 -53q29 -250 41 -436q2 -8 2 -74q0 -49 -2 -74q-24 -30 -92 -30q-80 0 -152 10q-15 2 -26.5 8t-18 18.5 t-10.5 23t-5.5 32t-2 34.5t-0.5 41v11q0 8 -1 24.5t-1 26.5zM338 350v27v26q9 126 10 127l23 11l413 637q11 16 42.5 52t52 67t20.5 57q-19 0 -35.5 -13.5t-30.5 -34t-16 -22.5q-126 -131 -309 -307q-10 45 -10 67q0 34 33.5 94.5t84 134.5t62.5 95q22 39 22 43q0 17 -18 21 h315q23 0 23 -31q0 -8 -2 -10l-361 -734q-6 -12 -20 -12q-27 0 -43 23q4 6 23 30t29 38t23.5 36t20 40t6.5 34q-82 0 -347 -477q-3 -5 -4.5 -7t-3.5 -5.5t-3 -6.5zM358 161q0 -5 1 -10q1 -8 1.5 -13t2.5 -14l3 -13.5t3.5 -14.5l3.5 -14t4 -15.5t4 -15.5q9 -28 16 -28h1 q8 3 8 31q0 17 -3 43q-4 31 -12 61q-4 17 -9 26.5t-10 10.5h-2q-5 0 -10 -5q-1 -6 -1 -13z" />
<glyph unicode="Z" horiz-adv-x="976" d="M31 91v7q0 121 63 156l297 594l10 -21l-233 -606v-16q31 0 43 28l223 574v18q0 20 -6 44t-6 34v8l117 246q5 14 -25 30.5t-62.5 26t-39.5 7.5l63 254l10 10l383 -53q23 -3 23 -25q0 -16 -6 -29.5t-6 -25.5q0 -43 30.5 -114.5t32.5 -80.5q5 -5 -57 -107t-113 -180v-10 q-3 4 -15.5 7t-17.5 3h-8l-43 -139q-60 -99 -254 -424q-12 -18 -12 -26q0 -27 22 -27h234v-33q0 12 -6 -5q-3 -10 -13 -47q-47 -169 -67 -169h-520q-15 0 -23.5 5.5t-12.5 20.5t-4.5 27t-0.5 38zM62 1288q6 20 16 49q3 7 4 11q8 42 22 63q38 60 95 86v-12q0 -36 -18 -109 t-38.5 -130.5t-27.5 -57.5q-31 0 -46 14q-14 13 -14 35q0 24 7 51zM178 1184v57l64 256l10 21q14 0 28.5 -1.5t24 -3.5t18.5 -4t11.5 -2.5t3.5 0.5v-26q-1 2 -5 -13t-11.5 -41.5t-17 -58.5t-23 -64t-28.5 -59t-34.5 -44t-40.5 -17zM285 1198v12q0 3 96 265q3 11 10 22 q10 2 18 2q25 0 25 -22v-13l-65 -254l-9 -2q-9 -3 -30.5 -6.5t-44.5 -3.5zM391 633q25 0 31 14l139 254v-20q0 -48 -35.5 -116t-70.5 -133.5t-35 -105.5q52 0 88 142q28 136 201 309v-12l-54 -158v-45q18 0 47 61.5t70 179t43 121.5v35q-18 0 -36 -25t-33.5 -57.5t-45 -68.5 t-65.5 -54v23l63 201h-30l-13 -11l-264 -510v-24zM645 0v10q0 10 76 223q5 17 10 21h170l84 -43q-5 -13 -15 -44.5t-19 -57t-20.5 -52t-25 -42t-26.5 -15.5h-234z" />
<glyph unicode="[" horiz-adv-x="624" d="M117 784h30q1 16 11 64q35 140 53 203q40 121 117 307q15 39 53 106q76 -22 106 -32q12 -3 16 -8t0.5 -11t-9 -12l-11 -12t-6.5 -9l18 -35q23 -45 25 -45q0 -28 -42 -49.5t-64 -21.5l-47 9q-8 1 -13 1v-135q0 10 -8.5 16t-17.5 6q-13 0 -21 -32l-180 -744 q-10 363 -10 434zM117 838v553q0 38 116 127q41 -15 84 -33q-4 1 -52 -152t-96 -313.5t-52 -181.5zM125 -137q0 4 22 20q36 28 81 170l5 22v-1q49 178 84 360q4 -169 0 -254q-2 -77 -5.5 -179.5t-4.5 -127.5q0 -13 4 -21.5t11.5 -12t16 -4.5t20 1.5t21.5 5t23 8t21 9t18 8.5 t13 6q27 8 55 22q15 7 17.5 5t2.5 -22v-9q0 -91 -10 -143q-9 -33 -22 -33l-371 12v78q1 -16 14 -24.5t27 -8.5q0 13 -21.5 51.5t-21.5 61.5zM127 -84v391q27 9 31 21l180 743q0 -19 2 -82t2 -104v-95.5t-3.5 -93t-10.5 -59.5l-127 -543q-21 -92 -74 -178z" />
<glyph unicode="\" horiz-adv-x="923" d="M-31 1507q3 -1 15.5 -8.5t18 -10.5t17 -8.5t19.5 -8t17.5 -5t17.5 -2.5q17 0 36.5 5.5t26.5 5.5h13q-49 -140 -76 -211q-12 -51 -51 40q-24 55 -23 64q-22 72 -31 139zM94 1188q0 32 14 76t39.5 102.5t32.5 77.5q3 10 10 20q26 -45 53.5 -103t44 -98.5t45 -112 t40.5 -99.5q10 -30 10 -37v-6l-96 -254l-74 157q2 6 13 39.5t15.5 54t4.5 39.5q0 7 -8.5 16t-24 18t-29.5 16.5t-32.5 16.5t-24.5 13q-33 20 -33 64zM137 1071l66 -31v-10q0 -45 -17 -45q-4 0 -6 2zM297 731q18 6 41.5 21.5t38.5 28t43.5 37t36.5 30.5v-31l-107 -203z M360 834q0 16 7.5 37.5t19.5 47t16 35.5q33 -17 33 -57q0 -29 -42 -56q-31 -18 -34 -7zM393 530q29 7 74 31q8 -8 -43 -94q-17 7 -31 63zM393 571q-13 0 4.5 47t46.5 97t45 59q39 -92 41 -96q-23 -27 -69 -67t-68 -40zM446 414l107 211l371 -858l22 -21l-96 -63 q-2 -2 -19 -2q-33 0 -45 12q-45 91 -125.5 260.5t-97.5 204.5q-22 49 -22 63q0 4 47 31q38 22 18 22h-78q1 0 12.5 30t22.5 59.5t10 27.5q9 21 9 92q-31 0 -73 -34.5t-58 -34.5h-5zM477 360q0 15 55 58q-1 -6 -3.5 -27t-5 -35.5t-10.5 -27.5t-19 -13q-17 0 -17 45zM532 418 q4 14 9 6q-1 -1 -4.5 -3t-4.5 -3z" />
<glyph unicode="]" horiz-adv-x="624" d="M94 1384q0 53 51 70q39 3 76 0q74 -6 74 -10v-12l-84 -168q-2 -2 -27 -2q-40 0 -65 34.5t-25 87.5zM99.5 -147.5q3.5 10.5 15.5 10.5q15 0 43.5 -26.5t36.5 -26.5h4l96 86v-13l-84 -190h-18q-33 0 -78 10q22 3 22 16q0 5 -2 7q-2 6 -10.5 27t-14 37t-10 34t-1 28.5z M252 -307l76 170v16q0 30 -23 27q23 16 23 24v7q-12 195 -13 221v6q0 28 25 92t25 72h-17l-31 -49q2 8 1.5 16t-2 19.5t-1.5 13.5q0 60 13 86l157 317q10 -276 13 -477v-264v-264q-44 -52 -129 -97q-4 1 -23 7t-32 10t-29 10.5t-24.5 13t-8.5 13.5v10zM262 1255v19l86 170 l117 -12q22 -3 22 -27q0 -1 -3.5 -7.5t-9 -20.5t-9.5 -29q-36 -134 -180 -394q-8 26 -11 64q-12 144 -12 237zM285 834v24q129 265 170 352q6 12 20 54v-193l-10 -20q-67 -110 -170 -310q-10 52 -10 93zM295 594q0 19 4 41t14.5 50t17.5 46.5t25.5 53.5t24.5 46.5t27.5 50.5 t23.5 42q14 26 53 84v-234q-25 -9 -30 -20l-150 -287q-10 108 -10 127zM315 274l2 5z" />
<glyph unicode="^" horiz-adv-x="806" d="M104 954l234 437q16 32 41 53q60 9 63 -12q-56 -79 -149.5 -247t-93.5 -188v-18q29 0 32 8q79 167 224 393q7 11 14 11q25 -1 49 -78q0 -107 -76 -156q-13 6 -23 33t-18 31l-106 -287v-6q0 -22 43 -80l-213 76q-30 9 -21 30zM465 1094q0 24 53 104q5 12 15.5 33t15.5 33 l160 -287h53q-6 -16 -13.5 -22t-14.5 -5.5t-20 3.5t-22 3q-42 0 -164 -45v23l54 160v24q-18 0 -30.5 -19t-18 -42.5t-13.5 -42.5t-18 -19q-18 1 -37 99z" />
<glyph unicode="_" horiz-adv-x="860" d="M51 -508l10 137l11 11h202q0 -90 -47 -120t-139 -30q-25 0 -37 2zM272 -487q0 12 6.5 30.5t13 31t19.5 37t15 28.5h75v-11q-3 -14 -8 -31t-7.5 -26t-4.5 -19.5t-2 -19.5q0 -17 10 -20h-117zM412 -477l30 106l13 11h86l-3 -13q-20 -103 -32 -104h-94zM569 -408q0 11 13 48 h30q-15 -27 -36 -46q-7 -7 -7 -2zM602 -469q-31 0 21 53l2 2q8 8 10 11q2 4 10 12q15 -78 -43 -78zM676 -459q0 5 2.5 25t11 45t19.5 29q13 3 25 3t20.5 -1t19.5 -8.5t16 -10.5t16 -15.5t13.5 -15.5t14 -18.5t12.5 -17.5q-12 -4 -27 -7t-26 -4.5t-31 -2.5t-28 -1h-31h-27z " />
<glyph unicode="`" horiz-adv-x="550" d="M74 1503q0 34 30 25h127l-53 -117v-31h23l73 138q54 -22 54 -37q0 -29 -9 -63.5t-20.5 -65t-13.5 -37.5q2 -4 2 -17q27 0 30 7l41 139h7q28 0 43.5 -64.5t15.5 -117.5q0 -16 -7.5 -23.5t-14 -9t-23.5 0t-21 1.5q-73 0 -168 53q-10 4 -24.5 27t-38.5 70t-33 63 q-20 39 -20 59z" />
<glyph unicode="a" horiz-adv-x="870" d="M51 330q0 316 307 454v-10l-190 -403q-21 -51 -21 -121q10 0 54.5 92.5t102 222.5t75.5 166q22 50 62 93q24 26 38 26q13 0 17 -23q12 15 12 27q0 19 -23 57q45 82 86 193q5 13 11 20q9 4 19 4q29 0 63 -29q46 -39 77 -92.5t31 -82.5v-947q-87 0 -170 13q-33 6 -33 18 q0 10 2 12l84 244v27q-13 0 -28.5 -20.5t-30 -56.5t-26 -68.5t-24.5 -72.5t-18 -53l-8 -8q3 7 -6.5 14t-15.5 7q-20 0 -49 -16.5t-39 -16.5q-31 0 -31 35q0 81 53 176q74 66 74 86v260q0 1 -4.5 -3t-11 -8.5t-9.5 -4.5q-28 0 -28 14q0 4 2 6l200 479v23q-18 0 -49.5 -55.5 t-57.5 -119.5t-49 -125.5t-24 -62.5q-28 -59 -136 -260t-151 -313l-32 -86q-53 33 -79 112t-26 177zM82 881v16q0 208 180 248h33l-127 -254zM199 25q0 35 20 79q64 132 107 213q6 -15 35.5 -50t29.5 -44q0 -10 -2 -12l-53 -180v-17q0 -27 22 -24q-23 -10 -43 -10 q-27 0 -71.5 12t-44.5 33zM231 911v13l105 211l12 10h180l11 -10q5 -5 -11 -54q-14 -28 -32 -63q-1 -3 -41 -74q-5 -12 -93 -22.5t-131 -10.5zM559 520q-2 -8 -2 -15q0 -10 4 -16t9 -6q2 -1 6 1q10 6 16 24l74 256q9 27 32 53q27 27 27 31h-49q-36 -28 -68 -132.5 t-49 -195.5z" />
<glyph unicode="b" d="M10 0q15 352 21 455q6 93 10 106l303 563v-30q28 4 67 26t54 25h65q-62 -117 -129 -234q-15 -26 -30 -41q-142 -260 -244 -467q-55 -104 -55 -149q0 -29 32 -29v29q0 16 54 127q115 218 159 297q9 18 21 33v-256q-28 -41 -84 -138q-86 -151 -86 -159v-43q10 0 23.5 14 t27.5 38t25 45.5t24 49t17 35.5q35 62 53 74q4 -27 7.5 -43t11.5 -37t17.5 -32t26 -19.5t37.5 -8.5q25 0 42 8t24.5 21t11 30.5t3 36.5t-0.5 39v37q15 297 23 318l53 127v33h-23l-30 -54q-12 21 -42 53t-44 38v6l116 211q6 12 33 12q124 0 201 -139q96 -167 96 -260 q0 -39 -43 -48q-24 -8 -65.5 -68.5t-88.5 -143.5t-57 -97q-45 -70 -45 -106q0 -9 11.5 -14t11.5 -11q0 -37 -12.5 -100t-12.5 -90q20 0 50 102.5t30 118.5l-6 5q-6 5 -12.5 12.5t-6.5 13.5q0 11 23 49q166 249 180 266l10 10v-43q-8 -29 -16 -65.5t-13 -66t-11 -73.5 t-9 -66.5t-8 -66.5t-6 -55q-2 -11 -11.5 -22.5t-26.5 -26.5t-26 -25q-17 -20 -41 -52t-35.5 -46t-31 -30.5t-41 -22.5t-51.5 -6q-66 0 -203 61q-9 4 -20 -14.5t-17 -18.5q-4 0 -6 2l-64 64h-10q-22 0 -100.5 -41.5t-110.5 -63.5v17v14zM41 657v11v10q3 62 5.5 115t3.5 75 l1 23l234 477q13 30 43 53l10 -20v-180l-287 -553zM61 1018v59q0 135 13 291q3 53 20 53l160 11h20zM635 535h1q2 0 12 6q12 8 28.5 18t23.5 12l148 150v20h-21l-86 -73q4 3 -8 8q-8 4 -12 4q-31 0 -72 -90q-12 -23 -14 -23v-32z" />
<glyph unicode="c" horiz-adv-x="741" d="M73 565q0 7 1 21v8q0 102 51 170l256 350l31 31q9 1 35.5 3t40.5 2q14 2 40 2h8q20 0 32 -2q16 -2 37.5 -6.5t34 -13t25 -20.5t18 -29.5t5.5 -40.5q0 -61 -10 -139q-3 -22 -27 -22q-15 0 -20 12t-17 12q-17 0 -32 -12q-32 3 -76 3h-15q-54 0 -90 -13v10q0 22 24.5 52.5 t53.5 56t53.5 55t24.5 49.5h-16q-13 0 -107 -107q-5 -5 -10 -20q-168 -186 -340 -426q-10 -21 -11 14zM74 221v182l157 95h9q-4 -4 -16 -21.5t-22.5 -34.5t-11.5 -18q-57 -94 -116 -203zM74 455l10 22q114 175 127 191l9 12q10 13 21.5 27t27.5 33.5t37 42.5t42 44 q3 -7 0 -10q-17 -83 -20 -203l-33 -30l-211 -129h-10zM74 754v63q0 251 233 318h39zM104 141q0 16 36 44t36 34q-3 0 -22.5 -4t-32.5 -4h-6q44 95 103.5 186t109.5 133q3 -166 43 -256q-5 -5 -25 -24t-27 -27t-19 -24.5t-16.5 -32t-4.5 -33.5q13 0 35 19.5t50 51t37 40.5h17 q20 0 27 -8t3.5 -20.5t-10 -25.5t-13.5 -25.5t-7 -17.5h16q46 53 84 86q24 21 92 21q12 0 15 -10l53 -181q2 -4 2 -16q0 -16 -10.5 -28.5t-31 -19.5t-39 -11t-48 -5.5t-43 -2t-37.5 -0.5q-35 0 -90.5 8.5t-120.5 26t-110.5 51t-45.5 75.5zM604 307q58 -44 64 -53 q-10 -2 -18 -2q-43 0 -46 55z" />
<glyph unicode="d" horiz-adv-x="944" d="M41 274v27q0 24 3 56t6.5 57l10.5 75t11 82q9 53 10 54q40 11 53.5 17.5t32.5 25.5l328 426q10 10 16 10q8 0 21.5 -5t15.5 -5q1 0 20.5 40t41 83t24.5 47q35 38 53 41q3 -17 -13.5 -61.5t-39.5 -86.5q-16 -27 -30 -50.5t-23.5 -39t-10.5 -16.5q-73 -88 -180 -181 q-10 -20 -22 -32q-124 -128 -170 -181l-5 -5q-4 -5 -13 -15.5t-19 -23t-21 -27.5t-19.5 -28.5t-14 -27t-5.5 -22.5q0 -13 18 -16t56 -3h6q0 12 -3.5 18t-10 11t-10.5 12q25 42 41 64q58 81 180 190q2 -27 2 -79q0 -123 -12 -218q-3 -12 -11 -20q-38 -38 -72 -95.5t-34 -74.5 v-18q21 0 39 20.5t32 50t15 31.5q14 24 23 24q15 0 19 -64q1 -23 1 -60q0 -5 -2 -7q-82 -76 -82 -139q9 0 30 21t47 49.5t38 38.5q24 -15 96 -15v-43q19 0 41 25q25 31 63 61.5t65 49.5t47.5 43t20.5 49h-14l-160 -129h-12q0 127 86 192v15q-40 0 -74 -37v182l224 233 l10 -43q5 -24 20 -553q2 -14 2 -127q0 -11 1 -37q1 -17 1 -29q-1 -5 -1 -9q0 -12 -3.5 -31.5t-14 -33.5t-28.5 -27q-66 -54 -90 -54q-10 0 -79 58.5t-78 58.5q-14 0 -58 -26.5t-45 -26.5q-38 -10 -80 -10q-161 0 -227 124q-22 39 -84 170zM90 674q0 44 25 80l286 391 q49 7 61 -1.5t-7 -39.5q-22 -29 -320 -414q-3 -16 -45 -16zM102 848q0 72 23 129q65 141 180 168h43l-244 -338q-2 14 -2 41zM485 901q105 98 181 234q65 115 65 196q0 29 -22 29q-12 0 -47.5 -27t-64 -48t-28.5 -11q0 16 6.5 24t6.5 17q0 11 -6.5 28t-6.5 31q0 68 33 133 q46 -20 160 -63q53 -21 53 -47q0 -36 -20 -92v-371l-224 -234q-5 105 -22 143q-20 48 -64 58zM572 63q3 -5 8 -5q9 0 25 17q3 4 7 9q140 169 140 170v20h-21q-19 -16 -40 -38.5t-31.5 -35t-36.5 -45t-31 -38.5q-22 -30 -22 -46q0 -4 2 -8z" />
<glyph unicode="e" horiz-adv-x="901" d="M84 766q0 241 168 348v-33l-117 -667q-51 197 -51 352zM135 268q0 15 30.5 41t77.5 59t62 46q4 -7 0 -11q-33 -174 -33 -340h13q4 70 10 105q14 81 43 203q27 -69 63 -107q-6 -16 -9.5 -30t-5 -33.5t-2 -27t0.5 -33.5t0 -31q11 0 23.5 10.5t23.5 26.5t19.5 30.5t16 29 t7.5 15.5q3 7 43 11t89 6.5t61 5.5q20 4 45 10.5t40 9t33 2.5q72 0 72 -55v-10l-53 -160q-3 -7 -18 -14.5t-38 -13.5t-42 -10.5t-40 -8.5t-22 -4q-78 -10 -127 -10q-120 0 -190 30q-193 82 -193 258zM168 360v21l127 733q6 31 63 31h193v-21l-96 -180q-9 -19 -27 -30 t-32.5 -15t-26 -17.5t-11.5 -37.5q0 -9 6.5 -24.5t6.5 -18.5q0 -15 -12 -96q-3 -22 0 -22q5 0 22 28h141q0 -51 -57 -213q-121 -6 -170 -43q-14 -12 -37.5 -32t-36 -30t-27.5 -20t-26 -13zM496 928q0 4 2 6l84 160q2 -19 2 -43q0 -74 -23 -191q-1 -5 0 -2l-10 -20 q-5 10 -19 32t-25 39t-11 19zM528 496q13 0 52 266t45 352q14 3 23 3q20 0 20 -13v-76q0 -250 -97 -487q-17 -45 -43 -45zM602 498l33 106q3 10 10 43q45 278 64 424q129 -95 129 -305q0 -93 -13 -195q-9 -73 -30 -73h-193z" />
<glyph unicode="f" horiz-adv-x="550" d="M23 1071q-1 2 -1 5q0 10 11 18h88q0 -17 -8.5 -58t-22.5 -41q-52 0 -67 76zM41 928q0 16 45 49q2 -17 2 -30q0 -36 -18 -36q-29 0 -29 17zM104 1243q0 123 109 158h16l-90 -277h-8q-8 0 -17.5 47.5t-9.5 71.5zM117 911l10 54l139 426q9 30 21 30h239l4 -190l-10 -21 q-26 2 -53 2l-53 -2q-33 -3 -33 -45q0 -7 9.5 -13t26.5 -12t32 -10t34.5 -9t26.5 -7q33 -20 33 -117q0 -10 1 -23t1 -16.5t-2.5 -8t-8.5 -5t-18 -0.5q-27 0 -60 -16.5t-44 -16.5q0 23 9.5 54t21.5 59.5t14 36.5q-4 11 -10 11q-16 0 -46 -67q-36 -82 -117 -327 q-32 -95 -40 -117q-30 -79 -64 -137v-33h58q-15 0 -39.5 -122t-24.5 -160q34 0 70 28q2 -2 2 -6q0 -47 -22.5 -89t-49.5 -42q-35 0 -35 20v551q16 10 38 69.5t26 88.5l-5 23q-4 24 -10.5 48t-16.5 50.5t-24 43.5t-30 17zM139 647v160q31 -57 31 -76q0 -33 -31 -84zM213 168 v6q0 38 31 123q60 152 88 197q9 14 18 26h10l43 -469l-10 -31q-44 23 -67 23q-16 0 -35 -6t-25 -6q3 0 21 98t18 115h-18zM276 524q0 45 64 187q10 -68 10 -86q0 -9 -8 -23t-16.5 -24.5t-22 -27t-16.5 -20.5q-4 -9 -9 -9q-2 0 -2 3z" />
<glyph unicode="g" d="M41 -203q0 1 4 21.5t8.5 39.5t12 41.5t18 36t22.5 13.5q32 0 80 -11t56 -12h82q51 0 104 10.5t98 39.5t45 71q0 7 -17 18t-17 19t2 10l96 96h10q-21 0 -31.5 -47.5t-11.5 -94.5v-48q0 -22 -8.5 -63.5t-20 -87t-12.5 -50.5q7 -19 14 -19q12 0 26 58q22 95 34 225 q1 16 17.5 49t34 61t39.5 61.5t26 39.5q10 20 10 33q0 23 -23 23q-8 0 -8 -2l-223 -201h-12q89 206 182 371q84 151 170 266v-53l-53 -721q-15 -213 -234 -275q-80 -22 -203 -22q-92 0 -180 10q-22 4 -51.5 15.5t-57 33.5t-28.5 45zM61 795q0 99 21 170q44 146 139 170h19 l-168 -424q-11 42 -11 84zM82 625q30 93 76 213q17 46 116 276q8 23 21 31q23 2 43 2q68 0 106 -23q53 -43 74 -43q10 0 17 27t14 27h256v-11q0 -26 -95.5 -193t-170.5 -284q-11 157 -11 176v4l117 254v33h-20l-117 -233h-6q-8 0 -35.5 10t-34.5 10q-74 0 -74 -63 q0 -18 16.5 -46t16.5 -32q0 -28 -6 -62t-15 -74.5t-12 -62.5q-13 -27 -54.5 -102.5t-70 -133t-28.5 -77.5q24 0 70.5 41t66.5 41q10 0 15.5 -5.5t6.5 -16t1 -20t-1.5 -23t-1.5 -19.5q118 0 156 92q47 114 107 160v-11l-170 -360q-2 -4 -2 -18q0 -40 43 -25q-11 -19 -59 -36 t-99 -17q-108 0 -177 57t-69 156v305q2 -1 21.5 7.5t58.5 19t80 10.5v-15l-107 -221v-18q30 0 33 6l127 256v29q-13 4 -32 4q-34 0 -89 -13q-84 -20 -86 -20q-13 0 -16 31zM539 455v75l286 531q10 19 20 44t13 30h23q0 -29 -1.5 -59.5t-4 -55.5t-5.5 -50t-5.5 -42.5 t-4.5 -32.5t-2.5 -19.5t0.5 -5.5l-22 -22z" />
<glyph unicode="h" d="M84 20v721l254 416l10 10q1 -9 1 -18q0 -40 -21 -88l-213 -477q-9 -21 -9 -62q38 0 115 219q82 165 148 310q9 15 12 30q80 68 170 68q0 -25 -12 -58.5t-40.5 -93.5t-33.5 -73q-4 -14 -16 -21t-29.5 -14.5t-28.5 -18.5q-15 -13 -25 -31t-15 -32.5t-6.5 -41.5t-1.5 -37.5 t2.5 -43t2.5 -37.5l-74 -170v-18q30 0 64 61v-235q-27 -9 -33 -21l-137 -264l-10 -10q-2 -2 -20 0t-36 9.5t-18 20.5zM84 817v21q0 39 20 106q75 247 107 330q46 119 74 147l10 11q11 7 18 7q15 0 15 -28v-190q0 -1 -11 -23q-35 -59 -68.5 -116.5t-53.5 -91.5t-27 -46 q-46 -73 -84 -127zM84 1008v403h10l53 -53h9q19 0 55 22v-6v-6q-51 -116 -127 -360zM209 -14q0 4 2 4l117 231l10 -10v-191q0 -13 -45 -32t-55 -19q-29 0 -29 17zM496 881q0 25 16.5 68.5t41 94t28.5 60.5t22 41q5 2 10 2q39 0 138 -76q-10 -22 -26.5 -55t-35 -67 t-38.5 -70.5t-38.5 -68.5t-33 -57t-22.5 -39.5t-7 -13.5l-12 -10v18q0 100 -31 150q-12 21 -12 23zM518 94q0 24 4.5 44t17.5 43t19.5 33t28.5 38t26 33v16q-38 0 -53 -27v33l191 393v17q-28 0 -31 -6l-193 -373v90v92q3 63 11 84l235 414l10 10q84 -66 84 -178v-12 l-63 -797q-6 -61 -98 -61q-52 0 -136 20q-53 12 -53 94z" />
<glyph unicode="i" horiz-adv-x="434" d="M41 94v234q0 37 41 96l256 350v-467l-117 -117q-20 -20 -20 -71q5 0 36 31t59.5 62.5t29.5 31.5h12v-224q0 -6 -88 -13t-119 -7q-90 0 -90 94zM49 520q0 86 12 148q11 27 11 49q0 12 -6.5 25t-6.5 34q0 31 23 72q166 272 170 276l33 11q16 4 27 4q26 0 26 -25v-213 q-32 -2 -59 -12t-52 -30t-42.5 -38t-45.5 -49.5t-47 -50.5v-21h23q1 0 30.5 28.5t66.5 63.5t50 46q33 26 84 26q0 -18 -6 -28t-17.5 -20.5t-17.5 -20.5l-233 -318l-21 -22q-2 23 -2 65zM61 1507q-2 2 -2 4.5t2 6.5q2 2 4.5 2t6.5 -2q137 -27 137 -33v-10l-137 -191 q1 24 1 49q0 80 -12 174zM72 911v150l53 53q14 3 26 3q24 0 37 -13zM92 1241q98 142 117 170q8 10 22 21q2 -14 2 -27q0 -42 -24 -78q-3 -5 -11 -22t-14 -27t-15 -22.5t-20 -18.5t-24 -6q-30 0 -33 10zM109 168h26l160 192q14 14 14 64h-24q-1 -3 -45.5 -53t-87.5 -110 t-43 -93zM199 1221v4q0 11 9.5 28.5t21 34t12.5 17.5q24 47 24 94q0 29 -4 33l-20 12l32 20q7 1 14 1q22 1 34 -15q16 -20 16 -68v-34l-86 -138zM315 1208q-3 5 -3 10q0 6 3 12q6 12 13 22t10 12l10 -66h-6q-21 0 -27 10z" />
<glyph unicode="j" horiz-adv-x="444" d="M-41 -94l10 10q41 -1 75 -2q3 -1 6 -1q31 0 62 15q33 16 58 52v-5q0 -20 -8.5 -46.5t-16.5 -45t-10 -35t11.5 -24t46.5 -4.5q20 3 20 61q0 1 -5.5 5t-11.5 11t-6 13q0 3 3 6l63 158v30h-23l-73 -73v10q0 14 52.5 141t84.5 189v28q-9 0 -17 -3t-15.5 -9.5t-13 -12t-12 -17 t-9.5 -16.5t-9.5 -18t-7.5 -16v21l84 256v24q-13 0 -27 -19t-27.5 -51.5t-24 -63t-22 -66t-16.5 -48.5v31q0 24 53 213q30 105 76 234l10 -64l43 -733q2 -25 16.5 -83.5t14.5 -78.5q0 -177 -180 -186h-96h-94q-64 3 -64 43v170zM33 137v84l53 903v19q0 22 -10 35 q21 7 54 -0.5t54.5 -16t20.5 -6.5l8 -10q-104 -299 -104 -461q13 0 23 13.5t16 37.5t9.5 46t7 50t5.5 39q5 41 18.5 85.5t38 109t29.5 80.5h9q51 0 65 -31l-27 -20v-150l-176 -616q-8 -28 -31 -181q4 -30 1.5 -43t-5.5 -18q-1 -1 -3 -1q-3 0 -7 3q-9 6 -15.5 13.5 t-16.5 18.5t-17 17zM84 1417q0 71 12 111q18 6 32 6q32 0 32 -37q0 -36 -7 -79t-19 -97t-17 -80q-7 -13 -11 -13q-6 0 -8 22l-2 14q-12 96 -12 153zM158 1251q0 107 45 246l94 -33l-31 -149l-96 -64h-12zM297 1284l33 148l10 12l10 -23v-147q0 -12 -14 -12q-21 0 -31 5.5 t-8 16.5z" />
<glyph unicode="k" horiz-adv-x="923" d="M10 51v33l64 1284l10 43q17 -5 31.5 -5t42.5 2.5t59 2.5q-4 0 -29 -79t-30 -101q-74 -254 -74 -287v-96h20l64 63l180 273v-17q0 -24 -29.5 -86t-33.5 -73q-67 -189 -117 -351q-39 -121 -39 -198q61 0 61 18q0 10 -11 14.5t-11 10.5q0 21 4.5 45t10 40t11.5 32t7 18 q55 177 116 350q9 28 31 74v-223l23 -31q-21 -32 -57.5 -90.5t-49.5 -79.5q-8 -13 -8 -39q13 0 26.5 9.5t26.5 27t23 32.5t22.5 36t16.5 28v-20l-97 -256v-17q33 0 54 49q43 -27 43 -79q0 -4 -11 -37q-23 -57 -69 -170t-70 -170v-19q14 0 34 26t38.5 64t38 84.5t33.5 85 t25 68.5t11 31q5 11 23 43v-23q0 31 -6 3q-2 -14 -11 -66q-49 -310 -88 -360q-10 -10 -18 -11q-59 0 -175 33.5t-116 60.5zM115 911v13q0 -1 6.5 23.5t17 65t24 90t28.5 101t28.5 95t25.5 74.5t19 38l21 21q9 2 16 2q25 0 35 -25q14 -33 14 -100q0 -50 -12 -68 q-195 -301 -201 -307zM348 541l193 499q28 72 63 95h254q15 0 24 -30.5t9 -74.5q0 -24 -52 -76.5t-117 -105.5l-65 -53q-45 -39 -45 -66q0 -35 23 -92l246 -553q10 -27 10 -43q0 -21 -17 -21q-30 0 -100 31l-106 -51h-11q-83 0 -121 21t-38 75q0 19 5 26.5t15 4.5 q28 223 43 393q-2 20 -2 64h-18q-7 0 -26.5 -173t-27.5 -274l-53 307l266 650v22q-23 0 -66.5 -81t-87 -192.5t-69.5 -180.5t-33 -91q-1 -3 -5.5 -13t-7.5 -17t-7.5 -15.5t-8.5 -13t-7 -4.5q-33 0 -60 33zM625 123q29 0 32 14l62 234h-31q-6 -9 -10 -21q-53 -189 -53 -203 v-24z" />
<glyph unicode="l" horiz-adv-x="434" d="M84 1210v11q0 66 141 227l6 6q5 2 30 -4t51 -25t26 -45q0 -12 -7.5 -21.5t-14.5 -13.5t-22 -10l-20 -8q-31 -20 -95 -59t-95 -58zM84 1335v9.5v13.5v10v53q3 11 5 22t3 20t2 12q3 21 0 43q51 -17 94 -43q-7 -22 -24 -48t-39 -56t-31 -44q-10 -22 -10 8zM92 20q0 20 33 64 v330q16 5 32.5 26.5t30.5 56.5t23.5 61.5t20 62t10.5 36.5q10 27 12 41t-7 19.5t-18.5 5.5t-36.5 -2t-47 -2q0 26 13 55l127 287v18q-6 0 -36.5 -4t-49.5 -4q-18 0 -21 10q57 144 160 234h6v-1252l14 -22q-9 12 -26 12q-4 0 -4 -2l-193 -51h-14q-29 0 -29 20zM92 1055 q0 75 2 112q5 4 23 17t29 20t27 15.5t28 11.5v-10l-66 -140v-10q0 -47 86 -47v-6q0 -24 -18 -66t-44.5 -92t-33.5 -65q-15 -35 -21 -74q-12 156 -12 334zM113 606q0 60 2 62l96 22v-12q0 -9 -76 -201q-3 -12 -6 -12q-5 0 -9 27q-7 48 -7 114z" />
<glyph unicode="m" horiz-adv-x="1357" d="M84 20v1094q0 22 74 107h2q9 1 44 -19q39 -22 48 -35q-110 -346 -158 -700q-2 -4 -2 -41q0 -39 2 -45q3 -43 10 -43h21q4 0 30.5 62t32.5 87q52 191 86 308q1 3 7.5 27.5t12 42t15 41t19.5 38.5v-33l-140 -710v-60q29 0 64 60q12 20 12 40q0 12 -4 23q-7 17 -14 8 q-2 -3 -4 -8v43l159 774q8 43 42.5 54.5t107.5 11.5q103 0 137 -43q-33 -20 -33 -43q0 -25 66 -43q-3 -1 -16 -11.5t-34 -31t-40 -45t-33 -56.5t-14 -63q28 0 54.5 10t50.5 32t42 41t38.5 51.5t29.5 48t26 46.5h17l-197 -383v-16q40 0 86 70l10 -11l64 -637v-12 q0 -36 -13.5 -67.5t-23 -44.5t-6.5 -13h-10q-17 0 -45.5 12.5t-60 29.5t-42.5 22q-53 18 -53 20l-23 807q-3 64 -88 64q-71 0 -71 -78q0 -54 32 -92l-63 -691q0 -12 -37 -12q-16 0 -33 6t-26 6q-30 0 -65 -10t-54 -10q-39 0 -39 20zM135 455v26q0 32 3 65t9 66t10.5 54 t12 51.5t8.5 36.5q40 166 107 381h34q3 0 0 -9t-8.5 -24t-5.5 -25q0 -7 6 -13t6 -13q0 -40 -35 -128.5t-40 -105.5q-17 -64 -46 -168.5t-38 -140.5q-6 -23 -23 -53zM709 1061l12 10q22 9 41 -20l-31 -23q-10 26 -22 33zM795 827v11l84 190q2 2 2 12q0 11 -16.5 26.5 t-16.5 20.5q0 37 84 58q38 3 75 3t74 -3q61 -5 113.5 -63.5t81.5 -144t29 -171.5v-66q-12 -287 -33 -596q-8 -94 -21 -94q-9 0 -54 27q-6 4 -5 4q-23 0 -51 -9t-51.5 -20t-28.5 -12h-17q-5 0 -5.5 6.5t3 17.5t8 24.5t11 28.5t12.5 28t11.5 25t7.5 17q11 30 17.5 66t0.5 47 h-61q60 120 139 311q-6 15 -6 31q-66 0 -90 -8l-11 20l64 160q2 2 2 14q0 29 -12 29h-76q0 37 11 78t21 63t33 70v29q-19 0 -31 -4.5t-20 -18t-11.5 -24.5t-10.5 -39t-13 -47q-7 -21 -8.5 -43t0.5 -53.5t2 -43.5h72q-5 0 -30 -80.5t-25 -87.5q0 -59 88 -59 q0 -24 -19.5 -70.5t-56 -117t-43.5 -84.5q-2 -6 -2 -21q0 -19 14 -32t27.5 -18.5t13.5 -6.5q0 -49 -45 -123q-37 -61 -61 -61h-4q-19 7 -19 61v43l53 637q0 1 1 8.5t1 13.5q0 95 -90 95q-58 0 -112 -54z" />
<glyph unicode="n" d="M68 1188v33l186 -64v-33q0 -5 -127 -383q-13 -36 -43 -94zM82 481q0 50 12 80l203 563q6 18 84 21h6q-17 -7 -35 -60q9 0 83 31t110 31q239 0 239 -236v-403q0 6 -37.5 -35.5t-91.5 -93.5t-84 -62l-30 64q-4 8 -4 90q0 87 4 123q22 97 30 137q-5 33 -22 35q-6 0 -8 -4 q-6 103 -70 119v106h-31v-96q-67 -15 -102 -96q-42 -97 -48 -139q-2 -14 -2 -32q0 -35 9 -83l-96 -191v-33h20q4 7 23.5 48.5t36 69.5t26.5 32q21 -196 31 -340q2 -6 2 -53q0 -36 -2 -54q-14 -20 -31 -20h-203l-20 20v330l264 541v18q0 2 -3 2.5t-7.5 0.5h-8.5h-8l-4 -1 q-55 -9 -55 -30q0 -10 12.5 -16t12.5 -11q0 -4 -2 -6l-201 -404q1 4 0 20zM526 0q0 153 15 285q-3 -23 20 -23q8 0 10 2l150 117v-4q0 -11 -9.5 -28.5t-21 -34t-12.5 -17.5q-23 -44 -23 -59q0 -45 33 -48q-27 -50 -10 -54h3q22 0 73 65q25 35 10 45.5t-53 -2.5 q-17 -6 -1.5 26t49 83t36.5 57q1 -36 4.5 -105.5t5.5 -126.5t2 -108q0 -52 -27 -52q-12 0 -31 9t-46 26t-35 21l-74 -74h-68zM795 410v4q2 2 3 2q0 -2 -3 -6z" />
<glyph unicode="o" d="M63 371v196v197q0 20 11 106q34 235 264 275v-31q-125 -421 -125 -899q30 0 51 49q4 8 15 43q33 98 44 98q7 0 7 -40q0 -44 -17.5 -129.5t-17.5 -110.5q0 -31 22 -31q6 0 12.5 5.5t13.5 14.5t13.5 19.5t12.5 22.5t10 20.5t8 16.5l4 8q6 9 53 12.5t54 7.5v-41 q0 -51 -11 -190q-42 -10 -47 -10q-286 0 -356 241q-21 71 -21 150zM264 424q0 164 21 287q67 358 96 413l10 21q58 3 105 4h6q44 0 91 -15q50 -16 95 -53q2 -27 2 -84q0 -41 -5.5 -87.5t-11 -76t-15 -70.5t-11.5 -52q-8 -39 -8 -127h18l64 307v96q15 -12 33 -12 q30 0 51.5 -46.5t21.5 -101.5v-137q0 -189 -10 -362q-6 -86 -43 -170q-73 -168 -229 -168q11 0 83 176.5t72 183.5q10 28 11 8v-20q0 -64 -15.5 -134t-15.5 -112q41 0 61 193q4 154 13 192q5 25 18.5 60.5t13.5 52.5q0 37 -32 37q-11 0 -16 -18t-8.5 -50.5t-8.5 -50.5 q-24 -90 -117 -297q-17 -44 -58 -110q-15 -22 -16 -17v20q1 29 11 150q63 81 63 123v26l-63 435q-4 23 -23.5 48t-19.5 40q0 39 11 80.5t11 58.5q0 61 -22 61q-6 0 -13 -15.5t-13.5 -38t-12.5 -45t-10 -41.5t-5 -21q-8 -22 -27 -40.5t-37 -29.5t-32 -26t-14 -31v-297 l-68 -166q3 1 0.5 24.5t-2.5 24.5z" />
<glyph unicode="p" horiz-adv-x="901" d="M84 881v233l8 8q-3 -7 6 -13.5t15 -6.5q51 0 116.5 17.5t81.5 17.5q27 0 27 -29v-14q-64 -270 -117 -543q-28 -152 -28 -246q25 0 28 23l137 700q15 82 117 117h47l-78 -221q-11 -24 -30 -36.5t-33.5 -15.5t-25.5 -16t-11 -39v-266l-102 -404v-49q30 0 64 57t34 93 q0 15 -12.5 21.5t-12.5 19.5q0 28 23 102q4 -47 11 -78t29.5 -56.5t59.5 -25.5q80 0 80 54q-11 9 -31 32q-2 0 -2 5q0 53 13 69l137 193q6 -58 55 -58q0 -17 -14.5 -53.5t-31.5 -71.5t-19 -41q-33 -103 -33 -174q0 -33 22 -33q9 0 21 5q-49 -90 -64 -168q-30 -10 -36 -10 q-42 0 -103 26.5t-74 26.5q-20 0 -20 -355q0 -39 10 -59h-20q-26 0 -91.5 31.5t-68.5 32.5q-76 27 -76 43t22 54l23 38q0 18 -2 24zM485 911q0 41 29.5 116t56.5 118q13 2 26 2q92 0 165 -96q65 -88 65 -299q0 -109 -2 -127q-9 -297 -20 -404q-8 -77 -43 -127 q-70 -104 -150 -104q0 23 12 58.5t23 60t34 69.5t28 55v27q1 0 -17.5 -10t-37.5 -20l-19 -9q0 67 20 117l129 309v31h-22l-74 -74v21q0 30 8.5 68t15.5 58.5t26.5 70t23.5 59.5v30h-21l-159 -340q-17 -31 -43 -51v31l106 457v34q-13 0 -26 -24t-26 -68.5t-21.5 -80 t-19.5 -87t-13 -61.5q0 45 -11 117q0 3 -10 20q-33 50 -33 53z" />
<glyph unicode="q" d="M74 721v84q0 108 10 160q37 150 170 180h53l-139 -414q-29 -92 -29 -219q63 0 72 18l147 265q-1 -2 -0.5 -6.5t1.5 -11.5t1 -9q0 -156 -65 -354v-19q35 0 49 39v-137l47 -64q-16 -62 -16 -149h16l96 96l191 348v-30l-180 -457q-12 -30 -56.5 -45.5t-93.5 -15.5 q-223 0 -223 198v76q12 58 12 80v16zM178 551v20q0 69 23 140l147 434q17 1 32 1q75 0 75 -26q0 -32 -17.5 -75.5t-51.5 -105t-38 -69.5q-66 -135 -170 -319zM412 158v6q0 21 22 57h31q-3 -22 -53 -63zM412 901v10l10 24q49 121 74 165q0 -1 -2.5 -24.5t-4.5 -41.5 t-8.5 -44.5t-14.5 -44.5t-22 -31t-32 -13zM485 895q0 4 2 6l64 213q19 6 10 31q3 1 6 1t4 -1q66 -2 203 -10v-328l-233 -447v148l170 489v25q-16 0 -35.5 -30.5t-40 -82t-36.5 -98.5t-34 -102.5t-24 -71.5q-3 78 -13 180q-2 18 -22.5 47t-20.5 31zM496 1100l2 6v-2 q0 -1 -1 -2t-1 -2zM541 10q30 4 94 94q20 28 22 13q0 -29 -21 -83l-22 -54q7 -35 7 -64h14q10 73 76 221q44 105 73 160l11 -23v-559q-35 -74 -43 -106q-33 15 -122 61.5t-89 55.5v284zM561 90q0 7 10 37q192 487 203 510l10 20v-307q-25 -11 -58.5 -47t-57.5 -72t-47.5 -73 t-26.5 -41q-9 -13 -27 -26q-3 -2 -5 -2q-1 0 -1 1z" />
<glyph unicode="r" horiz-adv-x="647" d="M31 41v55v84q12 346 41 891q6 53 22 53h148v-30l-148 -426q-10 -36 -12 -64q5 -38 26 -38q34 0 111 101q13 16 34 46q26 35 32 41v-13l-150 -360v-25q0 -34 33 -34v38l330 744v16q-17 0 -37.5 -22.5t-35.5 -49t-28.5 -54t-15.5 -29.5q-195 -290 -223 -318l-33 -33v33 l170 488q0 2 12 2q11 0 31 -8.5t36 -17.5t17 -9q23 0 59 20.5t48 22.5h116v-264q0 -3 -33 -9.5t-71 -13.5t-45 -10q-31 -13 -53 -34t-34 -42t-20.5 -60t-11.5 -64t-8 -77l-272 -553zM104 0l234 477q0 -10 -14 -79t-38 -161t-66.5 -164.5t-88.5 -72.5h-27zM229 12q-3 6 -3 14 t4 20q8 22 18 43.5t25.5 49.5t21.5 41q7 18 21.5 53t21.5 52v-265q0 -5 -2 -9t-6.5 -6t-9 -3.5t-13 -1.5h-14.5h-17.5h-17.5q-22 0 -29 12z" />
<glyph unicode="s" horiz-adv-x="763" d="M41 51v193q0 10 31 10q18 0 39 -4t43 -10t24 -7q53 -12 127 -12h64q61 17 74 205q3 46 3 70q0 20 -2 24q0 22 10 74.5t31 83.5q59 -19 170 -148q66 -78 66 -219q0 -88 -47 -179t-99 -91h-4l84 233v107h-20q-33 -29 -33 -78q12 -19 12 -33q0 -33 -26 -97t-49 -99v16 q0 33 9 71t20.5 71t13.5 42q14 91 20 117q8 36 8 51q-18 0 -30.5 -21.5t-17.5 -44.5t-9 -50.5t-4 -28.5q-8 -33 -22.5 -91.5t-18.5 -78.5q-12 -49 -12 -88q0 -26 12 -29q-27 -15 -82.5 -22.5t-93.5 -7.5q-101 0 -101 20q0 41 15 41q56 0 53 17q-2 15 -36 24l-27 4 q-15 0 -32 -48t-22 -48q-44 0 -92.5 20t-48.5 41zM41 844q0 200 147 270q3 -26 0 -53q-36 -294 -43 -361v-43q0 -65 23 -65q22 0 41 98q2 -14 2 -43q0 -63 -12 -106q-88 81 -117 127q-41 71 -41 176zM195 768q0 36 4 90q13 145 32 256q-3 16 11 24q12 7 36 7h7h53l-43 -180 v159h-21q-8 0 -43 -329q2 -14 -7 -20.5t-29 -6.5zM283 485q0 21 22 76v-94q-22 -3 -22 18zM295 694q0 57 20 154q13 -3 13 -37q0 -25 -23 -101q-7 -22 -9 -21zM326 858v27q0 133 53 260q31 1 57 1q93 0 134 -11q65 -16 65 -58q0 -19 -16.5 -37.5t-16.5 -21.5q0 -8 33 -59 t33 -54q0 -26 -60 -26q-42 0 -115 22.5t-92 22.5v4q0 34 9.5 81t9.5 56q-17 0 -34 -42.5t-33 -96t-27 -68.5zM348 477v31q0 154 21 246q8 3 16 3q5 1 9 -1q12 -4 21 -12t15 -16t10 -13t4 -4zM369 418q0 29 32 80v-107q-32 14 -32 27z" />
<glyph unicode="t" horiz-adv-x="573" d="M-20 911q0 157 57 256q41 -35 41 -57q0 -83 -31 -156l-43 23q35 -50 35 -66h-59zM78 924q37 21 43 30l149 244v-10q0 -25 -6.5 -54.5t-15.5 -58.5t-10 -35l-9.5 -47.5t-9.5 -49t-7 -41t-5.5 -44t-1.5 -37.5q0 -41 37 -41q0 101 28 238q29 138 64 256q3 -8 16.5 -51 t23 -71t13.5 -28h160q0 -170 -76 -286l-70 53v-84l-184 -690v-29q13 0 24 6t20.5 20t14.5 23t14 29t11 24q2 -4 2 -10q0 -10 -2 -12q-7 -18 -24 -66.5t-26.5 -71t-14.5 -22.5q-38 0 -85 47.5t-47 71.5v764zM98 1237q0 96 43 111q1 -1 1 -3q0 -14 -23 -79q-16 -49 -20 -38 q-1 3 -1 9zM100 997v11q0 85 84 340q16 31 86 43q7 2 13 2q20 0 20 -25q0 -26 -13 -62t-41 -83t-47.5 -77t-57 -84t-44.5 -65zM195 322q29 0 32 28l95 561h-31q-8 -29 -10 -41q-86 -495 -86 -510v-38zM291 10v21l86 243q17 -28 38 -37t34 -7t22.5 -14t9.5 -58 q0 -27 28 -69.5t28 -55.5q0 -19 -13 -31t-39 -16t-39 -5t-38 -1h-21q28 108 41 188q-2 12 -2 41q-26 0 -29 -8zM311 307v31l76 276v-43q-2 -61 -10 -168q-1 -2 -17 -32t-27.5 -45t-21.5 -19zM332 -14q0 21 33 77q2 -9 2 -17q1 -12 -3 -22q-6 -18 -16 -28t-16 -10z" />
<glyph unicode="u" d="M84 924v94v96q16 31 63 31q23 6 40 2t30 -9.5t14 -4.5v-19l-127 -424q-17 95 -20 234zM115 174v16q9 48 9 103t-4.5 109t-4.5 69q0 19 10.5 40t28 45.5t24.5 37.5q52 99 96 201v-31l-73 -266h41l149 573q33 -23 33 -37q0 -4 -2 -6l-64 -530q0 -8 -34.5 -104.5 t-34.5 -114.5q29 0 49 38q13 -6 27.5 -24t24.5 -33.5t11 -15.5l-73 -193v-16q14 0 28.5 15.5t27.5 42t23 51.5t21 56t16 44q64 3 64 61q0 18 -6 33t-6 22q0 9 2 11l211 594q18 53 18 129q-7 0 -11.5 -4t-8.5 -14t-7.5 -20.5t-9.5 -31t-12 -37.5l-178 -504q0 6 -2 21t-2 20 q0 41 2 47q12 172 20 256q23 44 23 64q0 8 -6.5 24.5t-6.5 34.5q0 90 11 154q7 34 32 74q4 2 13 2q14 0 40 -6q40 -8 90 -22.5t60 -16.5q31 0 31 -41v-1053q0 -41 -31 -41h-213q-12 0 -12 20q0 22 95.5 139.5t107.5 125.5v-11q0 -35 -46.5 -119.5t-46.5 -109.5q36 0 63.5 41 t42 99t21.5 108.5t7 83.5q-22 0 -54 -37t-76.5 -106.5t-48.5 -75.5q-24 -31 -53 -54v13q0 30 41 111.5t43 88.5q107 293 107 330v25q-34 0 -31 -15q-93 -317 -234 -616q-52 -61 -159 -61q-213 0 -213 194zM115 571v13l159 540l11 11q18 6 31 6q34 0 34 -41q0 -30 -33 -103 q-36 -84 -170 -383q-21 -35 -32 -43z" />
<glyph unicode="v" horiz-adv-x="860" d="M6 1104q-1 4 -1 7q0 21 32 24h215q0 -55 -2 -84q-7 -126 -23 -256q-16 -148 -53 -381l-10 10zM195 305q0 36 11 90.5t11 59.5q32 262 74 659q12 -20 25 -48t21 -48t7 -21l-10 -20q5 -26 16.5 -80t16.5 -80v-6v-4l-117 -617v-34q20 0 43.5 43.5t42.5 96t20 54.5v-12 q0 -34 -6.5 -69.5t-15 -68.5t-10.5 -42q6 -19 17 -19q27 0 82 117q48 102 143 365q1 3 1 4q2 9 11 22v-22l-127 -445v-37q65 0 65 45q0 9 -6 17.5t-6 21.5v17l203 743v57q-27 0 -33 -16l-201 -541l-12 -20v27v26q18 100 22 170q3 82 3 164t-3 164q24 30 66 58t55 28 q28 0 61.5 5t74.5 14t61 12q6 2 14 2q28 0 72 -23v-6q0 -16 -9 -44t-18.5 -50t-26 -57.5t-20.5 -45.5l-223 -848q-15 -55 -37 -55q-10 0 -21 3t-18 6t-8 3q-37 0 -91 -10t-59 -10h-24q-64 0 -82 74l-53 211l-1 7q-1 7 -1 13zM332 391q0 123 55 320q12 -35 12 -93 q0 -62 -9 -119.5t-16.5 -82.5t-6.5 -25h-35zM387 274v11q0 30 5 62t15.5 79.5t12.5 60.5q14 -36 33 -36q0 -26 -22.5 -85.5t-43.5 -91.5zM590 326q28 0 31 12l127 436h-31l-10 -20l-117 -404v-24z" />
<glyph unicode="w" horiz-adv-x="1284" d="M2 1104q-3 14 21 31h213q30 0 30 -31v-10l-137 -533l-23 -137zM117 383q0 9 40 50t46 54l137 287q12 -27 12 -72v-24l-182 -531v-26q61 0 61 43q0 16 -8 37l139 393h11q10 -56 20 -86q29 44 52.5 99t42 111.5t22.5 65.5q20 51 53 74q-29 51 -53 129v21q0 73 43 137 q16 3 33 0q21 0 74 -5t53 -10q0 -16 -43 -59l-351 -881q-38 -93 -38 -174q40 0 81 68l351 616v-22l-224 -604v-29q34 0 43 6q0 -4 1 -24.5t1.5 -30.5t3 -27.5t6 -30t9.5 -22.5h-10q-40 0 -133.5 36t-100.5 38q-51 5 -96 38.5t-53 55.5q-5 31 -17 93t-19 112.5t-7 93.5z M160 498v43l139 520l10 10q33 -14 33 -51q0 -27 -11 -69.5t-12 -49.5q3 -29 3 -48v-17q-2 -20 -23 -62q-119 -256 -129 -266zM352 147v21l371 936q4 -16 16.5 -60t19.5 -77.5t7 -59.5v-6q-64 -141 -180 -360q-194 -353 -224 -383zM426 1157q2 1 4 1q12 0 49 -13 q-10 -24 -22 -31zM573 178l4 13q40 139 56 139q9 0 16 -13v64l127 360q8 22 16 22q17 0 33 -106q1 -8 3 -23q1 -6 1 -9q11 -79 11 -125v-23l-84 -256v-16q32 0 53 59q180 518 180 531v24q-37 0 -43 -31v39l64 224q0 1 -1 2.5t-1 3.5t2 4q7 10 20 10l213 64h17 q0 -4 -7.5 -22.5t-17 -43t-12.5 -41.5l-213 -965q-21 -94 -111 -94q-57 0 -151.5 29.5t-94.5 52.5v170q-49 -68 -57 -74q-23 10 -23 31zM659 248q19 14 19 22t-19 27v-49zM936 240q64 0 132 251q24 88 26 88q1 0 2 -4v19h-23q-6 -11 -20 -43q-117 -279 -117 -287v-24z" />
<glyph unicode="x" horiz-adv-x="860" d="M10 70v34l234 437v-33v-31q-12 -115 -13 -127q2 -29 2 -86h21l84 701l10 12l55 -55l-192 -922l-10 -10h-43q-80 0 -138 10q-10 10 -10 70zM39 1104q0 19 5.5 26.5t16.5 4.5h109q0 -9 -2 -11q-4 -49 -15 -159t-16 -170l-96 286q-2 4 -2 23zM178 674q0 23 29.5 93.5 t36.5 102.5q17 79 30 170q33 -9 33 -30v-13l-53 -393q-76 21 -76 70zM178 774v37q0 71 12 197q6 87 21 127h43q-1 -10 -7.5 -50.5t-9 -56.5t-8.5 -52t-10.5 -57t-11 -50t-14 -52t-15.5 -43zM307 51v23l223 753l21 54v-54l-107 -510q-2 -7 -5.5 -13.5t-4.5 -9t0 -9.5z M328 297v41l106 543l10 10q16 8 29.5 -15.5t13.5 -31.5v-17zM477 254v31q59 256 94 456q39 209 39 383h-16l-86 -243v16q0 140 43 270h10q244 -30 244 -32l12 -11h-67zM498 190l106 330v-276h21q4 0 12 71.5t10 108.5l201 -404l20 -10l-30 -10h-244q-3 0 -21 40t-40.5 88 t-34.5 62z" />
<glyph unicode="y" horiz-adv-x="827" d="M10 1071v23q0 35 21 41h98q0 -149 -55 -277zM41 -51h170q15 0 43 31q53 59 53 61v33l191 520l10 10q1 -4 1 -10q0 -21 -11 -53l-213 -658v-22q0 -51 20 -51q16 0 23 10l180 360v-22q0 -65 -43 -200.5t-43 -186.5q0 -42 -65 -60t-146 -18q-170 0 -170 63v193zM98 774 l70 340l10 21q10 1 20 1q88 0 173 -96q12 -83 12 -217q0 -67 -2 -69l-96 -330v-90q30 0 53 69v-32q0 -115 -64 -203zM168 885q1 6 2.5 -4t7.5 -60q35 -309 66 -313q59 0 59 90q-37 0 -49 -27q-7 41 -25 147t-28 163q-9 43 -11 43h-22v-39zM348 -31q0 44 45.5 152t50.5 123 q213 708 213 743v29q-14 0 -28 -15.5t-27 -42.5t-23 -52.5t-21.5 -56t-16.5 -42.5q-14 -29 -14 -1v19q1 10 1 13q0 34 5.5 67.5t16.5 72.5t11 40q-2 10 -2 33h-33q0 73 15 73l159 11h84q13 0 13 -33q0 -41 -33 -94l-193 -1028q-27 -149 -106 -201v53l96 401q0 1 0.5 4t1 8 t0.5 9q0 33 -31 33q-12 0 -14 -2l-170 -336v20z" />
<glyph unicode="z" horiz-adv-x="837" d="M20 104q3 13 7.5 30t6 23t3.5 16t2.5 17.5t1 18.5t0.5 27q0 2 -6 38t-6 66q0 51 150 219l42 45q8 13 27 21v-41h26q52 146 138 274q12 15 12 33q0 16 -6 26.5t-6 22.5q0 26 43 131q7 17 23 29.5t31.5 19t42.5 10t42.5 4t46 1t37.5 0.5q4 2 8 2q16 0 36 -28 q24 -35 38 -82.5t14 -76.5q0 -27 -96 -123l-191 -360q-3 -5 -15 -18.5t-17 -24.5q-63 -146 -64 -150q-4 -53 -22.5 -119t-34.5 -105l-17 -40l-12 -10h-104q128 397 350 807v14q-43 0 -64 -37v11l127 256v18q-29 0 -32 -8l-394 -776q-22 -42 -22 -73q0 -11 3 -21q8 -27 33 -4 q19 16 40 57v-23l-84 -221h-29q-109 0 -109 104zM84 934v160q0 16 20 30q35 -9 54 -20h200l-73 -127q-11 -11 -72 -38.5t-82 -27.5q-47 0 -47 23zM338 981v6l74 127h12v-10q-7 -22 -27 -77t-26 -73q-33 14 -33 27zM381 63v5l4 15q17 75 27 75l299 75q10 2 18 2q6 1 11 -1 q11 -2 15 -9.5t5.5 -18t0.5 -23t1 -25.5q8 -52 12 -84v-23q0 -51 -33 -51h-256q-1 0 10 50.5t13 53.5q-2 11 -7 18t-11.5 8t-13.5 0.5t-16.5 -6t-17.5 -10.5t-18 -13t-16 -13.5t-15 -13.5t-12 -11zM391 0q16 31 53 63h13q0 -63 -45 -63h-21z" />
<glyph unicode="{" horiz-adv-x="700" d="M0 467q0 20 9 46.5t21 52t13 28.5q27 76 80 117v-52q0 -5 16 -2q40 9 43 43q52 367 191 732q16 45 53 106h117q20 0 31.5 -19.5t11.5 -48.5q0 -45 -11 -102q-17 -10 -26 -10q-7 0 -49 10l22 -20q-46 -4 -82.5 -69t-33.5 -112l-246 -690q-11 -33 -72 -33q-44 0 -86 11 q-2 4 -2 12zM139 -180q12 164 33 317q12 24 29.5 39.5t30 21.5t21.5 19.5t9 34.5q-29 0 -37 -8v10l105 276h12v21l94 256q13 -29 13 -80q0 -11 -35.5 -105.5t-40.5 -91.5l5 -3q111 -76 111 -101v-12q-21 -325 -30 -488q-2 -8 -2 -67q0 -47 2 -70q12 -42 73 -63q9 12 43 30 v-180q0 -53 -53 -53q-16 0 -35.5 4.5t-38.5 10.5t-22 7q-64 10 -74 11q23 118 23 168q0 33 -6.5 65t-6.5 51v23l84 241v27q-23 0 -53.5 -28t-54.5 -59.5t-29 -33.5v10l127 277q2 2 2 14q0 39 -32 39q-12 0 -29.5 -16t-30 -32.5t-10.5 -16.5q-14 0 -33 13t-22 13 q0 -21 35.5 -56.5t35.5 -37.5v-6l-76 -170v-23q0 -61 23 -61q8 0 10 2l53 51v-10q0 -43 -16 -86t-16 -74q0 -1 6 -40t6 -74q0 -32 -11 -91t-26 -59q-33 0 -99.5 79t-66.5 124v41zM193 279v165q0 30 83 277q1 4 12 46t24 87.5t41.5 110t62.5 116.5q12 -41 12 -137 q0 -51 -2 -53zM193 977v328q0 183 169 223h11q-135 -268 -180 -551z" />
<glyph unicode="|" horiz-adv-x="380" d="M41 -297q10 455 31 1092q19 3 40.5 47.5t34.5 44.5q0 -35 -15 -75t-15 -56q25 0 28 8l54 147v31q-6 0 -28 -5t-36 -5v22l127 426v-362l-74 -223v-17q15 0 22.5 12t21 43.5t30.5 57.5v-764l-137 -455v-18q30 0 33 8l104 328v-223l-63 -158v-19q32 0 63 72v-213 q0 -13 -30 -54q-51 -68 -74 -35q-11 17 -13 62h-94l-10 17v104v160zM70 -20h22q14 0 14 178h-24q-12 -80 -12 -178zM72 1550q7 0 57.5 11.5t69.5 19.5q65 21 65 -53q0 -36 -14.5 -85t-39.5 -114t-32 -88q-29 -95 -96 -350v297q0 4 5 9.5t17 15t21 18.5l74 244v47 q-14 0 -25 -14t-15.5 -30t-8.5 -35t-5 -22q-32 -101 -57 -170v287zM104 184q25 0 31 27l94 467h-30l-11 -31l-84 -426v-37z" />
<glyph unicode="}" horiz-adv-x="700" d="M20 1444q38 21 63 55t39 64.5t25 38.5q27 -11 67 -33t40 -31q0 -16 -11.5 -53t-26 -75t-15.5 -42q-5 -14 -9.5 -24t-8 -14t-5.5 -3l-74 10l11 11zM92 -301q0 10 2 16l10 -22q1 2 22.5 14t45 29t29.5 31h-49l79 657q2 28 27 53v-86h27q2 0 20 150q3 10 0 20q43 160 96 297 q29 77 74 150h6v-287q0 -58 47 -96q31 22 60 22q20 0 30.5 -16t12 -34.5t2.5 -48t2 -40.5q1 -8 3 -14.5t2.5 -9.5t1.5 -5.5t-1 -2.5h-3.5t-7.5 0.5t-12 0.5q-17 0 -58.5 -30t-41.5 -39q0 -15 16.5 -64t16.5 -51v-29l-76 -528q-12 -100 -117 -191q-58 -55 -120 -55 q-13 0 -68 39t-55 43v4l43 33q-9 15 -25.5 37t-28.5 36.5t-12 16.5zM176 -207q19 0 67.5 98t124.5 269q9 20 13 30q45 101 117 330q24 12 24 94h-24q-23 -33 -44 -89t-50.5 -150.5t-55.5 -163.5q-55 -149 -160 -338q-12 -34 -12 -80zM221 1307v8l74 223q20 -2 48 -8.5 t28 -11.5l-129 -361q-1 7 -11 63.5t-10 86.5zM252 631q0 5 22 47q16 29 20 65t1 62.5t-11 71.5t-10 67q-2 4 -2 25q0 7 16.5 21.5t16.5 17.5l107 286v27q-13 0 -29 -22.5t-32.5 -61.5t-29.5 -75t-27 -78t-20 -56l-10 -10q-12 53 -12 82q0 26 22 35l127 350q18 10 46 -42.5 t28 -84.5v-297l-20 -10q-22 -13 -84 -170q-7 -16 -31.5 -90.5t-46 -136.5t-25.5 -62q-16 0 -16 39zM254 -297v-41h20l160 389q25 64 25 170h-25l-33 -147zM346 -375q14 0 26 10.5t20.5 34t13 38.5t11 46t7.5 35q2 10 2 31h-25q-55 -76 -55 -195z" />
<glyph unicode="~" horiz-adv-x="944" d="M75.5 693q22.5 44 70.5 83.5t100 61.5h24l-100 -267h-4q-2 0 -8.5 8t-21 25t-30.5 33l-20 -23q-33 35 -10.5 79zM244 647q0 23 27 104.5t59 96.5q21 3 43 0q53 -6 53 -25q0 -6 -2.5 -14t-7.5 -18t-9.5 -18.5t-12 -21.5t-11.5 -20q-7 -12 -21.5 -36.5t-21.5 -37.5 q-43 9 -94 -20q-2 2 -2 10zM424 631q0 20 37 73.5t59 69.5q23 -3 23 -16v-4l-74 -160q-45 12 -45 37zM436 737q0 41 33 58h10q-32 -60 -42 -60q-1 0 -1 2zM508 582q0 10 2 12l76 147q58 10 84 23v-53l20 -11q-16 -16 -16 -53h16l150 148q12 0 12 -43q0 -67 -76.5 -134 t-163.5 -67q-21 0 -62.5 8t-41.5 23zM713 731v6q0 14 6.5 41t14 48t9.5 22q27 10 54 -31z" />
<glyph unicode="&#xa4;" horiz-adv-x="1400" d="M20 1231l168 53h17v-53l176 -86q-98 -207 -180 -404q-39 -85 -39 -141q62 0 112 78l318 500l12 10v-4q0 -12 -12 -39q-66 -156 -84 -191q-65 -71 -84 -96q-66 -79 -66 -147q0 -98 -20 -173.5t-64 -177.5v-106h21q0 62 19 122.5t57 143.5q31 -31 77 -90t70 -80v-22 l-106 -201l-125 61l-33 -147q-7 -23 -41 -23q-51 0 -96 37.5t-45 98.5q0 20 32 53t64.5 67t32.5 54q0 38 -36.5 117.5t-39.5 95.5v106q0 198 96 350q-4 8 -10 11q-65 53 -99.5 88t-50.5 71q-7 18 -41 64zM221 678v6q0 14 10 37l213 457q12 27 107 53h27l-336 -531zM487 104 l19 33q95 169 119 170h143l-90 -190v-33h20l129 244q189 100 201 276q-5 44 1.5 86t15 64t26 58.5t21.5 45.5q18 46 18 129h-18l-127 -117q-10 10 -40.5 34t-53.5 43t-23 24q0 32 13 72.5t13 46.5q-16 0 -32 -16.5t-32 -41.5l-15 -24q-4 -7 -47.5 -11t-98 -6t-67.5 -4 q-2 -2 -11 -2v12l107 244q0 2 33 2q159 0 211 -119q17 -38 22 -43l201 203h35q0 -27 -25 -63l139 -33l11 -10h-17l-4 1q-3 1 -8 2.5t-12 3t-17.5 2.5t-21.5 1q-6 0 -17 -32t-20.5 -80t-9.5 -85q0 -14 9.5 -34.5t20 -37t11.5 -18.5q25 -57 35 -105.5t10 -138.5 q0 -131 -33 -213q-29 -71 -107 -211q104 -21 148 -32q20 -4 33.5 -22t26 -41.5t26.5 -33.5l-10 -10l-150 -74q-2 -2 -27 -2q-143 0 -143 125q4 5 10 15q189 250 189 377q-9 0 -31 -36t-43.5 -78.5t-40.5 -82.5t-20 -41q-57 -76 -74 -107q-18 -59 -112.5 -94t-200.5 -35 q-134 0 -207 33q-11 4 -11 10zM518 233v5q0 12 43 79h14q0 -45 -57 -84zM963 186q16 0 31.5 11.5t31.5 38t27 48t30.5 65t30.5 65.5q35 78 35 106h-25q-55 -115 -127 -256q-34 -49 -34 -78zM995 829q0 9 2 9l64 63q3 -9 -14.5 -57.5t-34.5 -48.5t-17 34z" />
<glyph unicode="&#xa7;" horiz-adv-x="964" d="M84 434v330q0 32 38.5 64t67.5 32q0 -28 -9 -66.5t-16.5 -63t-26.5 -74.5t-23 -62v-33h20l277 553v-74q-162 -340 -234 -733q-32 24 -63 64t-31 63zM125 1124q0 256 233 308v-21q0 -42 -39.5 -138t-44.5 -116q-10 -37 -22.5 -91t-21 -84.5t-19.5 -47.5q-86 89 -86 190z M135 -41l12 10q27 3 54 0q48 -18 63 -20q52 -15 127 -15v-8q0 -15 -12 -41t-29 -55.5t-22 -40.5q-11 -25 1 -46q9 -17 19 3l86 170h12q-2 0 -4.5 -36.5t-7.5 -80t-28 -80t-62 -36.5q-65 0 -123 10q-86 18 -86 63v203zM204 292q0 5 5 13t12 16.5t16 22.5t15 27q31 58 106 213 q13 -23 15.5 -54t-1.5 -54t-12.5 -61.5t-11.5 -54.5q21 -61 46 46q9 34 18 92l96 -74h4q27 0 78 31t55 32v-4l-9 -38q-2 -10 -7 -34q-55 -292 -86 -306q-2 -1 -4 -1h-11q-6 0 -53.5 42t-52.5 44q-95 37 -211 95q-7 2 -7 7zM242 858v23q0 38 20.5 114.5t44.5 147t77 220.5 q4 10 6 16l5 15t6 17q11 25 21 33h86zM264 477v21l11 35q103 355 169 475q4 4 11 0q43 -15 43 -21v-10zM432 729q0 10 8 31.5t17 39t23 45.5l18 36q2 -15 -22 -83.5t-44 -68.5zM434 1157v10l117 277q0 -13 -5 -48.5t-16.5 -88t-36.5 -96t-59 -54.5zM444 -307l54 276 q10 3 21 15.5t21 29.5t19.5 37t17.5 38.5t14 34.5t9 25l4 9q45 152 74 297q2 8 2 22q0 4 -34 31.5t-34 38.5q0 2 2 4q5 13 21 50.5t23.5 57t18 51t15 58.5t4.5 53q-14 0 -33 -33t-33 -72t-26 -76l-12 -36q-4 -13 -15.5 0.5t-34.5 46t-44 49.5q-4 5 -5 14t4 28.5t11 38.5 t14.5 42.5t15.5 41t14 35.5t9 24q3 10 10 20h21q8 0 129 -53q89 -40 129.5 -80t40.5 -111q0 -100 -23 -286q0 -17 -32.5 -54.5t-67 -75t-37.5 -51.5l-117 -454q0 -16 -99 -81l-7 -5q-21 -15 -64 -15v15zM526 1204q0 24 22.5 73t22.5 50q19 73 21 117q142 6 256 -12 q20 -3 20 -15v-6l-63 -244q-3 -12 -27 -12q-12 0 -28.5 4.5t-46 14t-48.5 14.5q-8 6 -19 9.5t-29 5t-27 2t-32 -0.5h-22zM604 -285l41 41l117 445q65 -53 65 -191q0 -153 -106 -243q-66 -54 -107 -54q-8 0 -10 2z" />
<glyph unicode="&#xa9;" horiz-adv-x="1591" d="M84 604v111q0 159 41 272q98 273 362 393h11zM104 508q0 37 11 63l116 236q-9 -201 64 -363l22 -47v-6l-75 -147q-28 22 -83 126t-55 138zM283 211q0 20 2 22q34 103 63 117q145 -145 297 -192q-22 -28 -22 -58q0 -28 22 -28q29 0 79 32.5t71 32.5q9 0 10.5 -8.5 t-4.5 -25t-11.5 -29t-15.5 -31.5t-12 -23q-10 -24 -15 -27t-32 -3q-126 0 -260 73q-21 10 -56.5 32t-75.5 57t-40 59zM444 1176v12l117 223q10 10 127 33h137q-77 -108 -94 -129q-16 -20 -37.5 -30.5t-49 -15t-30.5 -5.5q-26 -8 -90.5 -48t-79.5 -40zM518 588v49q3 70 10 84 l213 393h191q43 0 43 -27q0 -13 -9.5 -33t-24.5 -44t-19 -33q-4 -13 -36.5 -16.5t-67.5 -3t-64 -12.5t-29 -44v-264q0 -13 -26 -52.5t-69 -96t-48 -64.5l-11 -10q-9 -9 -25 38q-24 79 -28 136zM528 807v10q0 33 11 127q18 120 129 150h16zM604 381q7 11 26.5 45t31.5 53 t31.5 43.5t37.5 38.5q10 -17 10 -26t-14.5 -31t-34 -47.5t-24.5 -32.5q-27 -35 2 -33q18 1 118 38q46 17 60 17v-6q-1 5 -8 -7q-2 -4 -6 -14q-40 -84 -70 -90l-6 -1q-83 0 -154 53zM729 432q0 33 45 66q28 9 26 -8q-1 -21 -30 -43q-21 -15 -41 -15zM815 31v6q0 116 150 131 h20q-66 -80 -170 -137zM838 1294v11l63 127q51 8 133.5 -27t163.5 -90q94 -64 160 -158q139 -201 139 -442q0 -328 -268 -578q-159 -147 -365 -147q4 0 32 27t66.5 66.5t75.5 78.5t66 69.5t31 32.5q30 30 63 53v-10q0 -7 -16 -27t-35.5 -41.5t-22.5 -27.5q-37 -58 -37 -117 h15q15 36 53 96q80 91 117 148q170 265 170 299v27q-10 0 -21 -5t-19.5 -12t-18 -17.5t-15 -17.5t-12.5 -17t-8 -11l-13 -13q0 20 2.5 69.5t3 77.5t-3 68t-12.5 72q-55 198 -180 299q-21 17 -49.5 38.5t-34.5 25.5q-107 53 -223 73zM852 326q-48 0 19 81q8 9 24 28 q21 24 27 32l20 20q25 20 40 -23t15 -81q0 -36 -22 -45v43h-21q-34 -55 -102 -55zM963 952q0 14 22 56q12 -56 -22 -56z" />
<glyph unicode="&#xab;" horiz-adv-x="1071" d="M106 614l191 351l20 22v-10q0 -34 -31 -95t-74 -131.5t-54 -93.5q-21 -47 -31 -86q-34 18 -21 43zM168 494q0 2 2 4q196 234 307 479l10 10v-22l-243 -584l-11 -10q-65 87 -65 123zM180 584v10q0 20 10 43l191 371h63q-52 -124 -127 -244q-11 -18 -127 -170 q-3 -7 -10 -10zM260 317l121 277l10 10q23 9 39.5 -4.5t23.5 -38.5t10 -42.5t3 -26.5q0 -67 -107 -259q-2 -7 -11 -13.5t-20 -11t-12 -5.5zM317 201v2v-2zM410 233l77 181l11 -11l43 -139q9 -31 -21 -31h-110zM487 848v6q0 16 7.5 38t20 49t15.5 36q23 10 23 -16 q0 -72 -66 -113zM551 594q0 12 4 27t7.5 25.5t11.5 29t10 24.5q133 233 176 334q14 31 24 60l181 -97q48 -19 -11 -20q-11 -1 -25 0h-1q-10 0 -29.5 -57t-40 -126t-52.5 -128t-63 -62v-20l222 -299q12 -15 12 -31q0 -53 -62 -53q-74 0 -141 20v6q0 26 9 58t20.5 60.5 t13.5 35.5q-20 61 -59 -58q-6 -20 -18 -58q-6 -24 -9 -32q-83 15 -104 138q-2 10 -6 49.5t-8.5 70.5t-8.5 31q-26 0 -20 -35q-2 5 -10 24.5t-11.5 29.5t-7.5 25.5t-4 27.5z" />
<glyph unicode="&#xad;" horiz-adv-x="657" d="M63 500q0 59 20 162t23 122q10 3 23 0q90 -12 137 -20q-22 -26 -62 -81t-69 -98t-29 -44v-33h23q80 127 180 246h17q22 0 41 -3t27 -7l9 -3v-10q0 -36 -97 -140t-140 -104q-18 0 -52 6.5t-51 6.5zM266 487q18 21 60.5 81t79 107.5t51.5 55.5q55 12 55 -14q0 -12 -12 -27 q-135 -203 -138 -203h-96zM416 487q35 93 84 127q9 9 42 -31t33 -46q0 -50 -32 -50h-127z" />
<glyph unicode="&#xae;" horiz-adv-x="1591" d="M84 711q0 214 84 370v-30l-64 -234v-117h21l106 84q-12 -230 107 -413q-41 -71 -41 -135q10 0 35.5 47t32.5 47q4 0 4 -2l75 -74q-7 -10 -24.5 -45t-32.5 -59.5t-22 -24.5q-38 0 -81.5 43t-79 105.5t-61.5 121.5t-39 103q-20 73 -20 213zM135 764v31q0 50 76 266 q108 315 477 383q70 4 126 4.5t120.5 -13t136.5 -44.5q426 -193 426 -676q0 -322 -235 -557q-12 12 -43 12q-10 0 -23 -4t-30 -13t-28.5 -15.5t-31.5 -18.5l-25 -15v7q0 22 42 71.5t113.5 120.5t78.5 78v18q-40 0 -64 -18v6q0 11 6.5 26.5t13.5 27t14.5 23.5t8.5 13 q24 51 33.5 101t9.5 137q0 421 -405 559q37 55 37 112q-80 0 -80 -49q0 -7 6 -13.5t6 -12.5q0 -17 -46.5 -24.5t-119.5 -9t-90 -3.5h-10q-3 0 -3.5 4t1 10.5t4 14.5t4.5 17.5t2 16.5h-39q-17 -30 -33.5 -53.5t-34.5 -41t-30 -27.5t-32.5 -25.5t-29.5 -22.5 q-88 -79 -116 -127q-70 -151 -100 -195q-46 -70 -93 -81zM412 100q0 76 63 121l6 -1q70 -5 70 -36l-10 -13q-32 -56 -33 -81q0 -39 20 -39q6 0 12 18.5t11.5 41t17.5 41t29 18.5q47 0 47 -12v-127h23q12 0 44 21t70.5 48.5t55.5 36.5q51 23 104 23v-41q55 0 119 49v-4 q0 -22 -27.5 -56t-27.5 -47q0 -24 43 -30q-99 -51 -261 -51q-53 0 -140 15.5t-161.5 45t-74.5 59.5zM475 449q0 64 23 102q182 291 200 319l17 15v-78q0 -6 59 -12q24 -3 51 0q-51 -80 -73 -105q-14 -18 -22 -26t-9 -7l-43 33q9 -90 -10 -119q-53 -78 -150 -211 q-43 34 -43 89zM496 684q0 51 2 57q2 74 20 277q3 47 10 76q2 7 11 10h262l-303 -479q-2 20 -2 59zM561 338v12q0 1 8.5 13.5t30.5 45.5t45 68q30 43 43 53q12 -38 12 -96q0 -65 -65 -127q-11 2 -29.5 9.5t-31.5 14.5zM688 84v63q8 0 86 -10q-17 -25 -86 -53zM762 965 l86 139q99 12 177.5 -59t78.5 -164q0 -119 -111 -119q0 9 12 62q4 18 -2 17q-6 -2 -18 -14l-190 -280l-21 100q133 185 158 223q14 17 21.5 53t8.5 64.5t1 83.5h-21q-1 0 -8.5 -41.5t-17.5 -86.5t-15 -52q-6 43 -31 43q-31 0 -79 10q-41 9 -29 21zM815 471q0 29 38.5 100.5 t68.5 85.5q23 -11 51 -49t56 -87t32 -54q12 -21 10 -23l-106 -106q-59 -9 -117 -64q-33 130 -33 197z" />
<glyph unicode="&#xb0;" horiz-adv-x="593" d="M94 1651q0 192 191 207q43 8 94 -21q43 -27 33 -43l-43 -63q0 -2 -4 -2q-23 0 -73 22.5t-56 22.5q-12 0 -23 -8.5t-22 -27t-17.5 -30.5t-17 -36t-11.5 -27q-23 -58 -8 -65q12 -6 36 36q8 13 15 29q7 -26 26.5 -46.5t34.5 -37.5t15 -39q0 -68 -22 -68q-25 0 -64 31 q-47 42 -65.5 74t-18.5 92zM303.5 1470q1.5 8 4.5 16.5t9 20t11 20.5t11.5 19.5t8.5 14.5q5 10 20.5 56t34.5 87t41 57q17 10 30 -29t13 -81q0 -75 -50 -136t-122 -61q-7 0 -10 4t-1.5 12z" />
<glyph unicode="&#xb1;" horiz-adv-x="1071" d="M63 741q11 3 21 13q77 74 147 104q23 13 23 -14q0 -19 -30 -75t-34 -69q-3 -8 -5 -34.5t-10 -39t-28 -12.5q-45 0 -81 119q-2 5 -3 8zM94 297v4q0 49 33 49h227l-90 -182l-10 -10q-17 -17 -96 -11q-25 3 -43 21h37zM221 633v45l76 149q4 11 20 11q17 0 34 -3t44.5 -10 t32.5 -8v254q0 8 49 64q2 2 11 -3.5t19 -11.5t11 -6q23 0 23 21q20 -14 20 -37q0 -5 -9 -18.5t-11 -18.5l-150 -404l-27 -5q-26 -6 -68.5 -12.5t-74.5 -6.5zM317 180l84 170h76q-14 -19 -39 -52.5t-63.5 -76.5t-50.5 -43q-5 0 -7 2zM360 147q84 106 181 203h98 q0 -30 -12.5 -71t-12.5 -54q0 -24 33 -24q14 0 31 10q6 4 27 20q95 72 101 54q1 -2 1 -4q0 -5 -2 -7q-8 -12 -22.5 -39t-25.5 -44t-27 -36.5t-36 -29.5t-43 -10q-41 0 -47 2q-210 12 -223 20zM444 666v12l127 362l13 11l127 -277h4q51 0 114 16.5t80 16.5q56 0 56 -96 q0 -15 -2 -32t-5 -33.5t-4 -20.5q-3 -30 0 -64l-159 43q-7 4 -7 49q-42 0 -67 -28l-137 32q22 -86 22 -141q0 -32 -44.5 -68t-80.5 -36q-26 0 -26 22v10l192 383v19q-14 0 -32 -14.5t-35.5 -37t-32 -43t-26.5 -40.5t-13 -21q-15 -24 -64 -24zM657 244v4q0 48 31 102h246 l20 -22q2 -4 2 -60q0 -72 -12 -121q-1 -6 -3.5 -15.5t-3 -12t-2.5 -8.5t-3 -7l-4.5 -4.5t-6 -3.5t-9 -1t-12 -1h-15.5q-66 0 -131 10q-2 2 -2 7q0 11 13 34.5t27 43.5t30 43l16 22q12 18 12 33q0 53 -43 53q-13 0 -34.5 -12t-38.5 -24.5t-43 -33t-34 -26.5z" />
<glyph unicode="&#xb6;" horiz-adv-x="1028" d="M41 1130q0 148 94 218q4 -15 -3 -46t-17.5 -60.5t-10.5 -31.5q-18 -80 -32 -192l-11 -21q-20 56 -20 133zM104 934l211 457v-23q0 -19 -9.5 -47.5t-24 -62.5t-19.5 -48q-27 -97 -84 -329h-20zM115 1051v10q0 59 30 170q7 21 16 56.5t14.5 51.5t17.5 36t31.5 30.5 t49.5 15.5h11q-3 0 -36 -73t-76 -169.5t-58 -127.5zM209 848q39 178 86 340q35 117 84 244h153l-217 -605q0 -2 -16 -2q-36 0 -90 23zM324 -253q-7 13 4.5 30.5t26 32.5t37 34.5t30.5 28.5q95 118 139 168q11 14 21 22v-147l-117 -213q-2 -2 -19 -2q-8 0 -88 25 q-27 8 -34 21zM326 -104q21 291 32 421q26 57 117 117v-10l-106 -213v-16q26 0 32 6l191 266l10 10v-139q-154 -250 -223 -369q-7 -11 -24 -54q-22 -53 -27 -54q-2 0 -2 8v27zM354 817l207 574l10 20q4 4 11 0q12 -7 21 -12.5t16 -13t12 -11t8 -13.5t4.5 -12.5t2.5 -16 t1 -16.5v-20.5v-21.5q0 -88 -2 -96q0 -20 -10 -43l-256 -564v246h-25zM369 414v41l266 573q6 -77 -10 -117zM401 -78q0 29 36.5 90t88.5 134.5t66 97.5v-107q-33 -24 -65.5 -63t-60 -78t-34.5 -47q-1 -1 -5 -6q-25 -25 -26 -21zM455 477v10l170 330q3 -43 0 -86 q-3 -71 -13 -170q-20 -32 -51 -63q0 22 -20 22q-16 0 -83 -42q-5 -3 -3 -1zM506 -319q0 10 23 57.5t42 71.5v-84q0 -45 -65 -45zM759.5 -227q0.5 12 0.5 16q0 39 7.5 76t22 79t15.5 46q-4 12 -4 22q-33 0 -39 -28v174l86 213v22q-13 0 -24.5 -9.5t-20.5 -27.5t-15.5 -33 t-14.5 -38t-11 -31v254q67 102 149 233q27 45 41 107q6 -548 -10 -1102q-3 -22 -16 -22q-4 0 -4 2l-23 53l-84 -76q-2 -2 -14 -2q-10 0 -17.5 2.5t-12 8.5t-7 11.5t-3.5 15.5t-1.5 16t0 18zM762 584v53q0 34 14.5 68.5t25.5 50.5t46.5 56t40.5 46q15 18 33 33q4 -19 -5 -48 t-30.5 -66.5t-40 -66.5t-47 -70.5t-37.5 -55.5zM762 764v647q0 17 24 40.5t47 39.5t25 16q15 -75 74 -75q18 0 33 12v-500q-15 12 -33 12q-10 0 -29 -17.5t-40.5 -44t-40.5 -51.5t-34 -46.5t-16 -22.5q-3 -7 -10 -10z" />
<glyph unicode="&#xb7;" horiz-adv-x="561" d="M84 688v23.5v25.5q0 60 10 90q34 82 94 97h25q-30 0 -88 -299l-10 -11q-8 6 -13.5 12t-9 14t-5.5 13.5t-2.5 17t-0.5 17.5zM158 582q0 28 4 57t10 53t12 42.5t11.5 33t5.5 16.5q21 77 63 150q96 7 96 -27q0 -4 -2 -6l-84 -287l-1 -3q-1 -3 -1 -7q0 -7 6.5 -13.5 t6.5 -12.5q0 -37 -37 -37q-90 0 -90 41zM322 541q5 2 16 90q0 1 -2.5 6t-5 12.5t-2.5 12.5q0 116 73 229q66 -54 66 -154q0 -77 -46.5 -136.5t-98.5 -59.5z" />
<glyph unicode="&#xbb;" horiz-adv-x="1071" d="M94 977q0 42 51 84q37 12 105 -27q57 -33 62 -62q1 -11 -7 -18l117 -170q6 -6 -35.5 -112.5t-105 -259t-70.5 -168.5v-19q18 0 46.5 48t57.5 118t55 138t44 119l18 52q20 52 49 3q16 -29 17 -46q0 -57 -129 -297v-10q0 -25 -6 -46t-11 -30.5t-24 -40.5 q-6 -12 -18.5 -17.5t-21 -6t-28 0.5t-24.5 1h-68q-34 2 -61 26q-16 16 2 17h16q13 -9 20 -11.5t13 2t10 19.5l94 320q2 7 34 57.5t32 63.5v6l-224 233q-10 10 -10 33zM498 360l51 54q2 -4 0 -14t-6.5 -23.5l-8.5 -25.5t-9 -26t-7 -18zM528 254q0 9 10 19t11 12 q35 101 76 192q13 33 36.5 61.5t33.5 50t3 58.5l97 191q21 -21 41.5 -44t37.5 -44.5t28.5 -37.5t24 -33.5t15.5 -21.5q23 -30 23 -47v-6l-193 -360v-15q0 -28 23 -61q-36 7 -106.5 21.5t-106.5 21.5q-54 12 -54 43zM539 950q0 21 22 37h55q0 -9 -8 -35.5t-16.5 -48.5 t-9.5 -22h-9q1 1 -7 8.5t-17.5 24.5t-9.5 36zM611.5 809.5q-3.5 18.5 2 41.5t9.5 35.5t16.5 42t15.5 36.5q15 37 54 43q17 5 24.5 -0.5t7.5 -22.5q0 -9 -11 -19t-11 -16q0 -16 21.5 -42t21.5 -34v-4l-84 -170h-12q-14 25 -41 74q-10 17 -13.5 35.5zM719 408l8 -10 q27 -39 35 -40q20 0 32.5 33.5t12.5 48.5q0 16 -12.5 21.5t-12.5 13.5q0 10 2 12l64 181v32h-23q-7 -11 -10 -22q-37 -95 -96 -254v-16z" />
<glyph unicode="&#x2000;" horiz-adv-x="929" />
<glyph unicode="&#x2001;" horiz-adv-x="1859" />
<glyph unicode="&#x2002;" horiz-adv-x="929" />
<glyph unicode="&#x2003;" horiz-adv-x="1859" />
<glyph unicode="&#x2004;" horiz-adv-x="619" />
<glyph unicode="&#x2005;" horiz-adv-x="464" />
<glyph unicode="&#x2006;" horiz-adv-x="309" />
<glyph unicode="&#x2007;" horiz-adv-x="309" />
<glyph unicode="&#x2008;" horiz-adv-x="232" />
<glyph unicode="&#x2009;" horiz-adv-x="371" />
<glyph unicode="&#x200a;" horiz-adv-x="103" />
<glyph unicode="&#x2010;" horiz-adv-x="657" d="M63 500q0 59 20 162t23 122q10 3 23 0q90 -12 137 -20q-22 -26 -62 -81t-69 -98t-29 -44v-33h23q80 127 180 246h17q22 0 41 -3t27 -7l9 -3v-10q0 -36 -97 -140t-140 -104q-18 0 -52 6.5t-51 6.5zM266 487q18 21 60.5 81t79 107.5t51.5 55.5q55 12 55 -14q0 -12 -12 -27 q-135 -203 -138 -203h-96zM416 487q35 93 84 127q9 9 42 -31t33 -46q0 -50 -32 -50h-127z" />
<glyph unicode="&#x2011;" horiz-adv-x="657" d="M63 500q0 59 20 162t23 122q10 3 23 0q90 -12 137 -20q-22 -26 -62 -81t-69 -98t-29 -44v-33h23q80 127 180 246h17q22 0 41 -3t27 -7l9 -3v-10q0 -36 -97 -140t-140 -104q-18 0 -52 6.5t-51 6.5zM266 487q18 21 60.5 81t79 107.5t51.5 55.5q55 12 55 -14q0 -12 -12 -27 q-135 -203 -138 -203h-96zM416 487q35 93 84 127q9 9 42 -31t33 -46q0 -50 -32 -50h-127z" />
<glyph unicode="&#x2012;" horiz-adv-x="657" d="M63 500q0 59 20 162t23 122q10 3 23 0q90 -12 137 -20q-22 -26 -62 -81t-69 -98t-29 -44v-33h23q80 127 180 246h17q22 0 41 -3t27 -7l9 -3v-10q0 -36 -97 -140t-140 -104q-18 0 -52 6.5t-51 6.5zM266 487q18 21 60.5 81t79 107.5t51.5 55.5q55 12 55 -14q0 -12 -12 -27 q-135 -203 -138 -203h-96zM416 487q35 93 84 127q9 9 42 -31t33 -46q0 -50 -32 -50h-127z" />
<glyph unicode="&#x2013;" horiz-adv-x="987" d="M63 760q0 38 21 47h63q-5 -23 -24 -64.5t-19 -42.5zM137 614q5 7 15.5 21.5t15.5 21.5q64 77 129 150h12q-1 0 -12.5 -35.5t-11.5 -40.5q0 -22 67 -22q17 0 19 2l73 63h17v-127h26q0 43 11 107q12 53 32 53h361q32 -14 96 -14v-9l-76 -147q-10 -23 -41 -23h-733zM158 711 v4q0 65 43 92h43q-59 -73 -86 -96zM338 758q0 10 22 49h54l-66 -66q-2 -2 -4.5 2.5t-3.5 9.5zM571 700l54 -53h22v21l-53 53h-23v-21z" />
<glyph unicode="&#x2014;" horiz-adv-x="1400" d="M63 489q0 43 23 168q3 19 20 33h33q34 -2 100.5 -6t100.5 -6q-14 -16 -55 -78.5t-77 -103.5t-63 -41q-82 0 -82 34zM236 455q1 1 29.5 59.5t65 111t62.5 52.5l86 12h43q-3 -12 -14 -30t-24 -35t-15 -21q-53 -95 -53 -106v-31h20q55 113 117 190q26 33 33 33h92l-146 -203 q-2 -2 -2 -10q0 -19 13 -22h-307zM586 455v43q0 -2 4 4q2 3 9 14q67 106 134 174l350 10h160q33 0 33 -32v-191l-23 -22h-307l-117 96h-20v-21l74 -75h-150q-20 0 -20 16q0 9 7.5 25.5t16 30t19 28.5t10.5 16q18 35 18 62q-20 0 -43.5 -28.5t-57 -88t-34.5 -61.5h-63z" />
<glyph unicode="&#x2018;" horiz-adv-x="487" d="M61 1040l181 361q16 28 73 31q54 12 54 -11v-106q-92 -27 -170 -117q170 15 235 -127q-5 -11 -15.5 -38t-19 -48.5t-19.5 -44.5t-22 -36t-20 -13h-203q-36 0 -65 54.5t-9 94.5zM104 1221v16q0 75 64 121v-10zM135 1094q25 -97 33 -97h25q0 8 -5 43q0 15 -16 55t-37 29 q-3 -15 0 -30z" />
<glyph unicode="&#x2019;" horiz-adv-x="487" d="M41 1130q0 70 21.5 173.5t54.5 128.5h96l-170 -318q0 1 -1 8t-1 8zM74 897q0 170 180 143q-7 13 -21 34.5t-23 36t-9 17.5q0 32 22 60q-2 2 -6 2q-5 0 -21.5 -11t-30.5 -22.5t-15 -11.5q-21 -6 -44 -6v18l148 264l12 11h74l10 -11h-24q0 -142 -82 -297v-30h22l84 157 q23 -84 23 -110q0 -87 -46 -143t-122 -56q-9 0 -42 6t-57 6v-57h-32z" />
<glyph unicode="&#x201a;" horiz-adv-x="487" d="M84 -244l74 33v4q0 12 -64 60q9 13 34.5 25.5t43.5 33.5t18 63q0 18 -2.5 24.5t-6.5 6.5t-16.5 -3t-23.5 -3q-23 0 -26 10q18 7 43 61.5t50.5 125.5t33.5 88h43l-74 -201v-18q15 0 35.5 31t36 67t30 72t15.5 38q6 13 16 13q16 0 16 -23q0 -28 -21 -57.5t-11 -59.5 l-97 -210q-9 -73 -63 -170q-50 -11 -70 -11h-14zM94 238q0 47 31 47h76l-97 -234q3 43 0 86q-10 75 -10 101zM221 -217q0 19 17.5 69t25.5 64q40 94 84 178q33 -50 33 -98q0 -40 -12 -70q-14 -40 -85 -106q-58 -51 -63 -37z" />
<glyph unicode="&#x201c;" horiz-adv-x="923" d="M63 995q0 31 5 70t10 64t14.5 68t11.5 54q21 120 160 150h4q-2 -2 3 -12t10.5 -21.5t5.5 -13.5q0 -18 -13 -46t-36.5 -66t-26.5 -44q-27 -46 -63.5 -107.5t-43.5 -72.5q-6 -12 -6 -53h17l149 245h25q0 61 10 56q11 -7 17 -59q1 -10 1 -19q0 -18 -13 -50.5t-34 -75 t-26 -54.5v-31h20q1 0 18 34.5t37.5 79t28.5 66.5q20 31 23 -21v-37v-18q10 -105 10 -139q0 -51 -43 -51h-191q-32 0 -58 41t-26 63zM317 1303q0 1 11 98q13 -2 28.5 8.5t3.5 22.5q11 -4 11 -21q0 -23 -23 -20l33 -64q2 -5 -6.5 -10.5t-24 -9.5t-33.5 -4zM539 1188 q0 168 139 203q68 16 139 10l-22 31q6 -2 32 -10t43 -11q-23 -38 -83 -89q-46 -39 -46 -22q0 6 21.5 22t21.5 26q0 34 -22 34q-6 0 -21 -34q-6 -13 -18 -19t-20.5 -7t-14.5 -10t0 -28h-10v-33l-107 -190q0 -2 -4 -2q-13 0 -20.5 46.5t-7.5 82.5zM561 891v59q1 -1 6 7 q4 8 19 44q72 166 114 197q16 -3 31 0q10 7 27.5 9t33 -8t15.5 -32q0 -24 -29.5 -59.5t-29.5 -67.5h16l84 105q0 2 4 2q39 0 49 -23q-7 -14 -34.5 -82.5t-50.5 -109.5t-42 -41h-213z" />
<glyph unicode="&#x201d;" horiz-adv-x="923" d="M51 911q58 138 172 138q0 62 39 118q62 82 86 117q37 65 53 107q11 7 54 -33q-51 -126 -66 -191q-5 -21 -11 -53.5t-9 -42.5q-25 -98 -160 -254q-88 88 -158 94zM72 1262q0 18 2.5 45t15.5 68.5t35 56.5h223q58 0 -25 -61q-2 -1 -6 -4q-10 -7 -12 -9q-38 -35 -77.5 -66 t-39.5 -24q0 21 40 57.5t40 48.5q-15 0 -29 -3.5t-26.5 -13t-22.5 -16.5t-21.5 -23.5t-18 -25t-17.5 -30t-14.5 -28t-14.5 -30t-12 -26.5q-20 56 -20 84zM102 1157h33l180 158v-10l-96 -127q-23 -33 -84 -33q-30 0 -33 12zM455 1167l84 244q3 11 32 21h211q13 0 13 -15 q0 -6 -13 -16q-43 -34 -43 -37q0 -28 -11 -37t-11 -22q0 -7 2 -11q26 6 49.5 -30t35 -74.5t11.5 -52.5q0 -62 -30.5 -127.5t-75.5 -65.5q-22 0 -43 21l-107 -74l-20 10l10 23q17 13 18.5 23t-6 16t-16 15.5t-8.5 18.5q0 11 38.5 31t38.5 27q0 15 3.5 26.5t5.5 22.5 q1 7 -3 14.5t0 10t25 6.5q75 14 74 21q-2 9 -127 9v13l106 202v17q-21 0 -45 -37.5t-41.5 -82.5t-40.5 -82.5t-43 -37.5q-15 0 -73 10z" />
<glyph unicode="&#x201e;" horiz-adv-x="923" d="M31 94l73 180l21 11h63v-11q0 -3 -84 -200q-9 -20 -19 -26t-19 1t-16 15.5t-13 19.5zM61 -244l27 11v86q0 5 41 31t41 28q0 12 -2 14l-53 54h84l-11 83q-35 -65 -63 -65v22l21 47q59 143 96 218h73q-59 -95 -59 -144q9 0 52.5 62.5t56.5 62.5q16 0 16 -28v-5l-160 -253 v-31h21l147 223l12 -14q1 -1 -20 -178q-13 -101 -77 -153.5t-189 -70.5v-10zM528 -147q0 4 27 16.5t53.5 34t26.5 45.5q0 12 -37 36.5t-47 24.5l137 264l10 11h97q4 0 5 -3.5t0 -10.5t-2.5 -14.5t-3 -17t-1.5 -16.5q0 -29 2 -33q19 -134 20 -159q2 -4 2 -31q0 -49 -22 -104 q-15 -36 -35 -60t-45 -36.5t-46 -18.5t-51 -12.5t-47 -12.5h-10q-18 0 -22 11zM539 238v36l22 11h84l-84 -158l-10 -10q-12 43 -12 121zM678 -84v-25q25 0 31 15l75 145v33h-22zM698 84q0 -25 10 -23q15 4 27 44q6 22 6 45q0 61 -43 40q-5 -17 11 -43q0 -10 -11 -63z" />
<glyph unicode="&#x2022;" horiz-adv-x="593" d="M94 737q0 63 38.5 125t88.5 62q-18 0 -50 -111t-32 -151q78 0 78 49h-41q0 23 40 108t79 115q70 20 131 -44t61 -153q0 -198 -188 -198q-205 0 -205 198zM358 764h21v84h-21v-84z" />
<glyph unicode="&#x2026;" horiz-adv-x="1421" d="M89.5 210.5q-3.5 2.5 0.5 12.5q0 -4 22 1.5t45 12.5l23 7q8 2 25 2q0 -27 -7 -60t-16.5 -64t-11.5 -38q13 -37 52 24q44 70 63 156l2 10l10 11q63 15 63 -31v-223l-10 -11q1 1 -12 15q-17 18 -14 18q-5 0 -5 -2q-29 -8 -76 -23.5t-72 -21.5t-50 -6q-27 0 -27 41 q0 27 6 55t6 43q0 28 -6.5 48.5t-10 23zM520 63v11l53 180q0 -22 8 -31.5t22 -7.5t27.5 7.5t28.5 13t21 8.5q22 7 -15 -144q-3 -13 -3 -12q25 0 28 6l53 170q3 15 43 21h13q1 0 -10.5 -39t-23 -78.5t-11.5 -40.5q4 -11 11 -15.5t13 -2.5t8 8l54 147l10 -10v-223l-43 -82h-10 q-21 0 -203 51q-15 4 -21 10q-53 47 -53 53zM997 57v6l64 197q18 -6 22 -6q21 0 48 5t36 5v-20l-84 -234q-4 -4 -14 -4q-72 0 -72 51zM1055 264h8l-2 -4q-1 0 -3 2t-3 2zM1124 4q0 47 35 146.5t72 123.5q0 -1 22.5 -17t22.5 -24q0 -47 -36.5 -145t-76.5 -98q-39 0 -39 14z M1231 -10q80 160 86 295q20 -11 20 -31v-223l-30 -62q-2 -2 -19 -2q-57 0 -57 17v6z" />
<glyph unicode="&#x202f;" horiz-adv-x="371" />
<glyph unicode="&#x205f;" horiz-adv-x="464" />
<glyph unicode="&#x20ac;" horiz-adv-x="923" d="M29 549l30 92h78q0 10 -1 35.5t-1 34.5q0 7 1 27.5t1 31.5h-108l30 92h82q26 297 125.5 439.5t304.5 142.5q195 0 271 -96l10 -185h-45q-21 172 -170 172q-101 0 -152 -118.5t-63 -354.5h352l-33 -92h-319q0 -10 -1 -32t-1 -31q0 -50 2 -66h274l-30 -92h-244 q8 -226 63.5 -343.5t155.5 -117.5q64 0 109.5 41.5t56.5 126.5h45l-10 -178q-38 -46 -100 -71t-171 -25q-199 0 -301 141t-123 426h-118z" />
<glyph unicode="&#x2122;" horiz-adv-x="1550" d="M31 1411q0 18 10 21h106l-75 -127q-41 21 -41 106zM135 1337q0 49 64 95h436q-3 -6 -32 -56q-2 -3 -1 -2q0 -85 96 -100h-16q-72 0 -103 9q-7 3 -8 5q0 13 4.5 36t4.5 34h-19l-43 -80h-63v-111l-244 -467q11 -30 -13 -42q-8 -4 -10 -1v11q4 48 23 243q8 -14 41 -14v27 l223 456v17q-28 0 -31 -6l-223 -437q2 5 1.5 12t-2 17.5t-1.5 13.5q0 37 2 43q21 133 21 158q0 139 -107 139zM274 702v39l160 299l10 11v-97q-2 -68 -10 -223q-12 -36 -86 -74q-57 45 -74 45zM729 1393q0 26 2 28l21 23h63q12 0 12 -33q0 -29 -86 -160q-12 73 -12 142z M741 700h54v11q-36 355 -43 434v22q0 22 13.5 51t40.5 69.5t32 49.5q63 121 63 127l98 -164l-194 -366v-19q22 0 44.5 28.5t41 66.5t20.5 41v-330q0 -12 -71 -51l-2 -2q-40 0 -97 32zM947.5 1100.5q-0.5 10.5 4.5 23t9.5 22t12.5 23t11 19.5q28 52 43 63q21 -14 34.5 -29.5 t17.5 -33.5t5 -33t-5.5 -37t-11 -35.5t-15 -38t-15.5 -36.5q23 -46 69 69q8 19 20 54q15 40 17 40q1 0 1 -4v25q-37 0 -43 -25l-10 11q-1 1 7 13.5t22 31.5t31.5 42t35 45t32 40.5t22.5 29.5l9 11q16 19 56 28.5t99 15t79 9.5h39l-62 -723q-3 -33 -67 -33q-72 0 -124 36.5 t-52 92.5v211q0 19 22.5 65t22.5 54t-2 10q-33 4 -43 38q-2 6 -3 1q-1 -2 -3 -11q-3 -10 -5 -18q-4 -16 -21.5 -108t-31.5 -135q0 1 -11 0t-24 -6t-24 -13.5t-10.5 -26t16.5 -40.5q-6 4 -16.5 21.5t-21.5 38t-15 26.5q-20 34 -52 86.5t-43 70.5q-6 9 -6.5 19.5zM1241 963 q25 8 64 24l-8 -32q-29 -93 -29 -121q10 0 18.5 4.5t17 15t14.5 20.5t13.5 27.5t12 29.5t12.5 33.5t12 32.5q18 47 5.5 61t-58.5 -18v11l53 116v31h-22l-105 -211v-24z" />
<glyph unicode="&#x25fc;" horiz-adv-x="1167" d="M0 0v1167h1167v-1167h-1167z" />
</font>
</defs>
</svg>
